<?xml version="1.0" encoding="utf-8"?>
<!-- Generator: Adobe Illustrator 16.0.0, SVG Export Plug-In . SVG Version: 6.00 Build 0)  -->
<!DOCTYPE svg PUBLIC "-//W3C//DTD SVG 1.1//EN" "http://www.w3.org/Graphics/SVG/1.1/DTD/svg11.dtd">
<svg version="1.1" id="Capa_1" xmlns="http://www.w3.org/2000/svg" xmlns:xlink="http://www.w3.org/1999/xlink" x="0px" y="0px"
	 width="488.696px" height="490.435px" viewBox="0 0 488.696 490.435" enable-background="new 0 0 488.696 490.435"
	 xml:space="preserve">
<g>
	<g>
		<path fill-rule="evenodd" clip-rule="evenodd" fill="#FFFFFF" d="M86.389,217.258c1.278,5.917-2.477,11.754-8.391,13.039
			l-13.391,2.909c-5.916,1.281-11.753-2.476-13.036-8.393l-6.974-32.134c-1.285-5.917,2.472-11.754,8.388-13.036l13.389-2.906
			c5.916-1.285,11.753,2.47,13.036,8.387L86.389,217.258z"/>
		<linearGradient id="SVGID_1_" gradientUnits="userSpaceOnUse" x1="64.4854" y1="204.686" x2="80.8278" y2="209.2955">
			<stop  offset="0" style="stop-color:#FFFFFF"/>
			<stop  offset="1" style="stop-color:#000000"/>
		</linearGradient>
		<path opacity="0.3" fill-rule="evenodd" clip-rule="evenodd" fill="url(#SVGID_1_)" d="M86.389,217.258l-6.977-32.134
			c-1.283-5.917-7.121-9.671-13.036-8.387l-13.389,2.906c-0.386,0.083-0.761,0.188-1.125,0.307
			c5.215,15.882,7.795,34.264,1.462,48.858c2.462,3.487,6.85,5.358,11.284,4.397l13.391-2.909
			C83.913,229.012,87.667,223.174,86.389,217.258z"/>
	</g>
	<g>
		<path fill-rule="evenodd" clip-rule="evenodd" fill="#FFFFFF" d="M243.307,87.203c2.639,11.507-4.553,22.975-16.062,25.609
			c-11.509,2.642-22.973-4.55-25.609-16.061c-2.639-11.503,4.55-22.971,16.057-25.612C229.2,68.501,240.669,75.692,243.307,87.203z"
			/>
		<path fill-rule="evenodd" clip-rule="evenodd" fill="#FFFFFF" d="M224.26,27.901c1.981,8.644-3.419,17.262-12.066,19.24
			c-8.641,1.984-17.255-3.424-19.238-12.065c-1.979-8.647,3.419-17.259,12.063-19.24C213.664,13.855,222.279,19.257,224.26,27.901z"
			/>
		<polygon fill-rule="evenodd" clip-rule="evenodd" fill="#FFFFFF" points="226.792,91.45 219.598,93.1 207.709,41.228 
			214.905,39.583 		"/>
	</g>
	<linearGradient id="SVGID_2_" gradientUnits="userSpaceOnUse" x1="224.063" y1="63.2344" x2="232.4434" y2="61.0002">
		<stop  offset="0" style="stop-color:#FFFFFF"/>
		<stop  offset="1" style="stop-color:#000000"/>
	</linearGradient>
	<path opacity="0.2" fill-rule="evenodd" clip-rule="evenodd" fill="url(#SVGID_2_)" d="M243.307,87.203
		c-2.308-10.064-11.362-16.823-21.293-16.602l-5.734-25.015c6.171-3.358,9.626-10.507,7.98-17.685
		c-1.303-5.686-5.486-9.956-10.652-11.656c0.53,22.093-4.122,46.388,9.812,64.968c5.074,8.882,11.101,20.637,9.375,29.466
		C240.937,106.186,245.488,96.719,243.307,87.203z"/>
	<path fill-rule="evenodd" clip-rule="evenodd" fill="#FFFFFF" d="M419.951,145.184c1.278,5.917-2.476,11.755-8.393,13.036
		l-13.389,2.905c-5.918,1.284-11.752-2.47-13.036-8.387l-6.974-32.134c-1.285-5.917,2.473-11.754,8.387-13.036l13.389-2.913
		c5.917-1.281,11.755,2.477,13.036,8.394L419.951,145.184z"/>
	<linearGradient id="SVGID_3_" gradientUnits="userSpaceOnUse" x1="417.3647" y1="137.0967" x2="383.3327" y2="129.2832">
		<stop  offset="0" style="stop-color:#FFFFFF"/>
		<stop  offset="1" style="stop-color:#000000"/>
	</linearGradient>
	<path opacity="0.3" fill-rule="evenodd" clip-rule="evenodd" fill="url(#SVGID_3_)" d="M412.971,113.05
		c-1.281-5.917-7.119-9.675-13.036-8.394l-13.389,2.913c-5.914,1.281-9.672,7.119-8.387,13.036l6.974,32.134
		c1.284,5.917,7.118,9.671,13.036,8.387l10.685-2.314c3.896-9.797,3.771-21.116,7.231-31.431L412.971,113.05z"/>
	<g>
		<path fill-rule="evenodd" clip-rule="evenodd" fill="#FFFFFF" d="M346.474,349.959c-18.097,0-34.441,6.941-46.104,18.102
			c-11.313,9.457-27.146,15.234-43.599,15.234c-17.646,0-31.989-6.626-45.989-17.345v0.295c-14-13.396-28.864-21.965-48.973-21.965
			c-35.426,0-63.726,26.576-63.726,59.361c0,32.787,28.957,58.791,64.388,58.791c18.094,0,34.696-4.65,46.405-18.65h-0.038
			c11.708-6,26.451-14.988,43.086-14.988c16.873,0,32.177,6.356,43.578,16.252c11.722,14.188,30.192,23.487,50.981,23.487
			c35.423,0,64.135-26.506,64.135-59.287C410.62,376.47,381.9,349.959,346.474,349.959z"/>
		<linearGradient id="SVGID_4_" gradientUnits="userSpaceOnUse" x1="253.6025" y1="411.1919" x2="263.3682" y2="333.0743">
			<stop  offset="0" style="stop-color:#FFFFFF"/>
			<stop  offset="1" style="stop-color:#000000"/>
		</linearGradient>
		<path opacity="0.3" fill-rule="evenodd" clip-rule="evenodd" fill="url(#SVGID_4_)" d="M298.667,431.784
			c36.85,5.817,122.962,32.857,110.699-34.118c-5.854-27.198-31.777-47.706-62.892-47.706c-18.097,0-34.441,6.941-46.104,18.102
			c-11.313,9.457-27.146,15.234-43.599,15.234c-17.646,0-31.989-6.626-45.989-17.345v0.295c-14-13.396-28.864-21.965-48.973-21.965
			c-4.699,0-8.902,0.499-13.313,1.387c-40.461,8.248-64.844,53.352-39.492,67.59C148.624,435.518,267.56,428.327,298.667,431.784z"
			/>
		<path fill-rule="evenodd" clip-rule="evenodd" fill="#FFFFFF" d="M255.086,241.655c3.414,0,6.697,0.036,9.697,0.109v-26.745
			l-27,8.41v18.56C243.783,241.768,249.045,241.655,255.086,241.655z"/>
		<linearGradient id="SVGID_5_" gradientUnits="userSpaceOnUse" x1="237.7827" y1="228.5039" x2="264.7827" y2="228.5039">
			<stop  offset="0" style="stop-color:#FFFFFF"/>
			<stop  offset="1" style="stop-color:#000000"/>
		</linearGradient>
		<path opacity="0.3" fill-rule="evenodd" clip-rule="evenodd" fill="url(#SVGID_5_)" d="M255.086,241.655
			c3.414,0,6.697,0.036,9.697,0.109v-26.745l-27,8.41v18.56C243.783,241.768,249.045,241.655,255.086,241.655z"/>
		<g>
			<path fill-rule="evenodd" clip-rule="evenodd" fill="#FFFFFF" d="M464.316,184.179c-4.907-2.866-8.685-6.221-18.709-5.96
				c-10.037,0.251-23.073,1.635-31.575,11.626c-3.933,4.609-7.942,9.183-11.329,14.218c-12.601,18.678-26.92,35.864-43.896,50.755
				c-2.021,1.773-4.537,3.236-5.91,5.423c-5.145,8.155-9.685,16.668-10.507,26.537c-0.693,8.351,3.758,13.729,12.078,14.96
				c4.3,0.635,8.638,0.556,12.97,0.614c13.558,0.212,26.769-1.871,39.583-6.273c24.784-8.506,44.153-24.097,59.13-45.417
				c7.571-10.781,12.653-22.437,13.056-35.813C479.599,201.719,474.954,191.295,464.316,184.179z"/>
		</g>
		<g opacity="0.3">
			<linearGradient id="SVGID_6_" gradientUnits="userSpaceOnUse" x1="392.7808" y1="259.5161" x2="334.7098" y2="269.8853">
				<stop  offset="0" style="stop-color:#FFFFFF"/>
				<stop  offset="1" style="stop-color:#000000"/>
			</linearGradient>
			<path fill-rule="evenodd" clip-rule="evenodd" fill="url(#SVGID_6_)" d="M391.823,219.179
				c-9.856,12.877-20.732,24.863-33.016,35.64c-2.021,1.773-4.537,3.236-5.91,5.423c-5.145,8.155-9.685,16.668-10.507,26.537
				c-0.693,8.351,3.758,13.729,12.078,14.96c4.3,0.635,8.638,0.556,12.97,0.614c13.558,0.212,26.769-1.871,39.583-6.273
				c11.319-3.883,21.455-9.317,30.615-16.03C427.79,255.545,413.11,233.371,391.823,219.179z"/>
		</g>
		<g>
			<path fill-rule="evenodd" clip-rule="evenodd" fill="#FFFFFF" d="M44.012,374.129c4.37,2.45,7.747,5.343,16.584,4.967
				c8.826-0.384,20.297-1.811,27.627-10.731c3.396-4.127,6.852-8.215,9.76-12.699c10.805-16.658,23.156-32.015,37.873-45.404
				c1.752-1.588,3.949-2.918,5.126-4.87c4.403-7.257,8.27-14.832,8.838-23.529c0.479-7.376-3.521-12.046-10.869-12.996
				c-3.8-0.492-7.621-0.356-11.438-0.337c-11.946,0.026-23.554,2.066-34.772,6.139c-21.697,7.878-38.52,21.918-51.374,40.934
				c-6.508,9.611-10.8,19.956-10.947,31.75C30.278,358.921,34.53,368.032,44.012,374.129z"/>
		</g>
		<path fill-rule="evenodd" clip-rule="evenodd" fill="#FFFFFF" d="M361.461,277.222c0,22.338-49.065,114.163-109.598,114.163
			c-60.531,0-109.601-91.825-109.601-114.163c0-22.323,49.069-35.438,109.601-35.438
			C312.396,241.784,361.461,254.899,361.461,277.222z"/>
		<linearGradient id="SVGID_7_" gradientUnits="userSpaceOnUse" x1="246.6519" y1="263.6157" x2="243.0214" y2="226.8008">
			<stop  offset="0" style="stop-color:#FFFFFF"/>
			<stop  offset="1" style="stop-color:#000000"/>
		</linearGradient>
		<path opacity="0.3" fill-rule="evenodd" clip-rule="evenodd" fill="url(#SVGID_7_)" d="M142.263,277.222
			c0,5.614,3.103,15.629,8.709,27.462c67.979-0.125,146.672-2.344,201.324-42.825c-16.93-12.851-55.512-20.075-100.433-20.075
			C191.333,241.784,142.263,254.899,142.263,277.222z"/>
		<path fill-rule="evenodd" clip-rule="evenodd" fill="#FFFFFF" d="M405.582,140.257l-5.207-26.032
			c-5.752-28.752-32.246-47.706-59.17-42.317L95.623,120.308c-26.933,5.375-44.09,33.059-38.353,61.821l5.217,26.029
			c5.752,28.759,32.24,47.699,59.165,42.323l245.585-48.405C394.17,196.697,411.331,169.011,405.582,140.257z M203.754,185.87
			c-6.618,12.204-22.113,18.147-35.216,13.508c-14.348-5.069-22.408-19.082-19.548-33.973c2.549-13.287,15.377-23.866,28.614-23.424
			c-5.946,6.277-7.134,12.316-3.68,18.24c2.951,5.062,9.065,7.713,14.708,6.379c6.906-1.628,10.377-6.458,10.832-15.077
			C207.944,157.989,209.991,174.383,203.754,185.87z M310.798,163.982c-6.469,11.903-21.575,17.701-34.356,13.177
			c-13.99-4.946-21.845-18.609-19.063-33.137c2.49-12.957,14.991-23.272,27.901-22.843c-5.795,6.125-6.953,12.012-3.586,17.791
			c2.88,4.937,8.843,7.522,14.351,6.221c6.729-1.584,10.12-6.3,10.565-14.7C314.878,136.797,316.876,152.782,310.798,163.982z"/>
		<path fill-rule="evenodd" clip-rule="evenodd" fill="#0B2D46" d="M244.2,290.827c0,8.502,0,16.725,0,25.368
			c8.567,0,16.865,0,25.09,0c2.093,12.139-9.035,24.605-22.893,26.185c-14.019,1.592-27.582-10.058-28.104-24.144
			C217.719,302.832,229.295,290.318,244.2,290.827z"/>
		<path fill-rule="evenodd" clip-rule="evenodd" fill="#21527C" d="M248.893,283.414c15.355-0.938,28.671,12.468,27.946,27.545
			c-1.143,0.112-2.315,0.317-3.493,0.317c-7.902,0.032-15.816,0.019-24.453,0.019c0-5.015,0-9.608,0-14.204
			C248.893,292.626,248.893,288.168,248.893,283.414z"/>
	</g>
	<g>
		<path fill="#21527C" d="M215.658,161.707c-0.476,37.599-29.017,66.965-66.586,68.514c-37.558,1.559-67.028-30.542-68.516-66.579
			c-1.547-37.563,30.541-67.031,66.584-68.521C184.701,93.576,214.168,125.67,215.658,161.707
			c0.353,8.604,13.724,8.433,13.367-0.191c-1.857-44.919-37.123-79.189-82.075-79.76c-44.949-0.568-79.215,38.945-79.762,82.078
			c-0.569,44.945,38.944,79.212,82.075,79.76c44.942,0.57,79.215-38.942,79.762-82.078
			C229.132,152.891,215.768,153.096,215.658,161.707z"/>
		<path fill="#21527C" d="M382.957,126.924c-0.475,37.602-29.016,66.976-66.578,68.521c-37.565,1.552-67.03-30.542-68.521-66.579
			c-1.552-37.569,30.542-67.035,66.585-68.521C352.002,58.793,381.468,90.888,382.957,126.924
			c0.357,8.605,13.724,8.434,13.369-0.185c-1.852-44.919-37.122-79.192-82.074-79.76c-44.948-0.568-79.215,38.939-79.763,82.071
			c-0.568,44.952,38.942,79.219,82.075,79.767c44.948,0.568,79.215-38.946,79.763-82.078
			C396.435,118.108,383.063,118.32,382.957,126.924z"/>
		<path fill="#21527C" d="M224.989,152.659c4.873-1.152,9.749-2.291,14.625-3.434c3.551-0.822,5.527-4.933,4.555-8.288
			c-1.057-3.636-4.743-5.379-8.292-4.547c-4.875,1.139-9.751,2.278-14.625,3.417c-3.555,0.835-5.532,4.933-4.555,8.288
			C217.751,151.735,221.442,153.485,224.989,152.659L224.989,152.659z"/>
	</g>
</g>
</svg>
