<?xml version="1.0" encoding="utf-8"?>
<!-- Generator: Adobe Illustrator 16.0.0, SVG Export Plug-In . SVG Version: 6.00 Build 0)  -->
<!DOCTYPE svg PUBLIC "-//W3C//DTD SVG 1.1//EN" "http://www.w3.org/Graphics/SVG/1.1/DTD/svg11.dtd">
<svg version="1.1" id="Capa_1" xmlns="http://www.w3.org/2000/svg" xmlns:xlink="http://www.w3.org/1999/xlink" x="0px" y="0px"
	 width="642.609px" height="318.261px" viewBox="0 0 642.609 318.261" enable-background="new 0 0 642.609 318.261"
	 xml:space="preserve">
<rect x="33.478" y="11.435" fill="#2EA1A1" width="86" height="74"/>
<rect x="537.478" y="229.435" fill="#2EA1A1" width="86" height="74"/>
<rect x="57.478" y="43.435" fill="#0B2D46" width="522" height="243"/>
<rect x="523.478" y="229.435" fill="#21527C" width="43" height="37"/>
<rect x="545.478" y="25.435" fill="#21527C" width="69" height="60"/>
<rect x="596.478" y="70.435" fill="#0B2D46" width="35" height="30"/>
<rect x="15.478" y="68.435" fill="#005550" width="35" height="30"/>
<g>
	<circle fill="#0B2D46" cx="253.252" cy="135.339" r="15.117"/>
	<circle fill="#0B2D46" cx="301.344" cy="126.091" r="15.117"/>
	<g>
		<g>
			<path fill-rule="evenodd" clip-rule="evenodd" fill="#FFFFFF" d="M217.633,153.925c0.521,2.406-1.007,4.783-3.414,5.305
				l-5.449,1.184c-2.407,0.521-4.782-1.006-5.304-3.414l-2.837-13.076c-0.523-2.408,1.005-4.783,3.413-5.305l5.448-1.184
				c2.407-0.521,4.783,1.006,5.305,3.414L217.633,153.925z"/>
			<linearGradient id="SVGID_1_" gradientUnits="userSpaceOnUse" x1="208.7217" y1="148.8086" x2="215.3717" y2="150.6842">
				<stop  offset="0" style="stop-color:#FFFFFF"/>
				<stop  offset="1" style="stop-color:#000000"/>
			</linearGradient>
			<path opacity="0.3" fill-rule="evenodd" clip-rule="evenodd" fill="url(#SVGID_1_)" d="M217.633,153.925l-2.838-13.076
				c-0.522-2.408-2.897-3.936-5.305-3.414l-5.448,1.184c-0.157,0.033-0.31,0.076-0.458,0.124c2.122,6.463,3.172,13.942,0.595,19.882
				c1.001,1.418,2.787,2.181,4.591,1.789l5.449-1.184C216.626,158.708,218.154,156.331,217.633,153.925z"/>
		</g>
		<g>
			<circle fill-rule="evenodd" clip-rule="evenodd" fill="#FFFFFF" cx="273.008" cy="102.945" r="8.698"/>
			<circle fill-rule="evenodd" clip-rule="evenodd" fill="#FFFFFF" cx="267.366" cy="78.332" r="6.535"/>
			
				<rect x="269.381" y="81.685" transform="matrix(0.9747 -0.2237 0.2237 0.9747 -13.8305 62.9432)" fill-rule="evenodd" clip-rule="evenodd" fill="#FFFFFF" width="3.003" height="21.654"/>
		</g>
		<linearGradient id="SVGID_2_" gradientUnits="userSpaceOnUse" x1="273.6548" y1="91.2485" x2="277.0652" y2="90.3393">
			<stop  offset="0" style="stop-color:#FFFFFF"/>
			<stop  offset="1" style="stop-color:#000000"/>
		</linearGradient>
		<path opacity="0.2" fill-rule="evenodd" clip-rule="evenodd" fill="url(#SVGID_2_)" d="M281.486,101.002
			c-0.939-4.094-4.624-6.845-8.665-6.755l-2.333-10.18c2.511-1.366,3.917-4.273,3.248-7.195c-0.531-2.314-2.233-4.051-4.335-4.743
			c0.216,8.99-1.677,18.876,3.992,26.438c2.065,3.612,4.518,8.396,3.815,11.988C280.521,108.727,282.374,104.874,281.486,101.002z"
			/>
		<path fill-rule="evenodd" clip-rule="evenodd" fill="#FFFFFF" d="M353.365,124.595c0.521,2.408-1.008,4.783-3.415,5.306
			l-5.448,1.183c-2.407,0.522-4.782-1.006-5.305-3.414l-2.838-13.075c-0.522-2.407,1.006-4.783,3.413-5.306l5.449-1.183
			c2.407-0.522,4.782,1.007,5.304,3.414L353.365,124.595z"/>
		<linearGradient id="SVGID_3_" gradientUnits="userSpaceOnUse" x1="352.313" y1="121.3052" x2="338.4648" y2="118.1257">
			<stop  offset="0" style="stop-color:#FFFFFF"/>
			<stop  offset="1" style="stop-color:#000000"/>
		</linearGradient>
		<path opacity="0.3" fill-rule="evenodd" clip-rule="evenodd" fill="url(#SVGID_3_)" d="M350.525,111.52
			c-0.521-2.407-2.896-3.937-5.304-3.414l-5.449,1.183c-2.407,0.522-3.936,2.898-3.413,5.306l2.838,13.075
			c0.522,2.408,2.897,3.937,5.305,3.414l4.348-0.942c1.586-3.986,1.534-8.593,2.942-12.788L350.525,111.52z"/>
		<g>
			<path fill-rule="evenodd" clip-rule="evenodd" fill="#FFFFFF" d="M323.466,207.923c-7.363,0-14.016,2.824-18.761,7.363
				c-4.604,3.851-10.932,6.201-17.627,6.201c-7.18,0-13.601-2.696-18.601-7.058v0.12c-6-5.451-11.859-8.938-20.041-8.938
				c-14.416,0-25.988,10.814-25.988,24.154c0,13.341,11.755,23.591,26.172,23.591c7.362,0,14.09-0.923,18.855-7.923h-0.016
				c4.764-2,10.764-5.767,17.532-5.767c6.865,0,13.093,2.755,17.733,6.78c4.769,5.773,12.285,9.64,20.745,9.64
				c14.414,0,26.098-10.743,26.098-24.083C349.569,218.669,337.881,207.923,323.466,207.923z"/>
			<linearGradient id="SVGID_4_" gradientUnits="userSpaceOnUse" x1="285.6943" y1="232.8389" x2="289.6677" y2="201.0548">
				<stop  offset="0" style="stop-color:#FFFFFF"/>
				<stop  offset="1" style="stop-color:#000000"/>
			</linearGradient>
			<path opacity="0.3" fill-rule="evenodd" clip-rule="evenodd" fill="url(#SVGID_4_)" d="M304.013,241.218
				c14.994,2.367,50.034,13.371,45.045-13.883c-2.383-11.067-12.932-19.412-25.592-19.412c-7.363,0-14.016,2.824-18.761,7.363
				c-4.604,3.851-10.932,6.201-17.627,6.201c-7.18,0-13.601-2.696-18.601-7.058v0.12c-6-5.451-11.859-8.938-20.041-8.938
				c-1.912,0-3.679,0.202-5.474,0.563c-16.465,3.356-26.415,21.71-16.099,27.503C242.986,242.737,291.355,239.812,304.013,241.218z"
				/>
			<path fill-rule="evenodd" clip-rule="evenodd" fill="#FFFFFF" d="M286.526,163.853c1.388,0,2.952,0.014,3.952,0.043v-10.883
				l-11,3.422v7.554C282.478,163.897,284.068,163.853,286.526,163.853z"/>
			<linearGradient id="SVGID_5_" gradientUnits="userSpaceOnUse" x1="279.478" y1="158.501" x2="290.478" y2="158.501">
				<stop  offset="0" style="stop-color:#FFFFFF"/>
				<stop  offset="1" style="stop-color:#000000"/>
			</linearGradient>
			<path opacity="0.3" fill-rule="evenodd" clip-rule="evenodd" fill="url(#SVGID_5_)" d="M286.526,163.853
				c1.388,0,2.952,0.014,3.952,0.043v-10.883l-11,3.422v7.554C282.478,163.897,284.068,163.853,286.526,163.853z"/>
			<g>
				<path fill-rule="evenodd" clip-rule="evenodd" fill="#FFFFFF" d="M371.418,140.464c-1.997-1.166-3.535-2.531-7.614-2.426
					c-4.084,0.103-9.389,0.666-12.848,4.73c-1.6,1.877-3.231,3.737-4.611,5.785c-5.126,7.602-10.953,14.595-17.861,20.654
					c-0.822,0.723-1.846,1.316-2.404,2.207c-2.094,3.318-3.94,6.783-4.275,10.798c-0.283,3.399,1.529,5.587,4.914,6.089
					c1.751,0.257,3.516,0.225,5.278,0.248c5.518,0.086,10.893-0.761,16.107-2.552c10.085-3.462,17.966-9.806,24.061-18.481
					c3.081-4.387,5.148-9.129,5.312-14.572C377.637,147.602,375.748,143.359,371.418,140.464z"/>
			</g>
			<g opacity="0.3">
				<linearGradient id="SVGID_6_" gradientUnits="userSpaceOnUse" x1="342.3091" y1="171.1191" x2="318.6784" y2="175.3387">
					<stop  offset="0" style="stop-color:#FFFFFF"/>
					<stop  offset="1" style="stop-color:#000000"/>
				</linearGradient>
				<path fill-rule="evenodd" clip-rule="evenodd" fill="url(#SVGID_6_)" d="M341.919,154.706
					c-4.011,5.238-8.437,10.117-13.436,14.502c-0.822,0.723-1.846,1.316-2.404,2.207c-2.094,3.318-3.94,6.783-4.275,10.798
					c-0.283,3.399,1.529,5.587,4.914,6.089c1.751,0.257,3.516,0.225,5.278,0.248c5.518,0.086,10.893-0.761,16.107-2.552
					c4.606-1.579,8.73-3.792,12.458-6.523C356.554,169.505,350.582,160.481,341.919,154.706z"/>
			</g>
			<g>
				<path fill-rule="evenodd" clip-rule="evenodd" fill="#FFFFFF" d="M200.39,217.758c1.778,0.997,3.152,2.175,6.748,2.021
					c3.591-0.156,8.259-0.736,11.242-4.367c1.381-1.68,2.788-3.342,3.972-5.168c4.397-6.777,9.422-13.027,15.411-18.475
					c0.713-0.646,1.607-1.188,2.086-1.981c1.792-2.954,3.365-6.035,3.596-9.575c0.195-3-1.433-4.9-4.422-5.288
					c-1.546-0.2-3.101-0.146-4.654-0.138c-4.861,0.012-9.584,0.842-14.149,2.498c-8.829,3.207-15.674,8.919-20.905,16.656
					c-2.648,3.912-4.395,8.122-4.455,12.92C194.801,211.568,196.531,215.276,200.39,217.758z"/>
			</g>
			<path fill-rule="evenodd" clip-rule="evenodd" fill="#FFFFFF" d="M329.566,178.325c0,9.089-19.966,46.453-44.598,46.453
				c-24.631,0-44.598-37.364-44.598-46.453c0-9.085,19.967-14.421,44.598-14.421C309.6,163.904,329.566,169.24,329.566,178.325z"/>
			<linearGradient id="SVGID_7_" gradientUnits="userSpaceOnUse" x1="282.8472" y1="172.7881" x2="281.3698" y2="157.8071">
				<stop  offset="0" style="stop-color:#FFFFFF"/>
				<stop  offset="1" style="stop-color:#000000"/>
			</linearGradient>
			<path opacity="0.3" fill-rule="evenodd" clip-rule="evenodd" fill="url(#SVGID_7_)" d="M240.37,178.325
				c0,2.283,1.262,6.357,3.543,11.174c27.662-0.05,59.684-0.954,81.923-17.427c-6.889-5.228-22.589-8.168-40.868-8.168
				C260.337,163.904,240.37,169.24,240.37,178.325z"/>
			<path fill-rule="evenodd" clip-rule="evenodd" fill="#FFFFFF" d="M347.519,122.592l-2.119-10.594
				c-2.341-11.7-13.122-19.413-24.078-17.22l-99.931,19.694c-10.959,2.188-17.941,13.452-15.606,25.157l2.123,10.592
				c2.341,11.701,13.119,19.41,24.076,17.221l99.932-19.695C342.874,145.558,349.857,134.292,347.519,122.592z M265.391,141.151
				c-2.693,4.967-8.998,7.385-14.33,5.497c-5.839-2.063-9.117-7.765-7.955-13.823c1.038-5.408,6.257-9.712,11.643-9.533
				c-2.42,2.555-2.902,5.012-1.497,7.423c1.201,2.06,3.688,3.138,5.985,2.595c2.81-0.662,4.222-2.627,4.407-6.133
				C267.096,129.807,267.929,136.478,265.391,141.151z M308.948,132.245c-2.631,4.844-8.778,7.203-13.98,5.363
				c-5.693-2.015-8.889-7.574-7.756-13.484c1.013-5.273,6.1-9.47,11.354-9.295c-2.358,2.491-2.83,4.887-1.459,7.237
				c1.171,2.009,3.598,3.063,5.839,2.532c2.738-0.645,4.118-2.564,4.299-5.981C310.61,121.183,311.422,127.688,308.948,132.245z"/>
			<path fill-rule="evenodd" clip-rule="evenodd" fill="#0B2D46" d="M281.849,183.86c0,3.459,0,6.805,0,10.323
				c3.486,0,6.862,0,10.209,0c0.852,4.938-3.676,10.013-9.315,10.654c-5.704,0.647-11.223-4.093-11.436-9.825
				C271.074,188.745,275.785,183.653,281.849,183.86z"/>
			<path fill-rule="evenodd" clip-rule="evenodd" fill="#21527C" d="M283.758,180.844c6.249-0.381,11.667,5.073,11.372,11.208
				c-0.465,0.045-0.942,0.131-1.422,0.131c-3.215,0.012-6.436,0.006-9.95,0.006c0-2.041,0-3.91,0-5.779
				C283.758,184.592,283.758,182.778,283.758,180.844z"/>
		</g>
		<g>
			<path fill="#21527C" d="M270.235,131.319c-0.194,15.299-11.808,27.249-27.095,27.881c-15.283,0.632-27.275-12.429-27.88-27.094
				c-0.629-15.285,12.428-27.275,27.094-27.882C257.638,103.595,269.628,116.655,270.235,131.319
				c0.145,3.502,5.584,3.432,5.439-0.078c-0.756-18.279-15.105-32.223-33.398-32.457c-18.29-0.23-32.233,15.85-32.456,33.399
				c-0.232,18.289,15.847,32.233,33.397,32.456c18.287,0.232,32.234-15.846,32.456-33.398
				C275.717,127.731,270.28,127.815,270.235,131.319z"/>
			<path fill="#21527C" d="M338.312,117.167c-0.193,15.299-11.807,27.252-27.093,27.881c-15.286,0.631-27.275-12.43-27.882-27.093
				c-0.631-15.286,12.428-27.276,27.094-27.88C325.715,89.442,337.706,102.503,338.312,117.167c0.145,3.502,5.582,3.431,5.439-0.077
				c-0.754-18.278-15.105-32.225-33.397-32.454c-18.29-0.232-32.234,15.844-32.457,33.396c-0.232,18.29,15.846,32.235,33.397,32.458
				c18.29,0.231,32.234-15.848,32.457-33.399C343.795,113.579,338.355,113.665,338.312,117.167z"/>
			<path fill="#21527C" d="M274.032,127.638c1.983-0.469,3.967-0.933,5.951-1.396c1.445-0.336,2.249-2.008,1.854-3.373
				c-0.43-1.479-1.93-2.189-3.373-1.85c-1.984,0.463-3.969,0.927-5.952,1.391c-1.446,0.339-2.251,2.008-1.853,3.373
				C271.086,127.263,272.589,127.974,274.032,127.638L274.032,127.638z"/>
		</g>
	</g>
	<rect x="346.478" y="117.435" fill="#21527C" width="87" height="87"/>
	<g>
		<path fill="#FFFFFF" d="M409.193,167.46c-1.306-1.379-2.973-2.07-5.004-2.07h-0.162c0.268,0.393,0.16,1.034,0.649,1.278
			c-2.965,1.077-6.171,2.151-9.403,2.792v16.407h6.571V179.7h3.427c1.764,0,3.185-0.636,4.263-1.91
			c1.073-1.271,1.611-2.952,1.611-5.041C411.145,170.599,410.496,168.837,409.193,167.46z M404.372,173.976
			c-0.326,0.361-0.768,0.537-1.327,0.537h-1.2v-3.604h1.481c0.426,0,0.792,0.155,1.087,0.469c0.298,0.313,0.446,0.699,0.446,1.161
			C404.859,173.144,404.698,173.624,404.372,173.976z"/>
		<path fill="#FFFFFF" d="M367.208,178.456c-0.573,0.731-1.301,1.098-2.182,1.098c-0.9,0-1.646-0.366-2.236-1.098
			c-0.593-0.73-0.885-1.668-0.885-2.811c0-1.142,0.292-2.092,0.885-2.841c0.591-0.751,1.336-1.128,2.236-1.128
			c0.881,0,1.608,0.365,2.182,1.1c0.572,0.729,0.857,1.678,0.857,2.84C368.066,176.78,367.781,177.726,367.208,178.456
			 M371.826,168.222c-1.73-1.883-3.994-2.824-6.799-2.824c-2.806,0-5.07,0.941-6.8,2.824c-1.729,1.885-2.593,4.358-2.593,7.422
			c0,3.045,0.864,5.508,2.593,7.391c1.729,1.885,3.994,2.828,6.8,2.828c2.805,0,5.068-0.943,6.799-2.828
			c1.727-1.883,2.592-4.346,2.592-7.391C374.417,172.58,373.552,170.106,371.826,168.222"/>
		<path fill="#FFFFFF" d="M388.814,170.559c0.26-1.813-0.824-3.403-0.928-5.157h-0.078v10.342l-5.578-10.342h-6.432v20.466h6.403
			l-0.028-10.003l5.418,10.003h6.568v-16.646C392.442,169.961,390.498,169.997,388.814,170.559z"/>
		<polygon fill="#FFFFFF" points="424.791,180.128 419.017,180.128 419.017,178.245 424.117,178.245 424.117,172.896 
			419.017,172.896 419.017,170.919 424.62,170.919 424.62,165.401 412.433,165.401 412.433,185.877 424.791,185.877 		"/>
		<path fill="#FFFFFF" d="M375.234,135.146v29.887h12.561c-0.366-0.375-0.477-0.799-0.417-1.198h-10.946v-27.491h27.561v27.491
			h-0.096c0.182,0.362,0.215,0.806,0.104,1.198h1.19v-29.887H375.234z"/>
		<path fill="#FFFFFF" d="M388.917,171.198l-4.231-16.76l2.802-2.956l1.57,4.751l1.777,0.334l1.768-2.41l2.843,1.843l1.508-1.427
			l-2.144-11.651l4.022-1.02l6.304,25.244L388.917,171.198z M385.677,154.696l3.891,15.414l14.479-3.615l-5.867-23.501l-2.335,0.593
			l2.079,11.303l-2.373,2.246l-2.724-1.764l-1.603,2.182l-2.852-0.537l-1.265-3.829L385.677,154.696z"/>
		<path fill="#FFFFFF" d="M398.366,142.536l0.841,3.296c0,0,2.972-3.867,1.84-7.013c0,0-0.648-1.831-1.815-3.076h-2.578
			c0,0,2.486,2.451,2.408,4.395C398.983,142.077,398.366,142.536,398.366,142.536"/>
		<path fill="#FFFFFF" d="M375.833,135.743v9.914c0,0,0.275,2.232,1.016,5.057c0.739,2.824,0.999,5.347,3.391,4.957
			c0,0,1.581-0.15,1.862-1.178c0,0,1.471,0.908,2.888,0.508c1.418-0.402,2.008-1.433,2.008-1.433s0.706,2.744,1.016,3.425
			c0.312,0.685,1.682,1.176,2.744,0.926c1.059-0.256,2.259-1.858,2.259-1.858s1.284,1.789,3.316,0.976c0,0,2.1-0.971,1.779-2.451
			c-0.321-1.48-3.122-13.081-3.122-13.081l-1.858,0.462l2.934,11.674c0,0,0.508,1.654-0.534,1.95c0,0-0.962,0.215-1.23-0.642
			c-0.268-0.859-2.154-8.762-2.154-8.762l-2.092,0.525l1.599,6.791c0,0,0.588,1.979-0.736,2.448c0,0-1.589,0.562-2.046-1.324
			c-0.46-1.889-1.819-7.169-1.819-7.169l-2.074,0.494l0.588,2.58c0,0,0.578,1.941-0.64,2.449c-1.217,0.508-1.887-0.389-2.034-0.925
			c-0.146-0.532-0.769-3.374-0.769-3.374l-1.946,0.493l0.724,2.909c0,0,0.334,1.176-0.516,1.404
			c-0.85,0.228-1.118-0.721-1.226-1.038c-0.109-0.312-1.358-4.036-1.595-5.458c-0.237-1.427-0.934-6.229-0.961-7.192
			c-0.029-0.964-0.172-2.377,0.254-4.058H375.833z"/>
	</g>
</g>
<g>
	<path fill-rule="evenodd" clip-rule="evenodd" fill="#0B2D46" d="M330.083,224.978c7.169,0,12.979-5.813,12.979-12.98
		c0-0.606-0.057-1.198-0.137-1.783c0.28,2.709-0.188,5.646-1.511,8.083c-2.912,5.371-9.729,7.985-15.495,5.944
		c-2.971-1.05-5.318-2.979-6.851-5.4C321.36,222.521,325.429,224.978,330.083,224.978z"/>
	<path fill-rule="evenodd" clip-rule="evenodd" fill="#0B2D46" d="M318.597,218.033c0.037,0.069,0.07,0.141,0.108,0.21
		C318.667,218.175,318.634,218.103,318.597,218.033z"/>
	<path fill-rule="evenodd" clip-rule="evenodd" fill="#0B2D46" d="M318.12,217.041c0.001,0.005,0.003,0.009,0.005,0.013
		C318.124,217.05,318.122,217.046,318.12,217.041z"/>
</g>
</svg>
