<?xml version="1.0" encoding="utf-8"?>
<!-- Generator: Adobe Illustrator 16.0.0, SVG Export Plug-In . SVG Version: 6.00 Build 0)  -->
<!DOCTYPE svg PUBLIC "-//W3C//DTD SVG 1.1//EN" "http://www.w3.org/Graphics/SVG/1.1/DTD/svg11.dtd">
<svg version="1.1" id="Capa_1" xmlns="http://www.w3.org/2000/svg" xmlns:xlink="http://www.w3.org/1999/xlink" x="0px" y="0px"
	 width="230.043px" height="233.044px" viewBox="0 0 230.043 233.044" enable-background="new 0 0 230.043 233.044"
	 xml:space="preserve">
<path fill-rule="evenodd" clip-rule="evenodd" fill="#005550" d="M71.332,228.133c-1.313-0.949-2.441-1.469-3.166-2.332
	c-8.683-10.317-17.298-20.692-25.942-31.044c-9.873-11.818-19.762-23.627-29.634-35.446c-2.999-3.589-5.927-7.243-8.965-10.799
	c-1.578-1.851-1.008-3.481,0.114-5.224c4.883-7.576,9.74-15.171,14.61-22.754c3.567-5.553,7.15-11.1,10.703-16.663
	c0.874-1.369,1.814-2.597,3.66-2.449c1.806,0.146,2.625,1.429,3.348,2.898c10.327,21.02,20.66,42.034,31.049,63.024
	c0.548,1.107,1.602,1.965,2.42,2.939c0.753-1.038,1.736-1.979,2.225-3.126c14.596-34.316,31.625-67.312,53.061-97.914
	c11.026-15.745,23.158-30.566,37.807-43.121c4.89-4.191,10.298-7.775,15.414-11.706c2.017-1.546,4.064-1.604,6.149-0.43
	c4.258,2.402,8.691,4.585,12.636,7.435c9.783,7.059,19.345,14.42,28.953,21.714c2.08,1.578,1.983,1.788-0.09,3.388
	c-8.704,6.714-17.768,13.017-25.992,20.272c-8.71,7.681-16.829,16.073-24.831,24.514c-14.172,14.952-27.342,30.801-39.663,47.293
	c-13.882,18.587-27.366,37.477-40.745,56.427c-6.956,9.851-13.291,20.141-19.98,30.179
	C73.749,226.295,72.521,227.048,71.332,228.133z"/>
<g>
	<polygon fill-rule="evenodd" clip-rule="evenodd" fill="#FFFFFF" points="203.209,204.913 131.893,204.913 131.903,114.647 
		199.124,114.598 	"/>
	<path fill-rule="evenodd" clip-rule="evenodd" fill="#2EA1A1" d="M114.926,219.192c0-31.452,0-62.903,0-94.355
		c0.069-0.209,0.161-0.414,0.206-0.627c1.063-5.102,4.82-8.801,9.977-9.472c2.231-0.29,4.527-0.082,6.794-0.096
		c0.043-0.001,0.086,0.063,0.203,0.153c0,0.309,0,0.672,0,1.037c0,9.193-0.001,18.387,0,27.581c0,1.136,0.002,1.138,1.172,1.138
		c19.579,0,39.158-0.007,58.738,0.017c0.85,0,1.095-0.202,1.093-1.082c-0.036-9.249-0.023-18.499-0.023-27.749
		c0-0.358,0-0.715,0-1.145c0.464,0,0.799,0,1.136,0c5.674,0,11.349-0.003,17.023,0c3.433,0.004,6.866,0.017,10.3,0.027
		c0,31.451,0,62.903,0,94.355c-0.075,0.236-0.169,0.469-0.222,0.71c-0.785,3.541-2.699,6.244-5.878,8.047
		c-2.014,1.142-4.175,1.498-6.458,1.497c-31.07-0.013-62.141-0.007-93.211-0.008C115.493,219.22,115.209,219.202,114.926,219.192z
		 M132.104,203.177c0.453,0,0.761,0,1.068,0c4.457,0,8.913,0,13.369,0c14.846,0,29.69-0.034,44.537,0.022
		c3.977,0.016,6.712-2.681,6.68-6.681c-0.086-10.927-0.03-21.856-0.03-32.784c0-1.146-0.001-1.149-1.089-1.149
		c-19.33-0.001-38.661-0.003-57.992,0.01c-0.701,0-1.438,0.027-2.1,0.23c-2.943,0.905-4.438,3.01-4.439,6.177
		c-0.007,11.071-0.003,22.141-0.004,33.211C132.104,202.491,132.104,202.771,132.104,203.177z"/>
</g>
<rect x="170.043" y="114.913" fill-rule="evenodd" clip-rule="evenodd" fill="#2EA1A1" width="15" height="21"/>
<circle fill-rule="evenodd" clip-rule="evenodd" fill="#2EA1A1" cx="165.668" cy="182.538" r="8.5"/>
</svg>
