<?xml version="1.0" encoding="utf-8"?>
<!-- Generator: Adobe Illustrator 16.0.0, SVG Export Plug-In . SVG Version: 6.00 Build 0)  -->
<!DOCTYPE svg PUBLIC "-//W3C//DTD SVG 1.1//EN" "http://www.w3.org/Graphics/SVG/1.1/DTD/svg11.dtd">
<svg version="1.1" id="Layer_1" xmlns="http://www.w3.org/2000/svg" xmlns:xlink="http://www.w3.org/1999/xlink" x="0px" y="0px"
	 width="512px" height="512px" viewBox="0 0 512 512" enable-background="new 0 0 512 512" xml:space="preserve">
<g>
	<path fill="#FFFFFF" d="M413.7,133.4c-2.4-9-4-14-4-14c-2.6-9.3-9.2-9.3-19-10.899l-53.1-6.7c-6.601-1.1-6.601-1.1-9.2-6.8
		C319.7,75.4,317,64,307.5,64h-103c-9.5,0-12.1,11.399-20.8,31.1c-2.6,5.601-2.6,5.601-9.2,6.8l-53.2,6.7
		c-9.699,1.601-16.699,2.5-19.3,11.8c0,0-1.2,4.101-3.7,13C95.1,145.3,93.8,144,104.8,144h302.4C418.2,144.1,417,145.3,413.7,133.4z
		"/>
	<path fill="#FFFFFF" d="M379.4,176H132.6c-16.601,0-17.4,2.2-16.4,14.7l18.7,242.6c1.6,12.3,2.8,14.8,17.5,14.8h207.2
		c14.699,0,15.899-2.5,17.5-14.8L395.8,190.7C396.8,178.1,396,176,379.4,176z"/>
</g>
</svg>
