<?xml version="1.0" encoding="utf-8"?>
<!-- Generator: Adobe Illustrator 16.0.0, SVG Export Plug-In . SVG Version: 6.00 Build 0)  -->
<!DOCTYPE svg PUBLIC "-//W3C//DTD SVG 1.1//EN" "http://www.w3.org/Graphics/SVG/1.1/DTD/svg11.dtd">
<svg version="1.1" id="Capa_1" xmlns="http://www.w3.org/2000/svg" xmlns:xlink="http://www.w3.org/1999/xlink" x="0px" y="0px"
	 width="512px" height="768px" viewBox="0 0 512 768" enable-background="new 0 0 512 768" xml:space="preserve">
<rect x="0" y="16" fill="#0B2D46" width="512" height="733"/>
<g>
	<polygon fill="#FFFFFF" points="340.713,610.737 312.223,625.287 306.3,613.61 334.788,599.058 	"/>
	
		<linearGradient id="SVGID_1_" gradientUnits="userSpaceOnUse" x1="-7665.7363" y1="-3785.28" x2="-7651.6479" y2="-3785.28" gradientTransform="matrix(-0.0844 0.4509 1.2154 0.2275 4270.9844 4935.9336)">
		<stop  offset="0" style="stop-color:#FFFFFF"/>
		<stop  offset="1" style="stop-color:#000000"/>
	</linearGradient>
	<polygon opacity="0.4" fill="url(#SVGID_1_)" enable-background="new    " points="312.223,625.287 329.604,616.489 306.3,613.61 	
		"/>
	<rect x="120.675" y="665.647" fill="#FFFFFF" width="45.997" height="19.359"/>
	
		<linearGradient id="SVGID_2_" gradientUnits="userSpaceOnUse" x1="-126.8069" y1="352.2932" x2="-118.7957" y2="354.7394" gradientTransform="matrix(1 0 0 -1 273.3003 1029.2017)">
		<stop  offset="0" style="stop-color:#FFFFFF"/>
		<stop  offset="1" style="stop-color:#000000"/>
	</linearGradient>
	<polygon opacity="0.4" fill="url(#SVGID_2_)" enable-background="new    " points="159.252,685.041 159.023,665.647 
		143.99,665.647 144.219,685.041 	"/>
	
		<linearGradient id="SVGID_3_" gradientUnits="userSpaceOnUse" x1="199.7097" y1="352.2932" x2="207.7204" y2="354.7392" gradientTransform="matrix(-1.0141 0 0 -1 336.6797 1029.2017)">
		<stop  offset="0" style="stop-color:#FFFFFF"/>
		<stop  offset="1" style="stop-color:#000000"/>
	</linearGradient>
	<polygon opacity="0.4" fill="url(#SVGID_3_)" enable-background="new    " points="121.219,685.041 121.451,665.647 
		136.695,665.647 136.463,685.041 	"/>
	<path fill="#FFFFFF" d="M127.976,615.017L97.213,692.19c0.691,0.309,0.979,1.006,0.796,1.752h26.034l31.465-78.926L127.976,615.017
		L127.976,615.017z"/>
	<path fill="#FFFFFF" d="M255.537,635.233c-5.887-6.545-12.939-9.793-21.162-9.793h-42.479v68.502h42.479
		c8.296,0,15.367-3.881,21.223-10.424c5.851-6.551,8.772-14.865,8.772-24.375C264.37,649.942,261.427,641.781,255.537,635.233z
		 M236.695,665.854c-1.831,1.91-4.037,2.771-6.617,2.771h-13.699v-19.359h13.699c2.58,0,4.786,0.91,6.617,2.82
		c1.831,1.907,2.749,4.127,2.749,6.795C239.444,661.669,238.526,663.948,236.695,665.854z"/>
	<path fill="#FFFFFF" d="M304.516,621.375c-20.304,0-36.761,16.519-36.761,36.892c0,20.377,16.457,36.895,36.761,36.895
		c20.301,0,36.758-16.518,36.758-36.895C341.273,637.894,324.816,621.375,304.516,621.375z M303.871,671.257
		c-6.791,0-12.297-5.527-12.297-12.345c0-6.813,5.506-12.342,12.297-12.342c6.79,0,12.297,5.527,12.297,12.342
		C316.168,665.73,310.661,671.257,303.871,671.257z"/>
	
		<linearGradient id="SVGID_4_" gradientUnits="userSpaceOnUse" x1="-141.4773" y1="390.9631" x2="-134.2175" y2="395.5157" gradientTransform="matrix(1 0 0 -1 273.3003 1029.2017)">
		<stop  offset="0" style="stop-color:#FFFFFF"/>
		<stop  offset="1" style="stop-color:#000000"/>
	</linearGradient>
	<polygon opacity="0.4" fill="url(#SVGID_4_)" enable-background="new    " points="151.735,624.317 137.496,660.261 
		114.045,651.136 127.976,615.071 	"/>
	<path fill="#FFFFFF" d="M186.873,693.013c0.084-0.254,0.248-0.463,0.453-0.615l-30.836-77.381h-27.531l31.464,78.926h26.144
		C186.668,693.942,186.769,693.337,186.873,693.013z"/>
	
		<linearGradient id="SVGID_5_" gradientUnits="userSpaceOnUse" x1="248.3005" y1="-6673.9189" x2="253.9661" y2="-6673.9189" gradientTransform="matrix(-1 0 0 1 469.2983 7355.2012)">
		<stop  offset="0" style="stop-color:#FFFFFF"/>
		<stop  offset="1" style="stop-color:#000000"/>
	</linearGradient>
	<rect x="214.152" y="668.625" opacity="0.4" fill="url(#SVGID_5_)" enable-background="new    " width="10.387" height="25.314"/>
	<rect x="191.896" y="625.44" fill="#FFFFFF" width="24.479" height="68.502"/>
	
		<linearGradient id="SVGID_6_" gradientUnits="userSpaceOnUse" x1="35.0725" y1="350.9993" x2="47.469" y2="350.9993" gradientTransform="matrix(1 0 0 -1 273.3003 1029.2017)">
		<stop  offset="0" style="stop-color:#FFFFFF"/>
		<stop  offset="1" style="stop-color:#000000"/>
	</linearGradient>
	<path opacity="0.4" fill="url(#SVGID_6_)" enable-background="new    " d="M320.326,664.519l-4.249-3.084
		c-0.872,4.225-3.995,7.656-7.704,9.092v24.443c4.451-0.427,8.537-1.644,12.396-3.527L320.326,664.519z"/>
	<rect x="316.082" y="657.453" fill="#FFFFFF" width="24.937" height="37.23"/>
	<rect x="346.951" y="622.46" fill="#FFFFFF" width="19.289" height="68.502"/>
	<rect x="398.141" y="622.46" fill="#FFFFFF" width="17.063" height="72.227"/>
	
		<linearGradient id="SVGID_7_" gradientUnits="userSpaceOnUse" x1="81.2224" y1="384.97" x2="86.3719" y2="388.0964" gradientTransform="matrix(1 0 0 -1 273.3003 1029.2017)">
		<stop  offset="0" style="stop-color:#FFFFFF"/>
		<stop  offset="1" style="stop-color:#000000"/>
	</linearGradient>
	<polygon opacity="0.4" fill="url(#SVGID_7_)" enable-background="new    " points="347.24,623.951 347.944,636.83 366.24,661.821 
		366.24,654.728 370.455,651.531 	"/>
	
		<linearGradient id="SVGID_8_" gradientUnits="userSpaceOnUse" x1="479.698" y1="-6638.293" x2="484.7065" y2="-6635.2524" gradientTransform="matrix(-1 0 0 1 888.6011 7313.0723)">
		<stop  offset="0" style="stop-color:#FFFFFF"/>
		<stop  offset="1" style="stop-color:#000000"/>
	</linearGradient>
	<polygon opacity="0.4" fill="url(#SVGID_8_)" enable-background="new    " points="415.205,694.687 415.205,681.815 
		398.141,657.578 398.141,663.476 393.773,668.276 	"/>
	<polygon fill="#FFFFFF" points="415.205,694.687 388.249,694.687 347.24,622.46 375.719,622.46 	"/>
	<path fill="#FFFFFF" d="M341.016,695.449c0,1.254-0.72,1.47-1.959,1.47h-19.908c-1.24,0-3.066-0.216-3.066-1.47v-10.244
		c0-1.252,1.826-2.434,3.066-2.434h19.908c1.239,0,1.959,1.182,1.959,2.434V695.449z"/>
	<path fill="#FFFFFF" d="M216.379,694.196c0,1.252-0.734,1.98-2.041,1.98H195.06c-1.304,0-3.161-0.729-3.161-1.98v-10.244
		c0-1.254,1.857-1.924,3.161-1.924h19.277c1.307,0,2.041,0.67,2.041,1.924V694.196L216.379,694.196z"/>
	<path fill="#FFFFFF" d="M172.787,680.537h-9.863c-1.254,0-2.929,1.234-2.929,2.488v10.252c0,1.252,1.675,2.15,2.929,2.15h22.759
		c1.256,0,1.988-0.703,1.988-1.955l-1.48-3.916L172.787,680.537z"/>
	<path fill="#FFFFFF" d="M111.738,680.537h9.902c1.259,0,2.741,1.234,2.741,2.488v10.252c0,1.252-1.482,2.15-2.741,2.15H98.792
		c-1.26,0-1.997-0.703-1.997-1.955l1.489-3.916L111.738,680.537z"/>
	<path fill="#FFFFFF" d="M366.24,695.425c0,1.271-1.06,1.494-2.43,1.494h-13.834c-1.369,0-3.025-0.226-3.025-1.494V685.03
		c0-1.27,1.656-2.256,3.025-2.256h13.834c1.37,0,2.43,0.986,2.43,2.256V695.425z"/>
	<path fill="#FFFFFF" d="M415.205,632.479c0,1.209-1.021,1.896-2.305,1.896h-11.967c-1.283,0-2.793-0.688-2.793-1.896v-9.9
		c0-1.211,1.51-2.352,2.793-2.352H412.9c1.283,0,2.305,1.141,2.305,2.352V632.479z"/>
</g>
<linearGradient id="SVGID_9_" gradientUnits="userSpaceOnUse" x1="54.4983" y1="395.3342" x2="67.6995" y2="395.3342" gradientTransform="matrix(1 0 0 -1 273.3003 1029.2017)">
	<stop  offset="0" style="stop-color:#FFFFFF"/>
	<stop  offset="1" style="stop-color:#000000"/>
</linearGradient>
<path opacity="0.3" fill="url(#SVGID_9_)" enable-background="new    " d="M327.799,630.734c4.229,2.065,9.996,3.595,13.201,6.269
	C336.66,633.311,332.225,631.365,327.799,630.734z"/>
<g>
	<g>
		<g>
			<circle fill="#0B2D46" cx="223.468" cy="322.44" r="23.148"/>
			<circle fill="#0B2D46" cx="288.944" cy="317.05" r="23.148"/>
			<g>
				<g>
					<path fill="#FFFFFF" d="M170.567,344.252c0.395,3.491-2.105,6.645-5.594,7.04l-7.901,0.912
						c-3.489,0.394-6.646-2.104-7.041-5.596l-2.173-18.953c-0.403-3.492,2.104-6.649,5.594-7.045l7.899-0.912
						c3.485-0.396,6.641,2.11,7.041,5.599L170.567,344.252z"/>
					
						<linearGradient id="SVGID_10_" gradientUnits="userSpaceOnUse" x1="-100.3523" y1="822.1204" x2="-90.8694" y2="819.4456" gradientTransform="matrix(0.9951 0.0994 0.0994 -0.9951 176.8132 1163.8059)">
						<stop  offset="0" style="stop-color:#FFFFFF"/>
						<stop  offset="1" style="stop-color:#000000"/>
					</linearGradient>
					<path opacity="0.3" fill="url(#SVGID_10_)" enable-background="new    " d="M170.567,344.252l-2.175-18.955
						c-0.4-3.489-3.556-5.995-7.041-5.599l-7.899,0.912c-0.222,0.027-0.451,0.063-0.667,0.111c2.1,9.47,2.529,20.231-1.969,28.293
						c1.217,2.152,3.645,3.488,6.258,3.189l7.901-0.907C168.464,350.897,170.968,347.742,170.567,344.252z"/>
				</g>
				<g>
					<circle fill="#FFFFFF" cx="256.357" cy="279.769" r="12.402"/>
					<path fill="#FFFFFF" d="M261.083,242.877c0.648,5.101-2.969,9.77-8.07,10.41c-5.104,0.648-9.768-2.971-10.409-8.074
						c-0.654-5.108,2.967-9.767,8.07-10.411C255.777,234.156,260.436,237.771,261.083,242.877z"/>
					
						<rect x="252.635" y="249.247" transform="matrix(-0.9921 0.1255 -0.1255 -0.9921 540.7582 495.2936)" fill="#FFFFFF" width="4.275" height="30.877"/>
				</g>
				
					<linearGradient id="SVGID_11_" gradientUnits="userSpaceOnUse" x1="-7.8015" y1="904.2004" x2="-2.9385" y2="905.4969" gradientTransform="matrix(0.9951 0.0994 0.0994 -0.9951 176.8132 1163.8059)">
					<stop  offset="0" style="stop-color:#FFFFFF"/>
					<stop  offset="1" style="stop-color:#000000"/>
				</linearGradient>
				<path opacity="0.2" fill="url(#SVGID_11_)" enable-background="new    " d="M268.66,278.21
					c-0.747-5.944-5.59-10.369-11.336-10.811l-1.869-14.777c3.761-1.581,6.166-5.507,5.625-9.746
					c-0.419-3.357-2.589-6.062-5.475-7.345c-0.968,12.785-5.057,26.545,1.917,38.072c2.417,5.42,5.221,12.557,3.717,17.549
					C266.199,289.037,269.374,283.829,268.66,278.21z"/>
				<path fill="#FFFFFF" d="M367.302,321.868c0.398,3.491-2.107,6.646-5.597,7.043l-7.899,0.91
					c-3.485,0.396-6.642-2.107-7.038-5.598l-2.177-18.956c-0.395-3.487,2.106-6.643,5.597-7.04l7.897-0.912
					c3.487-0.398,6.646,2.107,7.042,5.596L367.302,321.868z"/>
				
					<linearGradient id="SVGID_12_" gradientUnits="userSpaceOnUse" x1="104.3972" y1="861.3381" x2="84.6499" y2="865.8718" gradientTransform="matrix(0.9951 0.0994 0.0994 -0.9951 176.8132 1163.8059)">
					<stop  offset="0" style="stop-color:#FFFFFF"/>
					<stop  offset="1" style="stop-color:#000000"/>
				</linearGradient>
				<path opacity="0.3" fill="url(#SVGID_12_)" enable-background="new    " d="M365.127,302.911
					c-0.396-3.488-3.555-5.994-7.042-5.596l-7.899,0.914c-3.491,0.395-5.991,3.55-5.599,7.039l2.177,18.955
					c0.398,3.49,3.555,5.995,7.04,5.598l6.307-0.727c2.82-5.43,3.398-11.968,5.985-17.724L365.127,302.911z"/>
				<g>
					<path fill="#FFFFFF" d="M313.077,435.861c-10.446-1.044-20.285,2.025-27.661,7.785c-7.077,4.814-16.593,7.229-26.092,6.281
						c-10.189-1.015-17.999-5.66-25.596-12.664l-0.016,0.167c-7.442-8.559-15.355-14.342-26.963-15.502
						c-20.455-2.044-38.312,11.675-40.197,30.599c-1.89,18.929,13.381,35.546,33.84,37.592c10.447,1.041,20.175,0.193,27.921-8.159
						h-0.028c7.091-4.177,16.094-7.063,25.705-6.105c9.738,0.972,18.187,5.56,24.201,11.929c5.944,8.866,16.06,15.315,28.064,16.515
						c20.45,2.046,38.552-11.596,40.437-30.524C348.585,454.857,333.532,437.902,313.077,435.861z"/>
					
						<linearGradient id="SVGID_13_" gradientUnits="userSpaceOnUse" x1="9.3381" y1="702.2454" x2="15.0041" y2="747.5696" gradientTransform="matrix(0.9951 0.0994 0.0994 -0.9951 176.8132 1163.8059)">
						<stop  offset="0" style="stop-color:#FFFFFF"/>
						<stop  offset="1" style="stop-color:#000000"/>
					</linearGradient>
					<path opacity="0.3" fill="url(#SVGID_13_)" enable-background="new    " d="M280.757,480.348
						c20.941,5.479,69.1,26.053,65.886-13.316c-1.814-16.046-15.602-29.378-33.56-31.171c-10.447-1.044-20.285,2.025-27.665,7.785
						c-7.075,4.814-16.591,7.229-26.088,6.281c-10.19-1.015-17.999-5.66-25.595-12.664l-0.018,0.167
						c-7.442-8.559-15.355-14.342-26.962-15.502c-2.717-0.272-5.147-0.223-7.75,0.041c-23.834,2.427-40.501,27.063-26.688,36.743
						C193.908,473.851,262.998,476.551,280.757,480.348z"/>
					<path fill="#FFFFFF" d="M266.916,368.101c1.97,0.196,3.549,0.376,5.188,0.575l1.544-15.441l-15.272,3.378l-1.07,10.72
						C260.604,367.532,263.428,367.751,266.916,368.101z"/>
					
						<linearGradient id="SVGID_14_" gradientUnits="userSpaceOnUse" x1="0.9451" y1="808.3127" x2="15.8054" y2="808.3127" gradientTransform="matrix(0.9951 0.0994 0.0994 -0.9951 176.8132 1163.8059)">
						<stop  offset="0" style="stop-color:#FFFFFF"/>
						<stop  offset="1" style="stop-color:#000000"/>
					</linearGradient>
					<path opacity="0.3" fill="url(#SVGID_14_)" enable-background="new    " d="M266.916,368.101
						c1.97,0.196,3.549,0.376,5.188,0.575l1.544-15.441l-15.272,3.378l-1.07,10.72C260.604,367.532,263.428,367.751,266.916,368.101
						z"/>
					<g>
						<path fill="#FFFFFF" d="M390.67,346.939c-2.665-1.937-4.66-4.09-10.459-4.514c-5.807-0.433-13.419-0.392-18.904,4.89
							c-2.533,2.435-5.11,4.84-7.356,7.552c-8.353,10.059-17.613,19.158-28.27,26.771c-1.271,0.915-2.806,1.611-3.724,2.792
							c-3.439,4.409-6.552,9.069-7.593,14.717c-0.888,4.785,1.376,8.141,6.106,9.333c2.447,0.617,4.956,0.822,7.449,1.104
							c7.816,0.905,15.56,0.462,23.213-1.344c14.802-3.482,26.878-11.366,36.756-22.813c4.993-5.788,8.6-12.224,9.604-19.921
							C398.483,357.95,396.401,351.664,390.67,346.939z"/>
					</g>
					<g opacity="0.3">
						
							<linearGradient id="SVGID_15_" gradientUnits="userSpaceOnUse" x1="90.1057" y1="790.3215" x2="56.4105" y2="784.3051" gradientTransform="matrix(0.9951 0.0994 0.0994 -0.9951 176.8132 1163.8059)">
							<stop  offset="0" style="stop-color:#FFFFFF"/>
							<stop  offset="1" style="stop-color:#000000"/>
						</linearGradient>
						<path fill="url(#SVGID_15_)" d="M346.798,362.969c-6.433,6.868-13.4,13.164-21.115,18.668
							c-1.271,0.916-2.806,1.612-3.724,2.791c-3.436,4.411-6.552,9.069-7.593,14.719c-0.888,4.785,1.376,8.141,6.108,9.333
							c2.445,0.615,4.954,0.822,7.447,1.104c7.816,0.903,15.566,0.462,23.213-1.346c6.761-1.588,12.927-4.142,18.603-7.487
							C365.466,386.041,358.266,372.391,346.798,362.969z"/>
					</g>
					<g>
						<path fill="#FFFFFF" d="M137.061,432.373c2.377,1.668,4.164,3.532,9.284,3.822c5.118,0.289,11.822,0.128,16.572-4.6
							c2.198-2.192,4.429-4.345,6.371-6.769c7.197-8.996,15.211-17.148,24.484-24.028c1.097-0.818,2.45-1.461,3.241-2.518
							c2.961-3.938,5.629-8.085,6.459-13.078c0.703-4.227-1.338-7.16-5.524-8.132c-2.166-0.501-4.383-0.649-6.582-0.853
							c-6.896-0.674-13.718-0.163-20.428,1.536c-12.983,3.299-23.505,10.436-32.021,20.667c-4.31,5.176-7.386,10.906-8.15,17.705
							C130.009,422.805,131.933,428.311,137.061,432.373z"/>
					</g>
					<path fill="#FFFFFF" d="M325.924,394.731c-1.289,12.897-34.915,63.082-69.857,59.595
						c-34.946-3.494-57.983-59.336-56.694-72.231c1.287-12.892,30.373-17.634,65.324-14.145
						C299.636,371.438,327.208,381.842,325.924,394.731z"/>
					
						<linearGradient id="SVGID_16_" gradientUnits="userSpaceOnUse" x1="5.3196" y1="787.8674" x2="3.2128" y2="809.2288" gradientTransform="matrix(0.9951 0.0994 0.0994 -0.9951 176.8132 1163.8059)">
						<stop  offset="0" style="stop-color:#FFFFFF"/>
						<stop  offset="1" style="stop-color:#000000"/>
					</linearGradient>
					<path opacity="0.3" fill="url(#SVGID_16_)" enable-background="new    " d="M199.37,382.094
						c-0.325,3.243,0.891,9.197,3.442,16.358c39.255,3.846,84.814,7.098,118.701-13.121c-9.028-8.395-30.89-14.792-56.822-17.382
						C229.743,364.46,200.659,369.202,199.37,382.094z"/>
					<path fill="#FFFFFF" d="M359.288,318.197l-1.502-15.333c-1.664-16.933-15.872-29.401-31.723-27.842l-144.576,13.789
						c-15.861,1.548-27.358,16.544-25.707,33.479l1.51,15.329c1.664,16.933,15.867,29.396,31.721,27.845l144.575-13.788
						C349.448,350.124,360.952,335.131,359.288,318.197z M240.139,332.894c-4.526,6.665-13.811,9.204-21.112,5.768
						c-7.991-3.753-11.833-12.307-9.326-20.738c2.233-7.528,10.252-12.893,17.868-11.878c-3.789,3.284-4.827,6.701-3.176,10.321
						c1.414,3.092,4.791,4.974,8.128,4.527c4.077-0.541,6.36-3.129,7.12-8.076C244.162,317.041,244.4,326.622,240.139,332.894z
						 M303.199,326.43c-4.414,6.495-13.473,8.977-20.59,5.623c-7.794-3.664-11.541-12.005-9.094-20.225
						c2.186-7.337,9.993-12.575,17.426-11.58c-3.698,3.199-4.707,6.535-3.092,10.058c1.376,3.018,4.672,4.854,7.926,4.421
						c3.977-0.529,6.207-3.055,6.945-7.873C307.125,310.972,307.354,320.312,303.199,326.43z"/>
					<path fill="#21527C" d="M257.439,395.82c-0.489,4.911-0.967,9.654-1.461,14.654c4.941,0.487,9.734,0.971,14.486,1.441
						c0.508,7.125-6.635,13.688-14.728,13.798c-8.185,0.107-15.348-7.402-14.833-15.563
						C241.459,401.223,248.863,394.669,257.439,395.82z"/>
					<path fill="#0B2D46" d="M260.572,391.815c8.92,0.343,15.836,8.849,14.554,17.513c-0.667,0-1.359,0.046-2.042-0.02
						c-4.563-0.438-9.133-0.903-14.119-1.399c0.289-2.895,0.557-5.552,0.821-8.202C260.043,397.129,260.3,394.561,260.572,391.815z"
						/>
				</g>
				<g>
					<path fill="#21527C" d="M248.405,319.63c-2.448,21.68-20.615,36.991-42.398,35.717c-21.771-1.265-36.932-21.5-35.714-42.393
						c1.27-21.773,21.499-36.938,42.396-35.721C234.456,278.513,249.622,298.735,248.405,319.63
						c-0.298,4.989,7.44,5.661,7.723,0.659c1.522-26.042-16.858-47.86-42.779-50.782c-25.919-2.916-47.981,17.918-50.783,42.79
						c-2.922,25.915,17.916,47.978,42.786,50.778c25.915,2.915,47.976-17.915,50.776-42.786
						C256.688,315.321,248.962,314.669,248.405,319.63z"/>
					<path fill="#21527C" d="M346.997,309.198c-2.442,21.68-20.611,36.991-42.394,35.714c-21.781-1.267-36.932-21.496-35.714-42.39
						c1.267-21.777,21.494-36.94,42.386-35.716C333.056,268.078,348.217,288.302,346.997,309.198
						c-0.292,4.987,7.438,5.66,7.729,0.658c1.521-26.039-16.863-47.861-42.787-50.776c-25.92-2.919-47.979,17.911-50.781,42.782
						c-2.915,25.918,17.916,47.981,42.786,50.783c25.916,2.919,47.979-17.918,50.782-42.789
						C355.286,304.883,347.552,304.235,346.997,309.198z"/>
					<path fill="#21527C" d="M254.315,314.945c2.88-0.387,5.757-0.76,8.641-1.138c2.099-0.273,3.476-2.526,3.105-4.522
						c-0.398-2.159-2.427-3.379-4.521-3.104c-2.887,0.377-5.763,0.754-8.648,1.131c-2.096,0.276-3.48,2.529-3.102,4.525
						C250.185,313.997,252.217,315.218,254.315,314.945L254.315,314.945z"/>
				</g>
			</g>
		</g>
	</g>
	<g>
		
			<rect x="91.35" y="386.977" transform="matrix(-0.7906 0.6123 -0.6123 -0.7906 474.8421 688.4689)" fill="#FFFFFF" width="56.721" height="76.886"/>
		<g>
			
				<rect x="97.745" y="426.47" transform="matrix(-0.1279 0.9918 -0.9918 -0.1279 538.9993 380.8322)" fill="#DA8C0C" width="8.632" height="1.85"/>
			
				<rect x="101.163" y="422.445" transform="matrix(-0.128 0.9918 -0.9918 -0.128 538.7121 380.4843)" fill="#DA8C0C" width="1.85" height="9.249"/>
		</g>
		<g>
			<path fill="#005550" d="M121.589,465.061l-8.51-10.987l12.348-9.564l8.51,10.989L121.589,465.061z M114.98,454.312l6.851,8.847
				l10.204-7.901l-6.852-8.848L114.98,454.312z"/>
			
				<rect x="129.588" y="437.813" transform="matrix(-0.7917 0.6109 -0.6109 -0.7917 523.6084 701.4125)" fill="#2EA1A1" width="25.278" height="4.317"/>
		</g>
		<g>
			<path fill="#005550" d="M110.916,451.231l-8.51-10.99l12.348-9.563l8.511,10.989L110.916,451.231z M104.308,440.482l6.851,8.847
				l10.205-7.902l-6.851-8.847L104.308,440.482z"/>
			
				<rect x="119.031" y="424.179" transform="matrix(-0.7918 0.6107 -0.6107 -0.7918 496.3119 683.5067)" fill="#2EA1A1" width="25.278" height="4.314"/>
		</g>
		<g>
			<path fill="#005550" d="M100.246,437.401l-8.51-10.989l12.348-9.564l8.512,10.989L100.246,437.401z M93.635,426.65l6.853,8.848
				l10.205-7.901l-6.852-8.849L93.635,426.65z"/>
			
				<rect x="108.102" y="410.025" transform="matrix(-0.7918 0.6108 -0.6108 -0.7918 468.1012 664.7977)" fill="#2EA1A1" width="25.279" height="4.314"/>
		</g>
		<g>
			<path fill="#005550" d="M89.574,423.57l-8.512-10.99l12.346-9.563l8.513,10.99L89.574,423.57z M82.964,412.82l6.851,8.847
				l10.206-7.903l-6.852-8.847L82.964,412.82z"/>
			
				<rect x="97.571" y="396.328" transform="matrix(-0.7917 0.6109 -0.6109 -0.7917 440.8977 646.6458)" fill="#2EA1A1" width="25.278" height="4.316"/>
		</g>
	</g>
	<g>
		<path fill="#36C3CE" d="M404.328,343.794v72.372h61.482c4.217,0,7.894-4.117,7.894-8.336v-64.036H404.328L404.328,343.794z"/>
		<path fill="#0DBCC9" d="M330.324,343.794v64.036c0,4.219,3.418,8.336,7.634,8.336h66.37v-72.371L330.324,343.794L330.324,343.794z
			"/>
		<path fill="#4591A8" d="M465.81,331.101H337.958c-4.216,0-7.634,3.698-7.634,7.915v4.78h143.381v-4.78
			C473.705,334.8,470.027,331.101,465.81,331.101z"/>
		<g>
			<rect x="337.166" y="348.714" fill="#0B2D46" width="36.797" height="36.798"/>
			<g>
				<circle fill="#0B2D46" cx="349.825" cy="367.861" r="3.308"/>
				<circle fill="#0B2D46" cx="359.182" cy="367.091" r="3.308"/>
				<g>
					<path fill="#FFFFFF" d="M342.571,370.16c0.01,0.502-0.39,0.917-0.891,0.925l-1.138,0.023c-0.5,0.01-0.916-0.389-0.925-0.891
						l-0.053-2.726c-0.012-0.501,0.39-0.917,0.891-0.927l1.137-0.022c0.499-0.011,0.914,0.39,0.924,0.891L342.571,370.16z"/>
					
						<linearGradient id="SVGID_17_" gradientUnits="userSpaceOnUse" x1="99.0286" y1="791.7786" x2="100.3828" y2="791.3965" gradientTransform="matrix(0.9813 0.1928 0.1928 -0.9813 91.1637 1126.6692)">
						<stop  offset="0" style="stop-color:#FFFFFF"/>
						<stop  offset="1" style="stop-color:#000000"/>
					</linearGradient>
					<path opacity="0.3" fill="url(#SVGID_17_)" enable-background="new    " d="M342.571,370.16l-0.055-2.726
						c-0.01-0.5-0.425-0.901-0.924-0.891l-1.137,0.022c-0.032,0.001-0.066,0.003-0.097,0.007c0.172,1.375,0.086,2.912-0.662,3.998
						c0.145,0.323,0.473,0.545,0.848,0.538l1.136-0.022C342.182,371.076,342.582,370.662,342.571,370.16z"/>
				</g>
				<g>
					<circle fill="#FFFFFF" cx="355.646" cy="362.142" r="1.772"/>
					<path fill="#FFFFFF" d="M356.816,356.957c0.022,0.735-0.555,1.351-1.29,1.374c-0.732,0.023-1.35-0.556-1.371-1.29
						c-0.024-0.736,0.553-1.35,1.288-1.373C356.178,355.645,356.792,356.222,356.816,356.957z"/>
					
						<rect x="355.318" y="357.755" transform="matrix(-0.9995 0.0311 -0.0311 -0.9995 722.2834 708.6745)" fill="#FFFFFF" width="0.612" height="4.412"/>
				</g>
				
					<linearGradient id="SVGID_18_" gradientUnits="userSpaceOnUse" x1="112.2585" y1="803.512" x2="112.9536" y2="803.6973" gradientTransform="matrix(0.9813 0.1928 0.1928 -0.9813 91.1637 1126.6692)">
					<stop  offset="0" style="stop-color:#FFFFFF"/>
					<stop  offset="1" style="stop-color:#000000"/>
				</linearGradient>
				<path opacity="0.2" fill="url(#SVGID_18_)" enable-background="new    " d="M357.418,362.085
					c-0.025-0.856-0.656-1.55-1.468-1.689l-0.066-2.128c0.556-0.174,0.952-0.701,0.932-1.311c-0.015-0.484-0.285-0.896-0.68-1.119
					c-0.31,1.807-1.077,3.708-0.24,5.441c0.271,0.803,0.574,1.857,0.293,2.546C356.921,363.594,357.443,362.895,357.418,362.085z"/>
				<path fill="#FFFFFF" d="M370.862,369.627c0.01,0.502-0.391,0.917-0.892,0.927l-1.136,0.023c-0.5,0.009-0.915-0.39-0.927-0.892
					l-0.053-2.726c-0.009-0.501,0.39-0.917,0.892-0.926l1.135-0.022c0.501-0.011,0.918,0.39,0.927,0.89L370.862,369.627z"/>
				
					<linearGradient id="SVGID_19_" gradientUnits="userSpaceOnUse" x1="128.2898" y1="797.3811" x2="125.4672" y2="798.0291" gradientTransform="matrix(0.9813 0.1928 0.1928 -0.9813 91.1637 1126.6692)">
					<stop  offset="0" style="stop-color:#FFFFFF"/>
					<stop  offset="1" style="stop-color:#000000"/>
				</linearGradient>
				<path opacity="0.3" fill="url(#SVGID_19_)" enable-background="new    " d="M370.808,366.901c-0.009-0.5-0.426-0.901-0.927-0.89
					l-1.135,0.022c-0.502,0.01-0.9,0.425-0.892,0.925l0.053,2.727c0.012,0.501,0.426,0.9,0.927,0.892l0.909-0.019
					c0.473-0.735,0.643-1.657,1.089-2.441L370.808,366.901z"/>
				<path fill="#FFFFFF" d="M356.005,374.487c0.282-0.026,0.509-0.042,0.744-0.058l-0.191-2.21l-2.056,0.881l0.134,1.533
					C355.103,374.573,355.506,374.53,356.005,374.487z"/>
				
					<linearGradient id="SVGID_20_" gradientUnits="userSpaceOnUse" x1="84.1072" y1="837.4534" x2="86.2317" y2="837.4534" gradientTransform="matrix(0.9963 -0.087 -0.087 -0.9963 343.609 1215.1892)">
					<stop  offset="0" style="stop-color:#FFFFFF"/>
					<stop  offset="1" style="stop-color:#000000"/>
				</linearGradient>
				<path opacity="0.3" fill="url(#SVGID_20_)" enable-background="new    " d="M356.005,374.487
					c0.282-0.026,0.509-0.042,0.744-0.058l-0.191-2.21l-2.056,0.881l0.134,1.533C355.103,374.573,355.506,374.53,356.005,374.487z"
					/>
				<g>
					<g>
						<path fill="#FFFFFF" d="M372.487,377.819c-1.35-1.109-2.907-1.844-4.709-2.129c-1.107-0.176-2.216-0.164-3.323,0.036
							c-0.353,0.063-0.708,0.115-1.052,0.222c-0.661,0.21-0.955,0.693-0.785,1.343c0.199,0.77,0.687,1.381,1.218,1.957
							c0.143,0.151,0.366,0.233,0.556,0.349c1.591,0.946,2.995,2.111,4.278,3.417c0.267,0.272,0.56,0.518,0.856,0.758h2.961V377.819
							z"/>
					</g>
					<g opacity="0.3">
						
							<linearGradient id="SVGID_21_" gradientUnits="userSpaceOnUse" x1="97.5403" y1="920.6409" x2="92.7255" y2="919.7811" gradientTransform="matrix(0.9865 -0.1619 0.163 0.9525 120.8096 -482.3514)">
							<stop  offset="0" style="stop-color:#FFFFFF"/>
							<stop  offset="1" style="stop-color:#000000"/>
						</linearGradient>
						<path fill="url(#SVGID_21_)" d="M367.575,381.965c-0.98-0.884-2.032-1.684-3.182-2.369c-0.19-0.115-0.413-0.197-0.557-0.349
							c-0.531-0.576-1.018-1.187-1.218-1.957c-0.169-0.651,0.123-1.133,0.786-1.343c0.343-0.107,0.699-0.159,1.052-0.222
							c1.106-0.2,2.216-0.211,3.322-0.036c0.979,0.155,1.882,0.447,2.722,0.854C370.026,378.611,369.125,380.559,367.575,381.965z"
							/>
					</g>
				</g>
				<g>
					<path fill="#FFFFFF" d="M341.954,383.772c0.104-0.124,0.2-0.25,0.293-0.383c0.94-1.351,2.007-2.59,3.264-3.658
						c0.147-0.127,0.335-0.231,0.438-0.39c0.386-0.59,0.726-1.207,0.796-1.926c0.062-0.61-0.258-1.008-0.865-1.107
						c-0.314-0.052-0.63-0.052-0.947-0.06c-0.988-0.031-1.957,0.107-2.897,0.413c-1.475,0.481-2.695,1.306-3.7,2.421v4.689
						L341.954,383.772L341.954,383.772z"/>
				</g>
				<path fill="#FFFFFF" d="M369.771,368.998l-0.008-2.202c-0.008-2.432-1.861-4.396-4.138-4.389l-20.754,0.013
					c-2.276,0.006-4.114,1.985-4.107,4.417l0.009,2.2c0.009,2.432,1.86,4.396,4.138,4.39l20.753-0.012
					C367.94,373.406,369.78,371.428,369.771,368.998z M352.623,369.483c-0.734,0.887-2.089,1.124-3.081,0.536
					c-1.087-0.642-1.519-1.91-1.049-3.077c0.421-1.04,1.633-1.695,2.703-1.45c-0.582,0.417-0.777,0.889-0.591,1.426
					c0.159,0.458,0.616,0.773,1.096,0.754c0.587-0.022,0.945-0.361,1.12-1.054C353.409,367.28,353.313,368.647,352.623,369.483z
					 M361.68,369.413c-0.714,0.865-2.038,1.094-3.005,0.522c-1.059-0.628-1.481-1.864-1.021-3.001
					c0.409-1.015,1.592-1.655,2.635-1.413c-0.569,0.406-0.758,0.867-0.576,1.39c0.155,0.447,0.602,0.753,1.068,0.736
					c0.574-0.021,0.925-0.351,1.095-1.028C362.448,367.267,362.354,368.597,361.68,369.413z"/>
				<g>
					<path fill="#FFFFFF" d="M360.727,383.772c2.127-2.248,3.534-5.11,3.567-6.162c0.062-1.85-3.969-3.072-8.984-3.237
						c-5.016-0.164-9.118,0.788-9.18,2.637c-0.036,1.107,1.313,4.322,3.478,6.762H360.727z"/>
					
						<linearGradient id="SVGID_22_" gradientUnits="userSpaceOnUse" x1="96.1301" y1="813.0872" x2="95.8289" y2="816.14" gradientTransform="matrix(0.9995 0.0331 0.0331 -0.9995 231.824 1185.6865)">
						<stop  offset="0" style="stop-color:#FFFFFF"/>
						<stop  offset="1" style="stop-color:#000000"/>
					</linearGradient>
					<path opacity="0.3" fill="url(#SVGID_22_)" enable-background="new    " d="M346.131,377.01
						c-0.016,0.466,0.214,1.303,0.646,2.301c5.636,0.175,12.16,0.206,16.802-2.999c-1.368-1.112-4.546-1.816-8.27-1.939
						C350.295,374.209,346.192,375.16,346.131,377.01z"/>
					<path fill="#21527C" d="M354.541,378.416c-0.023,0.705-0.046,1.385-0.069,2.104c0.71,0.022,1.398,0.046,2.08,0.066
						c0.14,1.012-0.816,2.016-1.969,2.108c-1.168,0.093-2.26-0.911-2.263-2.08C352.315,379.338,353.307,378.334,354.541,378.416z"/>
					<path fill="#0B2D46" d="M354.95,377.816c1.274-0.036,2.341,1.111,2.24,2.358c-0.096,0.007-0.192,0.02-0.29,0.018
						c-0.656-0.021-1.312-0.043-2.025-0.066c0.014-0.415,0.025-0.796,0.038-1.177C354.926,378.578,354.937,378.21,354.95,377.816z"
						/>
				</g>
				<g>
					<path fill="#21527C" d="M353.977,367.705c-0.641,3.051-3.432,4.986-6.513,4.51c-3.082-0.474-4.965-3.556-4.511-6.513
						c0.475-3.08,3.556-4.963,6.514-4.51C352.547,361.669,354.432,364.75,353.977,367.705c-0.109,0.706,0.981,0.907,1.088,0.198
						c0.569-3.685-1.753-7.036-5.4-7.801c-3.648-0.765-7.068,1.901-7.802,5.402c-0.765,3.646,1.902,7.068,5.402,7.8
						c3.646,0.764,7.066-1.902,7.8-5.402C355.213,367.205,354.123,367.008,353.977,367.705z"/>
					<path fill="#21527C" d="M368.145,367.552c-0.641,3.05-3.431,4.984-6.515,4.51c-3.081-0.474-4.962-3.557-4.509-6.512
						c0.476-3.082,3.556-4.966,6.514-4.51C366.716,361.514,368.598,364.594,368.145,367.552c-0.108,0.705,0.981,0.906,1.09,0.197
						c0.567-3.682-1.754-7.037-5.403-7.801c-3.647-0.764-7.066,1.901-7.801,5.402c-0.765,3.648,1.901,7.067,5.401,7.801
						c3.648,0.765,7.068-1.901,7.803-5.403C369.381,367.05,368.29,366.852,368.145,367.552z"/>
					<path fill="#21527C" d="M354.882,367.12c0.414-0.019,0.829-0.031,1.244-0.046c0.302-0.011,0.528-0.313,0.503-0.603
						c-0.028-0.312-0.3-0.512-0.602-0.5c-0.417,0.014-0.831,0.028-1.246,0.044c-0.303,0.011-0.53,0.313-0.503,0.602
						C354.306,366.929,354.58,367.13,354.882,367.12L354.882,367.12z"/>
				</g>
			</g>
		</g>
		<text transform="matrix(1 0 0 1 335.7175 341.2585)" font-family="'Roboto-Regular'" font-size="4.3237">REPUBLICA DEL PERÚ</text>
		<text transform="matrix(1 0 0 1 377.4978 352.6179)" font-family="'Roboto-Regular'" font-size="3.7995">Primer Apellido</text>
		<text transform="matrix(1 0 0 1 377.4978 357.1775)" font-family="'Roboto-Regular'" font-size="3.7995">SISTEMA</text>
		<text transform="matrix(1 0 0 1 377.4978 364.4724)" font-family="'Roboto-Regular'" font-size="3.7995">Segundo Apellido</text>
		<text transform="matrix(1 0 0 1 377.4978 369.031)" font-family="'Roboto-Regular'" font-size="3.7995">ONPE</text>
		<text transform="matrix(1 0 0 1 377.4978 376.49)" font-family="'Roboto-Regular'" font-size="3.7995">Primer Nombre</text>
		<text transform="matrix(1 0 0 1 377.4978 381.0486)" font-family="'Roboto-Regular'" font-size="3.7995">ADAN</text>
		<text transform="matrix(1 0 0 1 389.071 338.5232)" font-family="'Roboto-Regular'" font-size="2.7603">REGISTRO NACIONAL DE IDENTIFICACIÓN Y ESTADO CIVIL</text>
		<text transform="matrix(1 0 0 1 389.071 341.8347)" font-family="'Roboto-Regular'" font-size="2.7603">DOCUMENTO NACONAL DE IDENTIDAD DNI </text>
		<text transform="matrix(1 0 0 1 443.9558 341.8347)" fill="#FE4E1C" font-family="'Roboto-Regular'" font-size="2.7603">77710714</text>
		<rect x="347.222" y="400.311" fill="none" width="117.809" height="13.193"/>
		<rect x="337.166" y="392.746" fill="none" width="128.664" height="15.127"/>
		<text transform="matrix(1 0 0 1 337.1658 395.6418)" font-family="'Roboto-Regular'" font-size="3.7995">I</text>
		<text transform="matrix(1 0 0 1 338.24 395.6418)" font-family="'Roboto-Regular'" font-size="3.7995" letter-spacing="2"> </text>
		<text transform="matrix(1 0 0 1 341.7527 395.6418)" font-family="'Roboto-Regular'" font-size="3.7995">&lt;</text>
		<text transform="matrix(1 0 0 1 343.6824 395.6418)" font-family="'Roboto-Regular'" font-size="3.7995" letter-spacing="2"> </text>
		<text transform="matrix(1 0 0 1 347.1941 395.6418)" font-family="'Roboto-Regular'" font-size="3.7995">P</text>
		<text transform="matrix(1 0 0 1 349.6287 395.6418)" font-family="'Roboto-Regular'" font-size="3.7995" letter-spacing="2"> </text>
		<text transform="matrix(1 0 0 1 353.1423 395.6418)" font-family="'Roboto-Regular'" font-size="3.7995">E</text>
		<text transform="matrix(1 0 0 1 355.363 395.6418)" font-family="'Roboto-Regular'" font-size="3.7995" letter-spacing="2"> </text>
		<text transform="matrix(1 0 0 1 358.8767 395.6418)" font-family="'Roboto-Regular'" font-size="3.7995">R</text>
		<text transform="matrix(1 0 0 1 361.3943 395.6418)" font-family="'Roboto-Regular'" font-size="3.7995" letter-spacing="2"> </text>
		<text transform="matrix(1 0 0 1 364.906 395.6418)" font-family="'Roboto-Regular'" font-size="3.7995">7</text>
		<text transform="matrix(1 0 0 1 367.0457 395.6418)" font-family="'Roboto-Regular'" font-size="3.7995" letter-spacing="2"> </text>
		<text transform="matrix(1 0 0 1 370.5583 395.6418)" font-family="'Roboto-Regular'" font-size="3.7995">7</text>
		<text transform="matrix(1 0 0 1 372.698 395.6418)" font-family="'Roboto-Regular'" font-size="3.7995" letter-spacing="2"> </text>
		<text transform="matrix(1 0 0 1 376.2117 395.6418)" font-family="'Roboto-Regular'" font-size="3.7995">7</text>
		<text transform="matrix(1 0 0 1 378.3503 395.6418)" font-family="'Roboto-Regular'" font-size="3.7995" letter-spacing="2"> </text>
		<text transform="matrix(1 0 0 1 381.864 395.6418)" font-family="'Roboto-Regular'" font-size="3.7995">&lt;</text>
		<text transform="matrix(1 0 0 1 383.7917 395.6418)" font-family="'Roboto-Regular'" font-size="3.7995" letter-spacing="2"> </text>
		<text transform="matrix(1 0 0 1 387.3054 395.6418)" font-family="'Roboto-Regular'" font-size="3.7995">1</text>
		<text transform="matrix(1 0 0 1 389.446 395.6418)" font-family="'Roboto-Regular'" font-size="3.7995" letter-spacing="2"> </text>
		<text transform="matrix(1 0 0 1 392.9578 395.6418)" font-family="'Roboto-Regular'" font-size="3.7995">0</text>
		<text transform="matrix(1 0 0 1 395.0994 395.6418)" font-family="'Roboto-Regular'" font-size="3.7995" letter-spacing="2"> </text>
		<text transform="matrix(1 0 0 1 398.6111 395.6418)" font-family="'Roboto-Regular'" font-size="3.7995">&lt;</text>
		<text transform="matrix(1 0 0 1 400.5408 395.6418)" font-family="'Roboto-Regular'" font-size="3.7995" letter-spacing="2"> </text>
		<text transform="matrix(1 0 0 1 404.0535 395.6418)" font-family="'Roboto-Regular'" font-size="3.7995">&lt;</text>
		<text transform="matrix(1 0 0 1 405.9832 395.6418)" font-family="'Roboto-Regular'" font-size="3.7995" letter-spacing="2"> </text>
		<text transform="matrix(1 0 0 1 409.4968 395.6418)" font-family="'Roboto-Regular'" font-size="3.7995">&lt;</text>
		<text transform="matrix(1 0 0 1 411.4255 395.6418)" font-family="'Roboto-Regular'" font-size="3.7995" letter-spacing="2"> </text>
		<text transform="matrix(1 0 0 1 414.9382 395.6418)" font-family="'Roboto-Regular'" font-size="3.7995">&lt;</text>
		<text transform="matrix(1 0 0 1 416.8669 395.6418)" font-family="'Roboto-Regular'" font-size="3.7995" letter-spacing="2"> </text>
		<text transform="matrix(1 0 0 1 420.3796 395.6418)" font-family="'Roboto-Regular'" font-size="3.7995">&lt;</text>
		<text transform="matrix(1 0 0 1 422.3083 395.6418)" font-family="'Roboto-Regular'" font-size="3.7995" letter-spacing="2"> </text>
		<text transform="matrix(1 0 0 1 425.822 395.6418)" font-family="'Roboto-Regular'" font-size="3.7995">&lt;</text>
		<text transform="matrix(1 0 0 1 427.7507 395.6418)" font-family="'Roboto-Regular'" font-size="3.7995" letter-spacing="2"> </text>
		<text transform="matrix(1 0 0 1 431.2644 395.6418)" font-family="'Roboto-Regular'" font-size="3.7995">&lt;</text>
		<text transform="matrix(1 0 0 1 433.1921 395.6418)" font-family="'Roboto-Regular'" font-size="3.7995" letter-spacing="2"> </text>
		<text transform="matrix(1 0 0 1 436.7058 395.6418)" font-family="'Roboto-Regular'" font-size="3.7995">&lt;</text>
		<text transform="matrix(1 0 0 1 438.6345 395.6418)" font-family="'Roboto-Regular'" font-size="3.7995" letter-spacing="2"> </text>
		<text transform="matrix(1 0 0 1 442.1462 395.6418)" font-family="'Roboto-Regular'" font-size="3.7995">&lt;</text>
		<text transform="matrix(1 0 0 1 444.0769 395.6418)" font-family="'Roboto-Regular'" font-size="3.7995" letter-spacing="2"> </text>
		<text transform="matrix(1 0 0 1 447.5906 395.6418)" font-family="'Roboto-Regular'" font-size="3.7995">&lt;</text>
		<text transform="matrix(1 0 0 1 449.5193 395.6418)" font-family="'Roboto-Regular'" font-size="3.7995" letter-spacing="2"> </text>
		<text transform="matrix(1 0 0 1 453.032 395.6418)" font-family="'Roboto-Regular'" font-size="3.7995">&lt;</text>
		<text transform="matrix(1 0 0 1 454.9607 395.6418)" font-family="'Roboto-Regular'" font-size="3.7995" letter-spacing="2"> </text>
		<text transform="matrix(1 0 0 1 458.4734 395.6418)" font-family="'Roboto-Regular'" font-size="3.7995">&lt;</text>
		<text transform="matrix(1 0 0 1 460.4021 395.6418)" font-family="'Roboto-Regular'" font-size="3.7995" letter-spacing="2"> </text>
		<text transform="matrix(1 0 0 1 463.9158 395.6418)" font-family="'Roboto-Regular'" font-size="3.7995">&lt;</text>
		<text transform="matrix(1 0 0 1 337.1658 400.2014)" font-family="'Roboto-Regular'" font-size="3.7995">1</text>
		<text transform="matrix(1 0 0 1 339.3064 400.2014)" font-family="'Roboto-Regular'" font-size="3.7995" letter-spacing="2"> </text>
		<text transform="matrix(1 0 0 1 342.6531 400.2014)" font-family="'Roboto-Regular'" font-size="3.7995">2</text>
		<text transform="matrix(1 0 0 1 344.7937 400.2014)" font-family="'Roboto-Regular'" font-size="3.7995" letter-spacing="2"> </text>
		<text transform="matrix(1 0 0 1 348.1404 400.2014)" font-family="'Roboto-Regular'" font-size="3.7995">3</text>
		<text transform="matrix(1 0 0 1 350.281 400.2014)" font-family="'Roboto-Regular'" font-size="3.7995" letter-spacing="2"> </text>
		<text transform="matrix(1 0 0 1 353.6287 400.2014)" font-family="'Roboto-Regular'" font-size="3.7995">4</text>
		<text transform="matrix(1 0 0 1 355.7683 400.2014)" font-family="'Roboto-Regular'" font-size="3.7995" letter-spacing="2"> </text>
		<text transform="matrix(1 0 0 1 359.1169 400.2014)" font-family="'Roboto-Regular'" font-size="3.7995">5</text>
		<text transform="matrix(1 0 0 1 361.2556 400.2014)" font-family="'Roboto-Regular'" font-size="3.7995" letter-spacing="2"> </text>
		<text transform="matrix(1 0 0 1 364.6033 400.2014)" font-family="'Roboto-Regular'" font-size="3.7995">6</text>
		<text transform="matrix(1 0 0 1 366.7429 400.2014)" font-family="'Roboto-Regular'" font-size="3.7995" letter-spacing="2"> </text>
		<text transform="matrix(1 0 0 1 370.0906 400.2014)" font-family="'Roboto-Regular'" font-size="3.7995">7</text>
		<text transform="matrix(1 0 0 1 372.2292 400.2014)" font-family="'Roboto-Regular'" font-size="3.7995" letter-spacing="2"> </text>
		<text transform="matrix(1 0 0 1 375.5779 400.2014)" font-family="'Roboto-Regular'" font-size="3.7995">8</text>
		<text transform="matrix(1 0 0 1 377.7175 400.2014)" font-family="'Roboto-Regular'" font-size="3.7995" letter-spacing="2"> </text>
		<text transform="matrix(1 0 0 1 381.0652 400.2014)" font-family="'Roboto-Regular'" font-size="3.7995">P</text>
		<text transform="matrix(1 0 0 1 383.4988 400.2014)" font-family="'Roboto-Regular'" font-size="3.7995" letter-spacing="2"> </text>
		<text transform="matrix(1 0 0 1 386.8484 400.2014)" font-family="'Roboto-Regular'" font-size="3.7995">E</text>
		<text transform="matrix(1 0 0 1 389.0681 400.2014)" font-family="'Roboto-Regular'" font-size="3.7995" letter-spacing="2"> </text>
		<text transform="matrix(1 0 0 1 392.4177 400.2014)" font-family="'Roboto-Regular'" font-size="3.7995">R</text>
		<text transform="matrix(1 0 0 1 394.9353 400.2014)" font-family="'Roboto-Regular'" font-size="3.7995" letter-spacing="2"> </text>
		<text transform="matrix(1 0 0 1 398.283 400.2014)" font-family="'Roboto-Regular'" font-size="3.7995">1</text>
		<text transform="matrix(1 0 0 1 400.4226 400.2014)" font-family="'Roboto-Regular'" font-size="3.7995" letter-spacing="2"> </text>
		<text transform="matrix(1 0 0 1 403.7703 400.2014)" font-family="'Roboto-Regular'" font-size="3.7995">0</text>
		<text transform="matrix(1 0 0 1 405.9119 400.2014)" font-family="'Roboto-Regular'" font-size="3.7995" letter-spacing="2"> </text>
		<text transform="matrix(1 0 0 1 409.2595 400.2014)" font-family="'Roboto-Regular'" font-size="3.7995">3</text>
		<text transform="matrix(1 0 0 1 411.3982 400.2014)" font-family="'Roboto-Regular'" font-size="3.7995" letter-spacing="2"> </text>
		<text transform="matrix(1 0 0 1 414.7468 400.2014)" font-family="'Roboto-Regular'" font-size="3.7995">7</text>
		<text transform="matrix(1 0 0 1 416.8855 400.2014)" font-family="'Roboto-Regular'" font-size="3.7995" letter-spacing="2"> </text>
		<text transform="matrix(1 0 0 1 420.2341 400.2014)" font-family="'Roboto-Regular'" font-size="3.7995">5</text>
		<text transform="matrix(1 0 0 1 422.3738 400.2014)" font-family="'Roboto-Regular'" font-size="3.7995" letter-spacing="2"> </text>
		<text transform="matrix(1 0 0 1 425.7214 400.2014)" font-family="'Roboto-Regular'" font-size="3.7995">6</text>
		<text transform="matrix(1 0 0 1 427.8611 400.2014)" font-family="'Roboto-Regular'" font-size="3.7995" letter-spacing="2"> </text>
		<text transform="matrix(1 0 0 1 431.2087 400.2014)" font-family="'Roboto-Regular'" font-size="3.7995">7</text>
		<text transform="matrix(1 0 0 1 433.3484 400.2014)" font-family="'Roboto-Regular'" font-size="3.7995" letter-spacing="2"> </text>
		<text transform="matrix(1 0 0 1 436.696 400.2014)" font-family="'Roboto-Regular'" font-size="3.7995">8</text>
		<text transform="matrix(1 0 0 1 438.8357 400.2014)" font-family="'Roboto-Regular'" font-size="3.7995" letter-spacing="2"> </text>
		<text transform="matrix(1 0 0 1 442.1833 400.2014)" font-family="'Roboto-Regular'" font-size="3.7995">9</text>
		<text transform="matrix(1 0 0 1 444.324 400.2014)" font-family="'Roboto-Regular'" font-size="3.7995" letter-spacing="2"> </text>
		<text transform="matrix(1 0 0 1 447.6716 400.2014)" font-family="'Roboto-Regular'" font-size="3.7995">1</text>
		<text transform="matrix(1 0 0 1 449.8123 400.2014)" font-family="'Roboto-Regular'" font-size="3.7995" letter-spacing="2"> </text>
		<text transform="matrix(1 0 0 1 453.1589 400.2014)" font-family="'Roboto-Regular'" font-size="3.7995">0</text>
		<text transform="matrix(1 0 0 1 455.3015 400.2014)" font-family="'Roboto-Regular'" font-size="3.7995" letter-spacing="2"> </text>
		<text transform="matrix(1 0 0 1 458.6472 400.2014)" font-family="'Roboto-Regular'" font-size="3.7995">&lt;</text>
		<text transform="matrix(1 0 0 1 460.5779 400.2014)" font-family="'Roboto-Regular'" font-size="3.7995" letter-spacing="2"> </text>
		<text transform="matrix(1 0 0 1 463.9246 400.2014)" font-family="'Roboto-Regular'" font-size="3.7995">&lt;</text>
		<text transform="matrix(1 0 0 1 337.1658 404.76)" font-family="'Roboto-Regular'" font-size="3.7995" letter-spacing="3">ADAN&lt;&lt;SISTEMA&lt;ONPE&gt;&gt;&gt;</text>
		<text transform="matrix(1 0 0 1 463.8406 404.76)" font-family="'Roboto-Regular'" font-size="3.7995">&gt;</text>
		<g>
			<g>
				<text transform="matrix(1 0 0 1 440.7644 352.7654)" font-family="'Roboto-Regular'" font-size="2.6622">Fechas Inscripción</text>
				<text transform="matrix(1 0 0 1 445.4451 355.9597)" font-family="'Roboto-Regular'" font-size="2.6622">12 01 2017</text>
				<path d="M465.831,358.456h-27.453v-9.742h27.453V358.456z M438.752,358.082h26.705v-8.995h-26.705V358.082z"/>
			</g>
			<g>
				<text transform="matrix(1 0 0 1 442.5818 362.1365)" font-family="'Roboto-Regular'" font-size="2.6622">Fechas Emisión</text>
				<text transform="matrix(1 0 0 1 445.446 365.3308)" font-family="'Roboto-Regular'" font-size="2.6622">12 01 2017</text>
				<g>
					<path d="M465.831,367.827h-27.453v-9.741h27.453V367.827z M438.752,367.453h26.705v-8.995h-26.705V367.453z"/>
				</g>
			</g>
			<g>
				<text transform="matrix(1 0 0 1 441.0281 371.5056)" font-family="'Roboto-Regular'" font-size="2.6622">Fechas Caducidad</text>
				<text transform="matrix(1 0 0 1 445.4451 374.7)" fill="#FE4E1C" font-family="'Roboto-Regular'" font-size="2.6622">01 01 3017</text>
				<path d="M465.831,377.196h-27.453v-9.743h27.453V377.196z M438.752,376.822h26.705v-8.995h-26.705V376.822z"/>
			</g>
		</g>
	</g>
	<g>
		<ellipse fill="#FFFFFF" cx="389.864" cy="331.102" rx="22.538" ry="9.248"/>
		<linearGradient id="SVGID_23_" gradientUnits="userSpaceOnUse" x1="392.2468" y1="332.7351" x2="407.0867" y2="342.911">
			<stop  offset="0" style="stop-color:#FFFFFF"/>
			<stop  offset="1" style="stop-color:#000000"/>
		</linearGradient>
		<path opacity="0.2" fill="url(#SVGID_23_)" enable-background="new    " d="M405.214,324.333
			c-8.276,7.689-22.745,11.191-35.267,11.098c3.785,2.926,11.282,4.919,19.916,4.919c12.447,0,22.538-4.141,22.538-9.248
			C412.401,328.428,409.634,326.021,405.214,324.333z"/>
	</g>
</g>
</svg>
