<?xml version="1.0" encoding="utf-8"?>
<!-- Generator: Adobe Illustrator 16.0.0, SVG Export Plug-In . SVG Version: 6.00 Build 0)  -->
<!DOCTYPE svg PUBLIC "-//W3C//DTD SVG 1.1//EN" "http://www.w3.org/Graphics/SVG/1.1/DTD/svg11.dtd">
<svg version="1.1" id="Capa_1" xmlns="http://www.w3.org/2000/svg" xmlns:xlink="http://www.w3.org/1999/xlink" x="0px" y="0px"
	 width="512px" height="768px" viewBox="0 0 512 768" enable-background="new 0 0 512 768" xml:space="preserve">
<rect x="0" y="16" fill="#0B2D46" width="512" height="733"/>
<g>
	<polygon fill="#FFFFFF" points="340.713,610.737 312.223,625.289 306.3,613.61 334.788,599.058 	"/>
	
		<linearGradient id="SVGID_1_" gradientUnits="userSpaceOnUse" x1="-6650.4551" y1="-4020.7917" x2="-6636.3667" y2="-4020.7917" gradientTransform="matrix(-0.0844 0.4509 1.2154 0.2275 4642.9141 4531.7241)">
		<stop  offset="0" style="stop-color:#FFFFFF"/>
		<stop  offset="1" style="stop-color:#000000"/>
	</linearGradient>
	<polygon opacity="0.4" fill="url(#SVGID_1_)" enable-background="new    " points="312.223,625.289 329.604,616.489 306.3,613.61 	
		"/>
	<rect x="120.675" y="665.647" fill="#FFFFFF" width="45.997" height="19.359"/>
	
		<linearGradient id="SVGID_2_" gradientUnits="userSpaceOnUse" x1="55.3938" y1="178.4915" x2="63.405" y2="180.9377" gradientTransform="matrix(1 0 0 -1 91.1001 855.4009)">
		<stop  offset="0" style="stop-color:#FFFFFF"/>
		<stop  offset="1" style="stop-color:#000000"/>
	</linearGradient>
	<polygon opacity="0.4" fill="url(#SVGID_2_)" enable-background="new    " points="159.252,685.041 159.023,665.647 
		143.99,665.647 144.219,685.041 	"/>
	
		<linearGradient id="SVGID_3_" gradientUnits="userSpaceOnUse" x1="1034.9382" y1="178.4915" x2="1042.9493" y2="180.9376" gradientTransform="matrix(-1.0141 0 0 -1 1183.6875 855.4009)">
		<stop  offset="0" style="stop-color:#FFFFFF"/>
		<stop  offset="1" style="stop-color:#000000"/>
	</linearGradient>
	<polygon opacity="0.4" fill="url(#SVGID_3_)" enable-background="new    " points="121.219,685.041 121.451,665.647 
		136.695,665.647 136.463,685.041 	"/>
	<path fill="#FFFFFF" d="M127.976,615.017L97.213,692.19c0.691,0.309,0.979,1.006,0.796,1.752h26.034l31.465-78.926L127.976,615.017
		L127.976,615.017z"/>
	<path fill="#FFFFFF" d="M255.537,635.233c-5.887-6.545-12.941-9.793-21.162-9.793h-42.479v68.502h42.479
		c8.296,0,15.367-3.881,21.221-10.424c5.851-6.551,8.774-14.865,8.774-24.375C264.37,649.942,261.427,641.783,255.537,635.233z
		 M236.695,665.854c-1.831,1.91-4.037,2.771-6.617,2.771h-13.699v-19.359h13.699c2.58,0,4.786,0.91,6.617,2.82
		c1.831,1.909,2.749,4.127,2.749,6.795C239.444,661.669,238.526,663.948,236.695,665.854z"/>
	<path fill="#FFFFFF" d="M304.516,621.375c-20.302,0-36.759,16.519-36.759,36.892c0,20.377,16.457,36.895,36.759,36.895
		c20.301,0,36.758-16.518,36.758-36.895C341.273,637.894,324.816,621.375,304.516,621.375z M303.871,671.257
		c-6.791,0-12.297-5.527-12.297-12.343c0-6.814,5.506-12.342,12.297-12.342c6.79,0,12.297,5.527,12.297,12.342
		C316.168,665.73,310.661,671.257,303.871,671.257z"/>
	
		<linearGradient id="SVGID_4_" gradientUnits="userSpaceOnUse" x1="40.7229" y1="217.1624" x2="47.9823" y2="221.7148" gradientTransform="matrix(1 0 0 -1 91.1001 855.4009)">
		<stop  offset="0" style="stop-color:#FFFFFF"/>
		<stop  offset="1" style="stop-color:#000000"/>
	</linearGradient>
	<polygon opacity="0.4" fill="url(#SVGID_4_)" enable-background="new    " points="151.735,624.317 137.496,660.261 
		114.045,651.136 127.976,615.071 	"/>
	<path fill="#FFFFFF" d="M186.873,693.013c0.084-0.254,0.248-0.463,0.453-0.615l-30.836-77.381h-27.531l31.464,78.926h26.142
		C186.668,693.942,186.769,693.337,186.873,693.013z"/>
	
		<linearGradient id="SVGID_5_" gradientUnits="userSpaceOnUse" x1="1088.1013" y1="-6500.1172" x2="1093.7668" y2="-6500.1172" gradientTransform="matrix(-1 0 0 1 1309.0991 7181.4004)">
		<stop  offset="0" style="stop-color:#FFFFFF"/>
		<stop  offset="1" style="stop-color:#000000"/>
	</linearGradient>
	<rect x="214.152" y="668.625" opacity="0.4" fill="url(#SVGID_5_)" enable-background="new    " width="10.387" height="25.316"/>
	<rect x="191.896" y="625.44" fill="#FFFFFF" width="24.481" height="68.502"/>
	
		<linearGradient id="SVGID_6_" gradientUnits="userSpaceOnUse" x1="217.2727" y1="177.1985" x2="229.6682" y2="177.1985" gradientTransform="matrix(1 0 0 -1 91.1001 855.4009)">
		<stop  offset="0" style="stop-color:#FFFFFF"/>
		<stop  offset="1" style="stop-color:#000000"/>
	</linearGradient>
	<path opacity="0.4" fill="url(#SVGID_6_)" enable-background="new    " d="M320.326,664.519l-4.249-3.084
		c-0.872,4.225-3.995,7.656-7.704,9.092v24.443c4.451-0.427,8.537-1.642,12.396-3.527L320.326,664.519z"/>
	<rect x="316.082" y="657.455" fill="#FFFFFF" width="24.935" height="37.23"/>
	<rect x="346.951" y="622.46" fill="#FFFFFF" width="19.289" height="68.502"/>
	<rect x="398.141" y="622.46" fill="#FFFFFF" width="17.063" height="72.227"/>
	
		<linearGradient id="SVGID_7_" gradientUnits="userSpaceOnUse" x1="263.4216" y1="211.1682" x2="268.572" y2="214.2952" gradientTransform="matrix(1 0 0 -1 91.1001 855.4009)">
		<stop  offset="0" style="stop-color:#FFFFFF"/>
		<stop  offset="1" style="stop-color:#000000"/>
	</linearGradient>
	<polygon opacity="0.4" fill="url(#SVGID_7_)" enable-background="new    " points="347.24,623.953 347.944,636.832 366.24,661.821 
		366.24,654.728 370.455,651.531 	"/>
	
		<linearGradient id="SVGID_8_" gradientUnits="userSpaceOnUse" x1="1319.4978" y1="-6464.4922" x2="1324.506" y2="-6461.4517" gradientTransform="matrix(-1 0 0 1 1728.4019 7139.2715)">
		<stop  offset="0" style="stop-color:#FFFFFF"/>
		<stop  offset="1" style="stop-color:#000000"/>
	</linearGradient>
	<polygon opacity="0.4" fill="url(#SVGID_8_)" enable-background="new    " points="415.205,694.687 415.205,681.815 
		398.141,657.58 398.141,663.476 393.773,668.276 	"/>
	<polygon fill="#FFFFFF" points="415.205,694.687 388.249,694.687 347.24,622.46 375.719,622.46 	"/>
	<path fill="#FFFFFF" d="M341.016,695.451c0,1.254-0.718,1.468-1.959,1.468h-19.908c-1.24,0-3.066-0.214-3.066-1.468v-10.244
		c0-1.252,1.826-2.434,3.066-2.434h19.908c1.241,0,1.959,1.182,1.959,2.434V695.451z"/>
	<path fill="#FFFFFF" d="M216.379,694.196c0,1.252-0.736,1.98-2.041,1.98h-19.279c-1.302,0-3.161-0.729-3.161-1.98v-10.244
		c0-1.254,1.859-1.924,3.161-1.924h19.279c1.305,0,2.041,0.67,2.041,1.924V694.196z"/>
	<path fill="#FFFFFF" d="M172.787,680.539h-9.863c-1.254,0-2.929,1.234-2.929,2.488v10.252c0,1.252,1.675,2.15,2.929,2.15h22.757
		c1.256,0,1.99-0.703,1.99-1.955l-1.482-3.916L172.787,680.539z"/>
	<path fill="#FFFFFF" d="M111.738,680.539h9.902c1.259,0,2.743,1.234,2.743,2.488v10.252c0,1.252-1.484,2.15-2.743,2.15H98.792
		c-1.26,0-1.997-0.703-1.997-1.955l1.489-3.916L111.738,680.539z"/>
	<path fill="#FFFFFF" d="M366.24,695.425c0,1.271-1.06,1.494-2.43,1.494h-13.834c-1.369,0-3.025-0.224-3.025-1.494V685.03
		c0-1.27,1.656-2.256,3.025-2.256h13.834c1.37,0,2.43,0.986,2.43,2.256V695.425z"/>
	<path fill="#FFFFFF" d="M415.205,632.479c0,1.209-1.021,1.896-2.305,1.896h-11.967c-1.283,0-2.793-0.688-2.793-1.896v-9.9
		c0-1.211,1.51-2.352,2.793-2.352H412.9c1.283,0,2.305,1.141,2.305,2.352V632.479z"/>
</g>
<linearGradient id="SVGID_9_" gradientUnits="userSpaceOnUse" x1="236.6985" y1="221.5339" x2="249.8997" y2="221.5339" gradientTransform="matrix(1 0 0 -1 91.1001 855.4009)">
	<stop  offset="0" style="stop-color:#FFFFFF"/>
	<stop  offset="1" style="stop-color:#000000"/>
</linearGradient>
<path opacity="0.3" fill="url(#SVGID_9_)" enable-background="new    " d="M327.799,630.734c4.227,2.065,9.996,3.595,13.201,6.267
	C336.66,633.311,332.225,631.367,327.799,630.734z"/>
<g>
	<g>
		
			<rect x="208.49" y="250.53" transform="matrix(0.7084 0.7058 -0.7058 0.7084 288.7505 -86.8206)" fill="#FFFFFF" width="81.923" height="111.048"/>
		<g>
			<rect x="249.286" y="329.641" fill="#DA8C0C" width="12.467" height="2.671"/>
			<rect x="253.739" y="324.298" fill="#DA8C0C" width="2.671" height="13.358"/>
		</g>
		<g>
			<path fill="#005550" d="M305.861,296.041l-14.167,14.221l-15.98-15.921l14.169-14.222L305.861,296.041z M291.687,307.495
				l11.406-11.449l-13.204-13.157l-11.408,11.448L291.687,307.495z"/>
			
				<rect x="247.879" y="268.007" transform="matrix(0.7071 0.7071 -0.7071 0.7071 269.6591 -108.7744)" fill="#2EA1A1" width="36.509" height="6.234"/>
		</g>
		<g>
			<path fill="#005550" d="M288.021,313.882l-14.17,14.222l-15.979-15.921l14.171-14.222L288.021,313.882z M273.847,325.335
				l11.407-11.448l-13.206-13.157l-11.407,11.448L273.847,325.335z"/>
			
				<rect x="230.251" y="285.639" transform="matrix(0.7071 0.7071 -0.7071 0.7071 276.9735 -91.1447)" fill="#2EA1A1" width="36.509" height="6.233"/>
		</g>
		<g>
			<path fill="#005550" d="M270.182,331.721l-14.17,14.221l-15.98-15.92l14.171-14.223L270.182,331.721z M256.007,343.175
				l11.407-11.448l-13.205-13.159L242.8,330.018L256.007,343.175z"/>
			
				<rect x="211.988" y="303.9" transform="matrix(0.7071 0.7071 -0.7071 0.7071 284.5329 -72.8827)" fill="#2EA1A1" width="36.51" height="6.232"/>
		</g>
		<g>
			<path fill="#005550" d="M252.342,349.562l-14.169,14.223l-15.98-15.92l14.171-14.224L252.342,349.562z M238.168,361.016
				l11.405-11.448l-13.206-13.158l-11.407,11.448L238.168,361.016z"/>
			
				<rect x="194.359" y="321.53" transform="matrix(0.7071 0.7071 -0.7071 0.7071 291.8364 -55.2535)" fill="#2EA1A1" width="36.51" height="6.233"/>
		</g>
	</g>
	<g opacity="0.8">
		
			<rect x="300.477" y="180.684" transform="matrix(-0.8958 0.4444 -0.4444 -0.8958 715.5048 264.7891)" fill="#FFFFFF" width="52.482" height="71.141"/>
		<g>
			
				<rect x="306.192" y="214.301" transform="matrix(0.3209 -0.9471 0.9471 0.3209 6.8536 439.9404)" fill="#DA8C0C" width="8.014" height="1.781"/>
			
				<rect x="305.895" y="213.889" transform="matrix(-0.9471 -0.3209 0.3209 -0.9471 535.3591 517.7894)" fill="#DA8C0C" width="8.905" height="1.782"/>
		</g>
		<g>
			<path fill="#005550" d="M321.203,252.537l-5.717-11.522l12.946-6.422l5.716,11.522L321.203,252.537z M317.168,241.581
				l4.601,9.274l10.699-5.307l-4.602-9.275L317.168,241.581z"/>
			
				<rect x="332.791" y="231.539" transform="matrix(-0.8966 0.4428 -0.4428 -0.8966 756.7679 290.3906)" fill="#2EA1A1" width="23.39" height="3.994"/>
		</g>
		<g>
			<path fill="#005550" d="M314.046,238.044l-5.716-11.521l12.945-6.421l5.716,11.521L314.046,238.044z M310.01,227.088l4.603,9.276
				l10.698-5.307l-4.602-9.275L310.01,227.088z"/>
			
				<rect x="325.719" y="217.223" transform="matrix(-0.8966 0.4428 -0.4428 -0.8966 737.0157 266.3647)" fill="#2EA1A1" width="23.388" height="3.994"/>
		</g>
		<g>
			<path fill="#005550" d="M306.888,223.551l-5.715-11.522l12.946-6.422l5.716,11.522L306.888,223.551z M302.854,212.596
				l4.602,9.273l10.698-5.307l-4.601-9.276L302.854,212.596z"/>
			
				<rect x="318.376" y="202.41" transform="matrix(-0.8967 0.4427 -0.4427 -0.8967 716.5234 241.5693)" fill="#2EA1A1" width="23.386" height="3.992"/>
		</g>
		<g>
			<path fill="#005550" d="M299.733,209.059l-5.717-11.521l12.946-6.423l5.716,11.521L299.733,209.059z M295.698,198.104
				l4.602,9.273l10.699-5.307l-4.601-9.275L295.698,198.104z"/>
			
				<rect x="311.305" y="188.089" transform="matrix(-0.8967 0.4427 -0.4427 -0.8967 696.772 217.53)" fill="#2EA1A1" width="23.386" height="3.991"/>
		</g>
	</g>
	<g opacity="0.5">
		
			<rect x="229.909" y="121.146" transform="matrix(-0.8958 0.4444 -0.4444 -0.8958 542.4496 172.3669)" fill="#FFFFFF" width="42.225" height="57.235"/>
		<g>
			
				<rect x="234.506" y="148.194" transform="matrix(0.3209 -0.9471 0.9471 0.3209 20.4064 326.2814)" fill="#DA8C0C" width="6.448" height="1.433"/>
			
				<rect x="234.262" y="147.876" transform="matrix(-0.9471 -0.3209 0.3209 -0.9471 415.415 365.6594)" fill="#DA8C0C" width="7.164" height="1.433"/>
		</g>
		<g>
			<path fill="#005550" d="M246.583,178.957l-4.6-9.271l10.416-5.166l4.599,9.271L246.583,178.957z M243.337,170.143l3.701,7.46
				l8.607-4.27l-3.701-7.462L243.337,170.143z"/>
			
				<rect x="255.906" y="162.069" transform="matrix(-0.8966 0.4428 -0.4428 -0.8966 575.6763 192.9531)" fill="#2EA1A1" width="18.818" height="3.212"/>
		</g>
		<g>
			<path fill="#005550" d="M240.824,167.297l-4.599-9.27l10.415-5.168l4.6,9.271L240.824,167.297z M237.577,158.483l3.703,7.462
				l8.607-4.27l-3.702-7.461L237.577,158.483z"/>
			
				<rect x="250.216" y="150.546" transform="matrix(-0.8966 0.4428 -0.4428 -0.8966 559.7825 173.6047)" fill="#2EA1A1" width="18.817" height="3.214"/>
		</g>
		<g>
			<path fill="#005550" d="M235.066,155.636l-4.598-9.27l10.415-5.167l4.598,9.27L235.066,155.636z M231.82,146.824l3.702,7.461
				l8.607-4.27l-3.702-7.461L231.82,146.824z"/>
			
				<rect x="244.323" y="138.607" transform="matrix(-0.8966 0.4428 -0.4428 -0.8966 543.3181 153.5837)" fill="#2EA1A1" width="18.817" height="3.213"/>
		</g>
		<g>
			<path fill="#005550" d="M229.309,143.976l-4.599-9.269l10.414-5.168l4.6,9.271L229.309,143.976z M226.061,135.164l3.703,7.46
				l8.607-4.27l-3.702-7.462L226.061,135.164z"/>
			
				<rect x="238.633" y="127.085" transform="matrix(-0.8966 0.4428 -0.4428 -0.8966 527.4248 134.2373)" fill="#2EA1A1" width="18.817" height="3.212"/>
		</g>
	</g>
	<g>
		<circle fill="#0B2D46" cx="385.51" cy="400.854" r="12.485"/>
		<circle fill="#0B2D46" cx="414.293" cy="421.515" r="12.485"/>
		<g>
			<g>
				<path fill="#FFFFFF" d="M356.156,391.332c-1.058,1.574-3.187,1.994-4.76,0.938l-3.563-2.387
					c-1.571-1.056-1.992-3.187-0.938-4.759l5.73-8.547c1.055-1.575,3.185-1.995,4.759-0.939l3.563,2.388
					c1.571,1.055,1.991,3.185,0.937,4.757L356.156,391.332z"/>
				
					<linearGradient id="SVGID_10_" gradientUnits="userSpaceOnUse" x1="153.6921" y1="517.76" x2="158.8058" y2="516.3176" gradientTransform="matrix(0.6937 0.7203 0.7203 -0.6937 -125.3134 632.1516)">
					<stop  offset="0" style="stop-color:#FFFFFF"/>
					<stop  offset="1" style="stop-color:#000000"/>
				</linearGradient>
				<path opacity="0.3" fill="url(#SVGID_10_)" enable-background="new    " d="M356.156,391.332l5.728-8.548
					c1.057-1.573,0.635-3.703-0.937-4.757l-3.563-2.388c-0.101-0.069-0.206-0.13-0.313-0.188c-2.448,4.624-6.03,9.194-10.694,10.934
					c-0.253,1.313,0.279,2.708,1.457,3.499l3.563,2.387C352.969,393.326,355.098,392.906,356.156,391.332z"/>
			</g>
			<g>
				<circle fill="#FFFFFF" cx="413.931" cy="394.813" r="6.688"/>
				<circle fill="#FFFFFF" cx="424.555" cy="378.559" r="5.025"/>
				
					<rect x="417.413" y="379.761" transform="matrix(-0.8375 -0.5465 0.5465 -0.8375 557.0275 941.8369)" fill="#FFFFFF" width="2.309" height="16.651"/>
			</g>
			
				<linearGradient id="SVGID_11_" gradientUnits="userSpaceOnUse" x1="203.6282" y1="562.0315" x2="206.25" y2="562.7305" gradientTransform="matrix(0.6937 0.7203 0.7203 -0.6937 -125.3134 632.1516)">
				<stop  offset="0" style="stop-color:#FFFFFF"/>
				<stop  offset="1" style="stop-color:#000000"/>
			</linearGradient>
			<path opacity="0.2" fill="url(#SVGID_11_)" enable-background="new    " d="M419.529,398.472
				c1.767-2.704,1.325-6.213-0.879-8.402l4.393-6.723c2.098,0.664,4.458-0.109,5.719-2.039c1-1.528,1.055-3.398,0.317-4.931
				c-4.866,4.916-11.352,9.14-12.515,16.314c-0.901,3.069-2.242,6.982-4.605,8.508C414.736,402.059,417.859,401.029,419.529,398.472
				z"/>
			<path fill="#FFFFFF" d="M444.802,450.871c-1.057,1.573-3.187,1.993-4.761,0.939l-3.561-2.387
				c-1.573-1.057-1.994-3.187-0.939-4.76l5.729-8.548c1.056-1.573,3.187-1.993,4.759-0.94l3.563,2.389
				c1.572,1.055,1.993,3.186,0.937,4.758L444.802,450.871z"/>
			
				<linearGradient id="SVGID_12_" gradientUnits="userSpaceOnUse" x1="264.1121" y1="538.9045" x2="253.4635" y2="541.3494" gradientTransform="matrix(0.6937 0.7203 0.7203 -0.6937 -125.3134 632.1516)">
				<stop  offset="0" style="stop-color:#FFFFFF"/>
				<stop  offset="1" style="stop-color:#000000"/>
			</linearGradient>
			<path opacity="0.3" fill="url(#SVGID_12_)" enable-background="new    " d="M450.529,442.323
				c1.058-1.572,0.636-3.703-0.937-4.758l-3.563-2.389c-1.572-1.054-3.703-0.633-4.759,0.94l-5.729,8.548
				c-1.057,1.573-0.634,3.703,0.939,4.76l2.841,1.903c3.055-1.246,5.578-3.731,8.655-5.19L450.529,442.323z"/>
			<g>
				<path fill="#FFFFFF" d="M382.698,478.759c-3.929-4.079-9.042-6.256-14.087-6.465c-4.588-0.497-9.342-2.827-12.913-6.535
					c-3.83-3.978-5.415-8.614-6.09-14.147l-0.065,0.064c-0.066-6.115-1.298-11.258-5.661-15.789
					c-7.69-7.985-19.816-8.588-27.206-1.472s-6.794,19.129,0.898,27.116c3.927,4.078,8.059,7.319,14.449,6.254l-0.01-0.011
					c3.825,1.403,8.952,2.872,12.562,6.622c3.662,3.803,5.468,8.713,5.712,13.43c-0.653,5.721,1.216,11.943,5.73,16.63
					c7.688,7.983,19.872,8.724,27.264,1.608C390.668,498.95,390.387,486.744,382.698,478.759z"/>
				
					<linearGradient id="SVGID_13_" gradientUnits="userSpaceOnUse" x1="212.8425" y1="453.1506" x2="215.8983" y2="477.5951" gradientTransform="matrix(0.6937 0.7203 0.7203 -0.6937 -125.3134 632.1516)">
					<stop  offset="0" style="stop-color:#FFFFFF"/>
					<stop  offset="1" style="stop-color:#000000"/>
				</linearGradient>
				<path opacity="0.3" fill="url(#SVGID_13_)" enable-background="new    " d="M353.878,485.744
					c6.687,9.566,19.284,34.846,31.72,17.546c4.858-7.225,3.854-17.521-2.899-24.531c-3.929-4.079-9.042-6.256-14.087-6.465
					c-4.588-0.497-9.342-2.827-12.913-6.535c-3.83-3.978-5.415-8.614-6.09-14.147l-0.065,0.064
					c-0.066-6.115-1.298-11.258-5.661-15.789c-1.021-1.059-2.036-1.891-3.196-2.692c-10.641-7.329-26.096-3.03-23.802,5.772
					C320.467,452.732,347.906,477.982,353.878,485.744z"/>
				<path fill="#FFFFFF" d="M387.407,434.792c0.742,0.769,1.327,1.395,1.929,2.052l6.028-5.807l-7.454-3.946l-4.184,4.028
					C385.011,432.355,386.096,433.43,387.407,434.792z"/>
				
					<linearGradient id="SVGID_14_" gradientUnits="userSpaceOnUse" x1="208.3328" y1="510.3108" x2="216.3474" y2="510.3108" gradientTransform="matrix(0.6937 0.7203 0.7203 -0.6937 -125.3134 632.1516)">
					<stop  offset="0" style="stop-color:#FFFFFF"/>
					<stop  offset="1" style="stop-color:#000000"/>
				</linearGradient>
				<path opacity="0.3" fill="url(#SVGID_14_)" enable-background="new    " d="M387.407,434.792
					c0.742,0.769,1.327,1.395,1.929,2.052l6.028-5.807l-7.454-3.946l-4.184,4.028C385.011,432.355,386.096,433.43,387.407,434.792z"
					/>
				<g>
					<path fill="#FFFFFF" d="M445.643,469.337c-0.421-1.728-0.484-3.311-2.72-5.511c-2.234-2.207-5.375-4.846-9.472-4.595
						c-1.894,0.114-3.795,0.205-5.664,0.532c-6.946,1.215-13.929,1.719-20.97,1.123c-0.838-0.068-1.712-0.318-2.504-0.154
						c-2.955,0.611-5.858,1.435-8.261,3.394c-2.035,1.655-2.28,3.826-0.753,5.968c0.793,1.107,1.751,2.068,2.679,3.057
						c2.896,3.103,6.231,5.627,10.005,7.562c7.296,3.738,15.013,4.721,23.071,3.47c4.073-0.634,7.804-2.019,10.904-4.831
						C445.007,476.588,446.347,473.278,445.643,469.337z"/>
				</g>
				<g opacity="0.3">
					
						<linearGradient id="SVGID_15_" gradientUnits="userSpaceOnUse" x1="256.4226" y1="500.6086" x2="238.2521" y2="497.3641" gradientTransform="matrix(0.6937 0.7203 0.7203 -0.6937 -125.3134 632.1516)">
						<stop  offset="0" style="stop-color:#FFFFFF"/>
						<stop  offset="1" style="stop-color:#000000"/>
					</linearGradient>
					<path fill="url(#SVGID_15_)" d="M422.019,460.593c-5.042,0.573-10.105,0.724-15.199,0.294c-0.84-0.07-1.713-0.32-2.505-0.155
						c-2.955,0.611-5.859,1.435-8.262,3.394c-2.033,1.655-2.28,3.827-0.752,5.968c0.792,1.107,1.751,2.069,2.679,3.057
						c2.896,3.103,6.23,5.628,10.004,7.562c3.333,1.709,6.759,2.813,10.26,3.421C421.629,476.594,423.439,468.471,422.019,460.593z"
						/>
				</g>
				<g>
					<path fill="#FFFFFF" d="M311.6,415.831c0.395,1.515,0.477,2.906,2.479,4.815c2.003,1.906,4.813,4.182,8.415,3.896
						c1.668-0.13,3.338-0.236,4.982-0.554c6.1-1.18,12.241-1.729,18.453-1.318c0.738,0.05,1.517,0.257,2.211,0.096
						c2.59-0.581,5.138-1.354,7.221-3.114c1.767-1.492,1.95-3.408,0.571-5.271c-0.715-0.963-1.575-1.794-2.407-2.65
						c-2.599-2.687-5.578-4.86-8.93-6.506c-6.486-3.18-13.302-3.924-20.378-2.694c-3.58,0.621-6.845,1.898-9.532,4.424
						C312.046,409.435,310.916,412.369,311.6,415.831z"/>
				</g>
				<path fill="#FFFFFF" d="M402.346,466.348c-5.035,4.848-36.381,13.722-49.521,0.077c-13.138-13.644-3.092-44.635,1.943-49.482
					c5.031-4.845,18.64,3.367,31.778,17.012C399.684,447.598,407.377,461.502,402.346,466.348z"/>
				
					<linearGradient id="SVGID_16_" gradientUnits="userSpaceOnUse" x1="210.6697" y1="499.3235" x2="209.5336" y2="510.8437" gradientTransform="matrix(0.6937 0.7203 0.7203 -0.6937 -125.3134 632.1516)">
					<stop  offset="0" style="stop-color:#FFFFFF"/>
					<stop  offset="1" style="stop-color:#000000"/>
				</linearGradient>
				<path opacity="0.3" fill="url(#SVGID_16_)" enable-background="new    " d="M354.767,416.943
					c-1.266,1.218-2.849,4.091-4.3,7.924c14.784,15.294,32.366,32.549,53.353,36.08c-0.778-6.604-7.525-16.867-17.274-26.992
					C373.407,420.31,359.799,412.098,354.767,416.943z"/>
				<path fill="#FFFFFF" d="M442.794,446.565l4.738-6.825c5.232-7.538,3.754-17.622-3.308-22.522l-64.213-44.847
					c-7.058-4.903-17.021-2.761-22.258,4.775l-4.734,6.825c-5.234,7.539-3.755,17.622,3.303,22.522l64.215,44.847
					C427.595,456.242,437.56,454.102,442.794,446.565z M388.705,410.974c-4.188,1.156-8.891-1.046-10.688-5.006
					c-1.972-4.334-0.563-9.192,3.414-11.78c3.548-2.311,8.716-1.713,11.489,1.363c-2.705,0.024-4.322,1.068-4.91,3.132
					c-0.499,1.764,0.229,3.717,1.758,4.699c1.863,1.203,3.706,0.938,5.746-0.83C395.898,405.866,392.647,409.885,388.705,410.974z
					 M416.873,430.35c-4.088,1.127-8.674-1.021-10.429-4.883c-1.92-4.229-0.546-8.964,3.332-11.489
					c3.462-2.249,8.499-1.672,11.205,1.33c-2.637,0.022-4.216,1.04-4.787,3.054c-0.488,1.721,0.224,3.627,1.712,4.585
					c1.817,1.173,3.616,0.912,5.605-0.81C423.886,425.369,420.716,429.287,416.873,430.35z"/>
				<path fill="#21527C" d="M373.827,442.869c-1.916,1.846-3.77,3.63-5.718,5.51c1.858,1.931,3.658,3.8,5.445,5.654
					c-2.282,3.105-7.508,3.304-10.869,0.522c-3.402-2.813-3.722-8.4-0.659-11.575C365.374,439.508,370.706,439.402,373.827,442.869z
					"/>
				<path fill="#0B2D46" d="M376.514,442.32c3.546,3.257,3.416,9.167-0.14,12.277c-0.274-0.233-0.576-0.454-0.831-0.72
					c-1.723-1.773-3.438-3.561-5.312-5.507c1.129-1.088,2.165-2.087,3.201-3.084C374.44,444.319,375.444,443.35,376.514,442.32z"/>
			</g>
			<g>
				<path fill="#21527C" d="M396.734,408.41c-8.578,8.055-21.393,7.996-29.895-0.137c-8.503-8.127-7.665-21.734,0.134-29.895
					c8.132-8.5,21.738-7.663,29.898,0.137C405.371,386.645,404.536,400.254,396.734,408.41c-1.863,1.949,1.078,4.925,2.945,2.973
					c9.723-10.168,9.794-25.556,0.164-35.813c-9.629-10.254-25.973-9.4-35.813-0.161c-10.255,9.626-9.401,25.971-0.164,35.81
					c9.626,10.255,25.971,9.403,35.813,0.164C401.647,409.535,398.699,406.569,396.734,408.41z"/>
				<path fill="#21527C" d="M440.887,438.572c-8.578,8.053-21.393,7.995-29.896-0.136c-8.504-8.131-7.664-21.737,0.134-29.895
					c8.131-8.504,21.739-7.667,29.896,0.137C449.525,416.806,448.689,430.413,440.887,438.572c-1.863,1.948,1.078,4.921,2.944,2.972
					c9.723-10.168,9.794-25.555,0.163-35.811c-9.628-10.256-25.971-9.402-35.812-0.166c-10.255,9.628-9.405,25.974-0.164,35.813
					c9.627,10.255,25.972,9.401,35.813,0.163C445.801,439.697,442.849,436.727,440.887,438.572z"/>
				<path fill="#21527C" d="M400.8,408.55c1.316,0.849,2.632,1.7,3.948,2.552c0.956,0.622,2.312,0.176,2.857-0.772
					c0.59-1.027,0.182-2.235-0.775-2.854c-1.315-0.853-2.629-1.704-3.945-2.556c-0.958-0.619-2.314-0.176-2.858,0.772
					C399.436,406.719,399.844,407.93,400.8,408.55L400.8,408.55z"/>
			</g>
		</g>
	</g>
	<g>
		<rect x="148.757" y="344.494" fill="#FFFFFF" width="178.804" height="186.682"/>
		<polygon fill="#DBDBDB" points="341.268,516.48 327.56,530.899 327.56,344.645 341.268,360.265 		"/>
	</g>
</g>
<g>
	<path fill="#0B2D46" d="M197.207,463.781c-1.034,1.32-2.348,1.979-3.937,1.979c-1.622,0-2.966-0.658-4.031-1.979
		c-1.065-1.32-1.595-3.008-1.595-5.067s0.53-3.767,1.595-5.121c1.064-1.355,2.409-2.032,4.031-2.032c1.589,0,2.902,0.656,3.937,1.98
		c1.03,1.316,1.547,3.021,1.547,5.118C198.754,460.755,198.237,462.461,197.207,463.781 M205.526,445.33
		c-3.115-3.392-7.199-5.091-12.256-5.091c-5.057,0-9.143,1.699-12.257,5.091c-3.117,3.396-4.673,7.857-4.673,13.38
		c0,5.492,1.556,9.931,4.673,13.326c3.114,3.396,7.2,5.096,12.257,5.096c5.057,0,9.141-1.7,12.256-5.096
		c3.116-3.396,4.675-7.834,4.675-13.326C210.201,453.188,208.642,448.727,205.526,445.33"/>
	<polygon fill="#0B2D46" points="245.793,440.247 234.344,440.247 234.344,458.888 224.287,440.247 212.69,440.247 212.69,477.14 
		224.235,477.14 224.188,459.11 233.949,477.14 245.793,477.14 	"/>
	<path fill="#0B2D46" d="M264.203,455.709c-0.586,0.642-1.384,0.96-2.389,0.96h-2.167v-6.499h2.672c0.77,0,1.426,0.284,1.959,0.847
		c0.537,0.565,0.807,1.262,0.807,2.092C265.085,454.202,264.791,455.069,264.203,455.709 M272.894,443.955
		c-2.353-2.486-5.358-3.728-9.021-3.728h-16.071v36.912h11.844v-11.116h6.177c3.182,0,5.74-1.147,7.685-3.442
		c1.938-2.292,2.909-5.325,2.909-9.088C276.418,449.616,275.245,446.44,272.894,443.955"/>
	<polygon fill="#0B2D46" points="301.012,466.797 290.61,466.797 290.61,463.4 299.801,463.4 299.801,453.751 290.61,453.751 
		290.61,450.187 300.709,450.187 300.709,440.245 278.738,440.245 278.738,477.158 301.012,477.158 	"/>
	<rect x="212.751" y="386.776" fill="#CEE0EA" width="51.848" height="51.726"/>
	<path fill="#0B2D46" d="M253.375,399.019l1.516,5.942c0,0,5.36-6.968,3.318-12.639c0,0-1.167-3.304-3.273-5.547h-4.646
		c0,0,4.482,4.427,4.34,7.923C254.489,398.194,253.375,399.019,253.375,399.019"/>
	<polygon fill="#FFFFFF" points="236.93,449.716 229.606,420.714 233.422,416.691 235.979,424.424 240.148,425.208 243.189,421.07 
		248.205,424.32 251.706,421.009 247.898,400.32 253.631,398.865 264.599,442.801 	"/>
	<path fill="#0B2D46" d="M212.751,386.776v17.874c0,0,0.502,4.025,1.834,9.119c1.332,5.093,1.803,9.637,6.112,8.933
		c0,0,2.85-0.268,3.358-2.123c0,0,2.653,1.639,5.208,0.917c2.557-0.725,3.618-2.581,3.618-2.581s1.274,4.942,1.831,6.175
		c0.562,1.228,3.031,2.121,4.944,1.663c1.912-0.46,4.074-3.347,4.074-3.347s2.317,3.227,5.981,1.753c0,0,3.787-1.743,3.207-4.41
		c-0.578-2.672-5.63-23.585-5.63-23.585l-3.351,0.832l5.291,21.04c0,0,0.917,2.989-0.963,3.52c0,0-1.736,0.388-2.218-1.157
		c-0.483-1.542-3.884-15.792-3.884-15.792l-3.772,0.946l2.882,12.241c0,0,1.061,3.569-1.327,4.412c0,0-2.865,1.014-3.69-2.384
		c-0.828-3.401-3.277-12.927-3.277-12.927l-3.741,0.889l1.063,4.656c0,0,1.038,3.499-1.158,4.416
		c-2.194,0.915-3.402-0.702-3.664-1.667c-0.267-0.966-1.387-6.089-1.387-6.089l-3.508,0.892l1.302,5.247
		c0,0,0.605,2.121-0.926,2.532c-1.535,0.407-2.015-1.303-2.21-1.871c-0.196-0.563-2.446-7.279-2.875-9.843
		c-0.429-2.567-1.682-11.228-1.735-12.968c-0.053-1.738-0.305-4.287,0.458-7.313H212.751z"/>
</g>
</svg>
