<?xml version="1.0" encoding="utf-8"?>
<!-- Generator: Adobe Illustrator 16.0.0, SVG Export Plug-In . SVG Version: 6.00 Build 0)  -->
<!DOCTYPE svg PUBLIC "-//W3C//DTD SVG 1.1//EN" "http://www.w3.org/Graphics/SVG/1.1/DTD/svg11.dtd">
<svg version="1.1" id="Capa_1" xmlns="http://www.w3.org/2000/svg" xmlns:xlink="http://www.w3.org/1999/xlink" x="0px" y="0px"
	 width="512px" height="768px" viewBox="0 0 512 768" enable-background="new 0 0 512 768" xml:space="preserve">
<rect y="16" fill-rule="evenodd" clip-rule="evenodd" fill="#0B2D46" width="512" height="733"/>
<linearGradient id="SVGID_1_" gradientUnits="userSpaceOnUse" x1="327.7988" y1="633.8672" x2="341" y2="633.8672">
	<stop  offset="0" style="stop-color:#FFFFFF"/>
	<stop  offset="1" style="stop-color:#000000"/>
</linearGradient>
<path opacity="0.3" fill="url(#SVGID_1_)" d="M327.799,630.734c4.226,2.065,9.996,3.595,13.201,6.266
	C336.66,633.311,332.225,631.368,327.799,630.734z"/>
<g>
	<g>
		<path fill-rule="evenodd" clip-rule="evenodd" fill="#0B2D46" d="M256.089,232.844c-0.977,9.763-9.682,16.888-19.447,15.914
			c-9.763-0.975-16.889-9.68-15.914-19.444c0.975-9.766,9.683-16.89,19.446-15.917C249.938,214.375,257.063,223.08,256.089,232.844z
			"/>
		<circle fill-rule="evenodd" clip-rule="evenodd" fill="#0B2D46" cx="288.666" cy="226.941" r="17.767"/>
		<g>
			<g>
				<path fill-rule="evenodd" clip-rule="evenodd" fill="#FFFFFF" d="M197.804,247.82c0.307,2.679-1.617,5.101-4.295,5.407
					l-6.064,0.696c-2.678,0.306-5.1-1.615-5.404-4.296l-1.668-14.547c-0.309-2.679,1.614-5.101,4.294-5.408l6.063-0.696
					c2.676-0.307,5.098,1.616,5.405,4.294L197.804,247.82z"/>
				
					<linearGradient id="SVGID_2_" gradientUnits="userSpaceOnUse" x1="221.7764" y1="157.8438" x2="229.0549" y2="159.8967" gradientTransform="matrix(0.9951 0.0994 -0.0994 0.9951 -16.3425 62.1805)">
					<stop  offset="0" style="stop-color:#FFFFFF"/>
					<stop  offset="1" style="stop-color:#000000"/>
				</linearGradient>
				<path opacity="0.3" fill-rule="evenodd" clip-rule="evenodd" fill="url(#SVGID_2_)" d="M197.804,247.82l-1.67-14.549
					c-0.308-2.678-2.729-4.601-5.405-4.294l-6.063,0.696c-0.174,0.021-0.346,0.049-0.512,0.085c1.609,7.27,1.938,15.53-1.516,21.718
					c0.935,1.653,2.799,2.678,4.806,2.448l6.064-0.696C196.187,252.92,198.11,250.499,197.804,247.82z"/>
			</g>
			<g>
				<circle fill-rule="evenodd" clip-rule="evenodd" fill="#FFFFFF" cx="263.652" cy="198.324" r="9.519"/>
				<path fill-rule="evenodd" clip-rule="evenodd" fill="#FFFFFF" d="M267.28,170.009c0.494,3.916-2.278,7.497-6.199,7.991
					c-3.917,0.498-7.495-2.28-7.989-6.197c-0.5-3.921,2.276-7.497,6.194-7.991C263.206,163.315,266.784,166.089,267.28,170.009z"/>
				
					<rect x="260.829" y="174.882" transform="matrix(0.9921 -0.1253 0.1253 0.9921 -21.3313 34.3637)" fill-rule="evenodd" clip-rule="evenodd" fill="#FFFFFF" width="3.285" height="23.699"/>
			</g>
			
				<linearGradient id="SVGID_3_" gradientUnits="userSpaceOnUse" x1="292.8447" y1="94.8462" x2="296.5771" y2="93.8511" gradientTransform="matrix(0.9951 0.0994 -0.0994 0.9951 -16.3425 62.1805)">
				<stop  offset="0" style="stop-color:#FFFFFF"/>
				<stop  offset="1" style="stop-color:#000000"/>
			</linearGradient>
			<path opacity="0.2" fill-rule="evenodd" clip-rule="evenodd" fill="url(#SVGID_3_)" d="M273.096,197.131
				c-0.577-4.562-4.291-7.958-8.7-8.298l-1.437-11.343c2.886-1.213,4.732-4.226,4.321-7.481c-0.326-2.579-1.991-4.654-4.204-5.637
				c-0.743,9.814-3.881,20.375,1.471,29.226c1.856,4.158,4.008,9.636,2.854,13.47C271.206,205.438,273.643,201.443,273.096,197.131z
				"/>
			<path fill-rule="evenodd" clip-rule="evenodd" fill="#FFFFFF" d="M348.81,230.64c0.306,2.68-1.618,5.099-4.296,5.408
				l-6.063,0.695c-2.676,0.307-5.099-1.616-5.404-4.294l-1.67-14.549c-0.304-2.678,1.618-5.099,4.295-5.406l6.064-0.698
				c2.677-0.306,5.098,1.618,5.405,4.296L348.81,230.64z"/>
			
				<linearGradient id="SVGID_4_" gradientUnits="userSpaceOnUse" x1="378.9326" y1="127.7422" x2="363.7771" y2="124.2626" gradientTransform="matrix(0.9951 0.0994 -0.0994 0.9951 -16.3425 62.1805)">
				<stop  offset="0" style="stop-color:#FFFFFF"/>
				<stop  offset="1" style="stop-color:#000000"/>
			</linearGradient>
			<path opacity="0.3" fill-rule="evenodd" clip-rule="evenodd" fill="url(#SVGID_4_)" d="M347.141,216.092
				c-0.308-2.678-2.729-4.602-5.405-4.296l-6.064,0.698c-2.677,0.307-4.599,2.728-4.295,5.406l1.67,14.549
				c0.306,2.679,2.729,4.601,5.404,4.294l4.837-0.554c2.164-4.169,2.608-9.19,4.598-13.608L347.141,216.092z"/>
			<g>
				<path fill-rule="evenodd" clip-rule="evenodd" fill="#FFFFFF" d="M271.756,266.126c1.513,0.151,2.725,0.288,3.982,0.445
					l1.186-11.852l-11.724,2.593l-0.82,8.228C266.912,265.691,269.08,265.857,271.756,266.126z"/>
				
					<linearGradient id="SVGID_5_" gradientUnits="userSpaceOnUse" x1="299.5381" y1="168.4521" x2="310.9473" y2="168.4521" gradientTransform="matrix(0.9951 0.0994 -0.0994 0.9951 -16.3425 62.1805)">
					<stop  offset="0" style="stop-color:#FFFFFF"/>
					<stop  offset="1" style="stop-color:#000000"/>
				</linearGradient>
				<path opacity="0.3" fill-rule="evenodd" clip-rule="evenodd" fill="url(#SVGID_5_)" d="M271.756,266.126
					c1.513,0.151,2.725,0.288,3.982,0.445l1.186-11.852l-11.724,2.593l-0.82,8.228C266.912,265.691,269.08,265.857,271.756,266.126z
					"/>
				<g>
					<path fill-rule="evenodd" clip-rule="evenodd" fill="#FFFFFF" d="M366.746,249.886c-2.047-1.487-3.578-3.14-8.028-3.468
						c-4.457-0.332-10.297-0.297-14.506,3.753c-1.946,1.869-3.927,3.719-5.65,5.797c-6.41,7.724-13.518,14.705-21.699,20.552
						c-0.975,0.698-2.151,1.233-2.858,2.143c-2.641,3.385-5.029,6.957-5.828,11.295c-0.68,3.671,1.056,6.25,4.688,7.163
						c1.878,0.473,3.804,0.631,5.718,0.847c6.002,0.694,11.946,0.355,17.821-1.028c11.358-2.674,20.631-8.724,28.213-17.512
						c3.831-4.442,6.601-9.382,7.37-15.291C372.742,258.335,371.144,253.509,366.746,249.886z"/>
				</g>
				<g opacity="0.3">
					
						<linearGradient id="SVGID_6_" gradientUnits="userSpaceOnUse" x1="367.9854" y1="182.2627" x2="342.1233" y2="186.8806" gradientTransform="matrix(0.9951 0.0994 -0.0994 0.9951 -16.3425 62.1805)">
						<stop  offset="0" style="stop-color:#FFFFFF"/>
						<stop  offset="1" style="stop-color:#000000"/>
					</linearGradient>
					<path fill-rule="evenodd" clip-rule="evenodd" fill="url(#SVGID_6_)" d="M333.07,262.187
						c-4.938,5.271-10.287,10.103-16.208,14.333c-0.975,0.698-2.151,1.233-2.858,2.143c-2.641,3.385-5.029,6.957-5.828,11.295
						c-0.68,3.671,1.056,6.25,4.688,7.163c1.878,0.473,3.804,0.631,5.718,0.847c6.002,0.694,11.946,0.355,17.821-1.028
						c5.188-1.219,9.921-3.18,14.276-5.749C347.4,279.895,341.875,269.419,333.07,262.187z"/>
				</g>
				<g>
					<path fill-rule="evenodd" clip-rule="evenodd" fill="#FFFFFF" d="M172.083,315.462c1.825,1.277,3.195,2.712,7.129,2.935
						c3.929,0.219,9.074,0.096,12.718-3.534c1.687-1.679,3.399-3.335,4.89-5.196c5.523-6.902,11.675-13.163,18.789-18.443
						c0.846-0.626,1.88-1.12,2.486-1.933c2.275-3.021,4.321-6.206,4.961-10.035c0.538-3.248-1.028-5.495-4.245-6.241
						c-1.662-0.385-3.36-0.495-5.052-0.656c-5.293-0.516-10.529-0.125-15.68,1.181c-9.965,2.534-18.042,8.009-24.578,15.866
						c-3.31,3.974-5.671,8.369-6.257,13.586C166.67,308.116,168.148,312.34,172.083,315.462z"/>
				</g>
				<path fill-rule="evenodd" clip-rule="evenodd" fill="#FFFFFF" d="M305.968,307.081c6.53-8.431,10.695-16.652,11.081-20.515
					c0.987-9.892-20.177-17.876-46.998-20.555c-26.827-2.678-49.152,0.964-50.141,10.857c-0.492,4.92,3.633,17.986,11.198,30.213
					H305.968z"/>
				
					<linearGradient id="SVGID_7_" gradientUnits="userSpaceOnUse" x1="302.9053" y1="184.0879" x2="301.2884" y2="167.6917" gradientTransform="matrix(0.9951 0.0994 -0.0994 0.9951 -16.3425 62.1805)">
					<stop  offset="0" style="stop-color:#FFFFFF"/>
					<stop  offset="1" style="stop-color:#000000"/>
				</linearGradient>
				<path opacity="0.3" fill-rule="evenodd" clip-rule="evenodd" fill="url(#SVGID_7_)" d="M219.91,276.867
					c-0.248,2.488,0.685,7.061,2.643,12.555c30.132,2.953,65.103,5.451,91.112-10.07c-6.932-6.444-23.71-11.354-43.614-13.342
					C243.224,263.333,220.898,266.974,219.91,276.867z"/>
				<path fill-rule="evenodd" clip-rule="evenodd" fill="#FFFFFF" d="M342.659,227.823l-1.153-11.769
					c-1.277-12.996-12.18-22.566-24.35-21.371l-110.971,10.583c-12.175,1.189-21.001,12.699-19.731,25.698l1.159,11.766
					c1.277,12.998,12.176,22.565,24.348,21.374l110.971-10.584C335.105,252.329,343.937,240.819,342.659,227.823z M251.202,239.104
					c-3.474,5.116-10.601,7.064-16.204,4.428c-6.134-2.881-9.083-9.447-7.158-15.918c1.717-5.778,7.869-9.896,13.714-9.117
					c-2.911,2.52-3.704,5.143-2.437,7.922c1.084,2.373,3.677,3.817,6.238,3.475c3.129-0.415,4.881-2.401,5.465-6.199
					C254.292,226.935,254.474,234.289,251.202,239.104z M299.607,234.142c-3.393,4.989-10.345,6.889-15.808,4.319
					c-5.981-2.812-8.858-9.215-6.98-15.528c1.678-5.631,7.671-9.648,13.373-8.888c-2.837,2.456-3.612,5.016-2.374,7.723
					c1.057,2.316,3.585,3.726,6.083,3.393c3.052-0.405,4.765-2.345,5.331-6.046C302.619,222.275,302.796,229.448,299.607,234.142z"
					/>
				<path fill-rule="evenodd" clip-rule="evenodd" fill="#21527C" d="M255.316,307.081h15.976c2.104-1.954,3.381-4.583,3.186-7.322
					c-3.646-0.365-7.323-0.731-11.117-1.11c0.382-3.834,0.744-7.478,1.121-11.245c-6.582-0.884-12.266,4.149-12.692,11
					C251.582,301.696,253.01,304.841,255.316,307.081z"/>
				<path fill-rule="evenodd" clip-rule="evenodd" fill="#0B2D46" d="M266.887,284.33c6.848,0.264,12.156,6.792,11.168,13.44
					c-0.513,0-1.042,0.04-1.563-0.01c-3.505-0.337-7.012-0.694-10.838-1.076c0.222-2.221,0.426-4.26,0.629-6.296
					C266.481,288.409,266.678,286.436,266.887,284.33z"/>
			</g>
			<g>
				<path fill="#21527C" d="M257.547,228.922c-1.876,16.641-15.824,28.393-32.54,27.418c-16.712-0.973-28.351-16.502-27.417-32.539
					c0.979-16.713,16.503-28.353,32.543-27.418C246.842,197.361,258.481,212.887,257.547,228.922
					c-0.225,3.83,5.709,4.345,5.931,0.509c1.167-19.99-12.943-36.736-32.84-38.979c-19.895-2.241-36.829,13.754-38.979,32.844
					c-2.243,19.892,13.752,36.825,32.841,38.976c19.89,2.241,36.828-13.75,38.978-32.841
					C263.907,225.614,257.976,225.114,257.547,228.922z"/>
				<path fill="#21527C" d="M333.225,220.914c-1.875,16.641-15.82,28.393-32.539,27.417c-16.716-0.975-28.349-16.5-27.414-32.537
					c0.973-16.715,16.498-28.354,32.535-27.415C322.522,189.352,334.16,204.878,333.225,220.914
					c-0.224,3.828,5.708,4.345,5.932,0.509c1.167-19.987-12.943-36.738-32.841-38.978c-19.896-2.241-36.827,13.75-38.979,32.841
					c-2.24,19.895,13.751,36.829,32.84,38.979c19.894,2.241,36.829-13.753,38.979-32.842
					C339.587,217.602,333.651,217.104,333.225,220.914z"/>
				<path fill="#21527C" d="M262.082,225.326c2.213-0.294,4.42-0.584,6.634-0.874c1.609-0.207,2.666-1.939,2.385-3.471
					c-0.308-1.657-1.864-2.593-3.472-2.382c-2.213,0.29-4.421,0.579-6.634,0.868c-1.609,0.211-2.672,1.941-2.385,3.473
					C258.915,224.598,260.474,225.535,262.082,225.326L262.082,225.326z"/>
			</g>
		</g>
	</g>
</g>
<g>
	<polygon fill="#FFFFFF" points="340.713,610.736 312.224,625.289 306.3,613.609 334.788,599.058 	"/>
	
		<linearGradient id="SVGID_8_" gradientUnits="userSpaceOnUse" x1="-8008.4668" y1="-3250.4829" x2="-7994.3784" y2="-3250.4829" gradientTransform="matrix(-0.0844 0.4509 1.2154 0.2275 3592.0659 4968.8066)">
		<stop  offset="0" style="stop-color:#FFFFFF"/>
		<stop  offset="1" style="stop-color:#000000"/>
	</linearGradient>
	<polygon opacity="0.4" fill="url(#SVGID_8_)" enable-background="new    " points="312.224,625.289 329.604,616.488 306.3,613.609 
			"/>
	<rect x="120.675" y="665.646" fill="#FFFFFF" width="45.997" height="19.359"/>
	
		<linearGradient id="SVGID_9_" gradientUnits="userSpaceOnUse" x1="55.3945" y1="179.4902" x2="63.4061" y2="181.9366" gradientTransform="matrix(1 0 0 -1 91.1001 856.4004)">
		<stop  offset="0" style="stop-color:#FFFFFF"/>
		<stop  offset="1" style="stop-color:#000000"/>
	</linearGradient>
	<polygon opacity="0.4" fill="url(#SVGID_9_)" enable-background="new    " points="159.252,685.041 159.023,665.646 
		143.99,665.646 144.22,685.041 	"/>
	
		<linearGradient id="SVGID_10_" gradientUnits="userSpaceOnUse" x1="-888.5952" y1="179.4912" x2="-880.5845" y2="181.9372" gradientTransform="matrix(-1.0141 0 0 -1 -766.9678 856.4004)">
		<stop  offset="0" style="stop-color:#FFFFFF"/>
		<stop  offset="1" style="stop-color:#000000"/>
	</linearGradient>
	<polygon opacity="0.4" fill="url(#SVGID_10_)" enable-background="new    " points="121.22,685.041 121.451,665.646 
		136.695,665.646 136.463,685.041 	"/>
	<path fill="#FFFFFF" d="M127.977,615.017l-30.764,77.173c0.691,0.309,0.979,1.006,0.796,1.752h26.034l31.465-78.926
		L127.977,615.017L127.977,615.017z"/>
	<path fill="#FFFFFF" d="M255.537,635.232c-5.887-6.545-12.941-9.793-21.162-9.793h-42.479v68.502h42.479
		c8.296,0,15.367-3.881,21.221-10.424c5.851-6.551,8.774-14.865,8.774-24.375C264.37,649.941,261.428,641.783,255.537,635.232z
		 M236.695,665.854c-1.831,1.91-4.037,2.771-6.617,2.771h-13.699v-19.359h13.699c2.58,0,4.786,0.91,6.617,2.82
		c1.831,1.909,2.749,4.127,2.749,6.795C239.444,661.669,238.526,663.947,236.695,665.854z"/>
	<path fill="#FFFFFF" d="M304.517,621.375c-20.302,0-36.759,16.519-36.759,36.892c0,20.377,16.457,36.895,36.759,36.895
		c20.301,0,36.758-16.518,36.758-36.895C341.273,637.894,324.816,621.375,304.517,621.375z M303.871,671.257
		c-6.791,0-12.297-5.527-12.297-12.343c0-6.814,5.506-12.342,12.297-12.342c6.79,0,12.297,5.527,12.297,12.342
		C316.168,665.729,310.661,671.257,303.871,671.257z"/>
	
		<linearGradient id="SVGID_11_" gradientUnits="userSpaceOnUse" x1="40.7236" y1="218.1621" x2="47.9829" y2="222.7145" gradientTransform="matrix(1 0 0 -1 91.1001 856.4004)">
		<stop  offset="0" style="stop-color:#FFFFFF"/>
		<stop  offset="1" style="stop-color:#000000"/>
	</linearGradient>
	<polygon opacity="0.4" fill="url(#SVGID_11_)" enable-background="new    " points="151.735,624.316 137.496,660.261 
		114.045,651.136 127.977,615.07 	"/>
	<path fill="#FFFFFF" d="M186.873,693.013c0.084-0.254,0.248-0.463,0.453-0.615l-30.836-77.381h-27.531l31.464,78.926h26.142
		C186.668,693.941,186.77,693.337,186.873,693.013z"/>
	
		<linearGradient id="SVGID_12_" gradientUnits="userSpaceOnUse" x1="-848.8984" y1="-6500.1172" x2="-843.2329" y2="-6500.1172" gradientTransform="matrix(-1 0 0 1 -627.9004 7181.4004)">
		<stop  offset="0" style="stop-color:#FFFFFF"/>
		<stop  offset="1" style="stop-color:#000000"/>
	</linearGradient>
	<rect x="214.152" y="668.625" opacity="0.4" fill="url(#SVGID_12_)" enable-background="new    " width="10.387" height="25.316"/>
	<rect x="191.896" y="625.439" fill="#FFFFFF" width="24.481" height="68.502"/>
	
		<linearGradient id="SVGID_13_" gradientUnits="userSpaceOnUse" x1="217.2734" y1="178.1982" x2="229.668" y2="178.1982" gradientTransform="matrix(1 0 0 -1 91.1001 856.4004)">
		<stop  offset="0" style="stop-color:#FFFFFF"/>
		<stop  offset="1" style="stop-color:#000000"/>
	</linearGradient>
	<path opacity="0.4" fill="url(#SVGID_13_)" enable-background="new    " d="M320.326,664.519l-4.249-3.084
		c-0.872,4.225-3.995,7.656-7.704,9.092v24.443c4.451-0.427,8.537-1.642,12.396-3.527L320.326,664.519z"/>
	<rect x="316.082" y="657.455" fill="#FFFFFF" width="24.935" height="37.23"/>
	<rect x="346.951" y="622.46" fill="#FFFFFF" width="19.289" height="68.502"/>
	<rect x="398.142" y="622.46" fill="#FFFFFF" width="17.063" height="72.227"/>
	
		<linearGradient id="SVGID_14_" gradientUnits="userSpaceOnUse" x1="263.4238" y1="212.1689" x2="268.5742" y2="215.296" gradientTransform="matrix(1 0 0 -1 91.1001 856.4004)">
		<stop  offset="0" style="stop-color:#FFFFFF"/>
		<stop  offset="1" style="stop-color:#000000"/>
	</linearGradient>
	<polygon opacity="0.4" fill="url(#SVGID_14_)" enable-background="new    " points="347.24,623.953 347.944,636.832 366.24,661.82 
		366.24,654.728 370.455,651.531 	"/>
	
		<linearGradient id="SVGID_15_" gradientUnits="userSpaceOnUse" x1="-617.501" y1="-6464.4927" x2="-612.4932" y2="-6461.4526" gradientTransform="matrix(-1 0 0 1 -208.5977 7139.2715)">
		<stop  offset="0" style="stop-color:#FFFFFF"/>
		<stop  offset="1" style="stop-color:#000000"/>
	</linearGradient>
	<polygon opacity="0.4" fill="url(#SVGID_15_)" enable-background="new    " points="415.205,694.687 415.205,681.814 
		398.142,657.58 398.142,663.476 393.773,668.275 	"/>
	<polygon fill="#FFFFFF" points="415.205,694.687 388.249,694.687 347.24,622.46 375.72,622.46 	"/>
	<path fill="#FFFFFF" d="M341.017,695.451c0,1.254-0.718,1.468-1.959,1.468h-19.908c-1.24,0-3.066-0.214-3.066-1.468v-10.244
		c0-1.252,1.826-2.434,3.066-2.434h19.908c1.241,0,1.959,1.182,1.959,2.434V695.451z"/>
	<path fill="#FFFFFF" d="M216.379,694.195c0,1.252-0.736,1.98-2.041,1.98h-19.279c-1.302,0-3.161-0.729-3.161-1.98v-10.244
		c0-1.254,1.859-1.924,3.161-1.924h19.279c1.305,0,2.041,0.67,2.041,1.924V694.195z"/>
	<path fill="#FFFFFF" d="M172.787,680.539h-9.863c-1.254,0-2.929,1.234-2.929,2.488v10.252c0,1.252,1.675,2.15,2.929,2.15h22.757
		c1.256,0,1.99-0.703,1.99-1.955l-1.482-3.916L172.787,680.539z"/>
	<path fill="#FFFFFF" d="M111.738,680.539h9.902c1.259,0,2.743,1.234,2.743,2.488v10.252c0,1.252-1.484,2.15-2.743,2.15H98.792
		c-1.26,0-1.997-0.703-1.997-1.955l1.489-3.916L111.738,680.539z"/>
	<path fill="#FFFFFF" d="M366.24,695.425c0,1.271-1.06,1.494-2.43,1.494h-13.834c-1.369,0-3.025-0.224-3.025-1.494v-10.396
		c0-1.27,1.656-2.256,3.025-2.256h13.834c1.37,0,2.43,0.986,2.43,2.256V695.425z"/>
	<path fill="#FFFFFF" d="M415.205,632.479c0,1.209-1.021,1.896-2.305,1.896h-11.967c-1.283,0-2.793-0.688-2.793-1.896v-9.9
		c0-1.211,1.51-2.352,2.793-2.352H412.9c1.283,0,2.305,1.141,2.305,2.352V632.479z"/>
</g>
<g>
	<g>
		<polygon fill="#2EA1A1" points="364.473,308.987 147.409,308.987 107.156,354.168 412.622,354.168 		"/>
		<rect x="107.156" y="353.132" fill="#005550" width="304.865" height="8.438"/>
	</g>
	<g>
		<g>
			<polygon fill="#0B2D46" points="331.752,313.328 289.576,313.328 311.431,349.827 370.78,349.827 			"/>
			<polygon fill="#FFFFFF" points="330.229,314.008 288.057,314.008 309.911,351.657 369.264,351.657 			"/>
		</g>
		<polygon fill="#0B2D46" points="317.852,309.857 275.676,309.857 297.529,346.36 356.883,346.36 		"/>
		<polygon fill="#FFFFFF" points="316.959,311.497 274.782,311.497 296.637,346.637 355.989,346.637 		"/>
	</g>
</g>
<g>
	<rect x="161.265" y="283.598" fill="#EAF2F6" width="22.914" height="58.327"/>
	<polygon fill="#668FAD" points="213.489,311.183 184.179,341.924 184.179,283.598 214.872,264.064 	"/>
	<polygon fill="#FFFFFF" points="214.732,264.397 184.179,283.598 161.003,283.598 191.672,264.397 	"/>
	<polygon fill="#0B2D46" points="197.944,268.741 182.616,278.531 176.77,278.531 192.123,268.741 	"/>
</g>
<g>
	<rect x="120.992" y="363.501" fill="#005550" width="12.503" height="158.789"/>
	<rect x="384.808" y="363.501" fill="#005550" width="12.504" height="158.789"/>
</g>
<g>
	<rect x="161.003" y="363.501" fill="#8C5500" width="8.752" height="103.774"/>
	<rect x="333.545" y="363.501" fill="#8C5500" width="7.502" height="103.774"/>
</g>
<g>
	<rect x="150.18" y="363.501" fill="#FFFFFF" width="216.131" height="122.101"/>
	<g>
		<path fill="#0B2D46" d="M222.186,447.669c-0.877,1.119-1.99,1.677-3.337,1.677c-1.375,0-2.515-0.558-3.417-1.677
			c-0.903-1.119-1.353-2.55-1.353-4.296s0.449-3.193,1.353-4.342c0.902-1.149,2.042-1.723,3.417-1.723
			c1.347,0,2.46,0.557,3.337,1.679c0.873,1.116,1.312,2.562,1.312,4.339C223.497,445.103,223.059,446.55,222.186,447.669
			 M229.238,432.026c-2.641-2.875-6.103-4.315-10.39-4.315s-7.751,1.44-10.391,4.315c-2.643,2.88-3.962,6.661-3.962,11.343
			c0,4.656,1.319,8.419,3.962,11.298c2.64,2.878,6.104,4.319,10.391,4.319s7.749-1.441,10.39-4.319
			c2.642-2.879,3.963-6.642,3.963-11.298C233.201,438.688,231.88,434.906,229.238,432.026"/>
		<polygon fill="#0B2D46" points="263.374,427.718 253.669,427.718 253.669,443.52 245.143,427.718 235.312,427.718 
			235.312,458.993 245.099,458.993 245.059,443.708 253.334,458.993 263.374,458.993 		"/>
		<path fill="#0B2D46" d="M278.981,440.825c-0.497,0.544-1.173,0.814-2.025,0.814h-1.837v-5.51h2.265
			c0.652,0,1.209,0.24,1.661,0.718c0.455,0.479,0.684,1.069,0.684,1.773C279.729,439.548,279.479,440.282,278.981,440.825
			 M286.35,430.861c-1.995-2.107-4.543-3.16-7.647-3.16h-13.624v31.292h10.041v-9.424h5.236c2.697,0,4.866-0.973,6.514-2.918
			c1.644-1.943,2.467-4.515,2.467-7.704C289.336,435.66,288.342,432.967,286.35,430.861"/>
		<polygon fill="#0B2D46" points="310.187,450.225 301.367,450.225 301.367,447.345 309.158,447.345 309.158,439.166 
			301.367,439.166 301.367,436.144 309.928,436.144 309.928,427.716 291.303,427.716 291.303,459.009 310.187,459.009 		"/>
		<rect x="235.363" y="382.388" fill="#D6E4EA" width="43.954" height="43.85"/>
		<path fill="#0B2D46" d="M269.802,392.767l1.285,5.038c0,0,4.544-5.907,2.813-10.715c0,0-0.989-2.801-2.774-4.702h-3.938
			c0,0,3.8,3.753,3.68,6.716C270.746,392.067,269.802,392.767,269.802,392.767"/>
		<polygon fill="#FFFFFF" points="255.861,435.745 249.651,411.158 252.887,407.748 255.055,414.304 258.589,414.969 
			261.167,411.46 265.419,414.215 268.387,411.408 265.158,393.869 270.019,392.637 279.317,429.883 		"/>
		<path fill="#0B2D46" d="M235.363,382.388v15.152c0,0,0.426,3.413,1.555,7.73s1.528,8.17,5.182,7.572c0,0,2.416-0.227,2.847-1.8
			c0,0,2.249,1.39,4.415,0.777c2.168-0.614,3.067-2.188,3.067-2.188s1.08,4.189,1.552,5.234c0.477,1.041,2.569,1.798,4.191,1.41
			c1.621-0.39,3.454-2.837,3.454-2.837s1.964,2.734,5.07,1.485c0,0,3.21-1.478,2.719-3.738c-0.49-2.265-4.772-19.994-4.772-19.994
			l-2.841,0.706l4.485,17.836c0,0,0.777,2.534-0.816,2.984c0,0-1.472,0.328-1.881-0.981c-0.409-1.308-3.292-13.388-3.292-13.388
			l-3.198,0.802l2.443,10.378c0,0,0.899,3.026-1.125,3.74c0,0-2.429,0.859-3.128-2.021c-0.702-2.883-2.778-10.958-2.778-10.958
			l-3.171,0.754l0.9,3.947c0,0,0.88,2.966-0.981,3.743c-1.859,0.775-2.884-0.595-3.105-1.413c-0.227-0.818-1.176-5.162-1.176-5.162
			l-2.975,0.756l1.104,4.448c0,0,0.514,1.799-0.785,2.146c-1.301,0.346-1.708-1.104-1.874-1.586
			c-0.166-0.477-2.073-6.171-2.437-8.344c-0.363-2.177-1.426-9.519-1.471-10.993c-0.045-1.474-0.259-3.635,0.389-6.2H235.363z"/>
	</g>
</g>
</svg>
