<?xml version="1.0" encoding="utf-8"?>
<!-- Generator: Adobe Illustrator 16.0.0, SVG Export Plug-In . SVG Version: 6.00 Build 0)  -->
<!DOCTYPE svg PUBLIC "-//W3C//DTD SVG 1.1//EN" "http://www.w3.org/Graphics/SVG/1.1/DTD/svg11.dtd">
<svg version="1.1" id="Capa_1" xmlns="http://www.w3.org/2000/svg" xmlns:xlink="http://www.w3.org/1999/xlink" x="0px" y="0px"
	 width="512px" height="768px" viewBox="0 0 512 768" enable-background="new 0 0 512 768" xml:space="preserve">
<rect x="0" y="16" fill="#0B2D46" width="512" height="733"/>
<linearGradient id="SVGID_1_" gradientUnits="userSpaceOnUse" x1="236.6985" y1="221.5339" x2="249.8997" y2="221.5339" gradientTransform="matrix(1 0 0 -1 91.1001 855.4009)">
	<stop  offset="0" style="stop-color:#FFFFFF"/>
	<stop  offset="1" style="stop-color:#000000"/>
</linearGradient>
<path opacity="0.3" fill="url(#SVGID_1_)" enable-background="new    " d="M327.799,630.734c4.227,2.065,9.996,3.595,13.201,6.267
	C336.66,633.311,332.225,631.367,327.799,630.734z"/>
<g opacity="0.3">
	<g opacity="0.95">
		<g>
			<path fill="#21527C" d="M53.85,383.075v40.661H29.34l0.024,65.771h30.335h21.655v-22.722h15.547v22.722h25.113V383.075H53.85z
				 M44.886,428.52h7.769v5.979h-7.769V428.52z M44.886,439.281h7.769v5.979h-7.769V439.281z M44.886,451.24h7.769v7.175h-7.769
				V451.24z M44.886,463.198h7.769v5.979h-7.769V463.198z M34.717,428.52h6.581v5.979h-6.581V428.52z M34.717,439.281h6.581v5.979
				h-6.581V439.281z M34.717,451.24h6.581v7.175h-6.581V451.24z M34.717,463.198h6.581v5.979h-6.581V463.198z M75.377,456.024
				H63.418V445.26h11.959V456.024z M75.377,436.891H63.418V424.93h11.959V436.891z M75.377,420.147H63.418v-11.959h11.959V420.147z
				 M75.377,401.015H63.418v-10.763h11.959V401.015z M94.51,456.024H83.746V445.26H94.51V456.024z M94.51,436.891H83.746V424.93
				H94.51V436.891z M94.51,420.147H83.746v-11.959H94.51V420.147z M94.51,401.015H83.746v-10.763H94.51V401.015z M113.643,456.024
				H102.88V445.26h10.764V456.024z M113.643,436.891H102.88V424.93h10.764V436.891z M113.643,420.147H102.88v-11.959h10.764V420.147
				z M113.643,401.015H102.88v-10.763h10.764V401.015z"/>
			<g>
				<g>
					<path fill="#21527C" d="M71.306,413.555c-0.046-0.279,0.164-0.615,0.458-0.76c-0.489-0.562-1.208-0.918-2.014-0.918
						c-1.472,0-2.666,1.193-2.666,2.666s1.194,2.665,2.666,2.665c0.248,0,0.485-0.033,0.711-0.095
						C71.514,416.322,71.615,414.911,71.306,413.555z"/>
				</g>
				<g>
					<path fill="#21527C" d="M72.417,414.543c0-0.67-0.247-1.279-0.652-1.748c-0.294,0.145-0.557,0.479-0.509,0.76
						c0.31,1.356,0.208,2.768-0.845,3.56C71.538,416.803,72.417,415.771,72.417,414.543z"/>
				</g>
				<g>
					<path fill="#21527C" d="M66.835,414.022c0.166-0.059,0.386-0.034,0.571,0.045c0-0.257-0.081-0.686,0-0.771
						c0.718-0.35,1.597,0.388,2.309,0.152v-2.471C67.445,410.978,66.836,412.344,66.835,414.022z"/>
				</g>
				<g>
					<path fill="#21527C" d="M72.488,414.022c-0.164-0.059-0.386-0.034-0.57,0.045c0-0.257,0.08-0.686,0-0.771
						c-0.719-0.35-1.543,0.388-2.256,0.152v-2.471C71.935,410.978,72.487,412.344,72.488,414.022z"/>
				</g>
				<g>
					<ellipse fill="#21527C" cx="72.418" cy="414.75" rx="0.445" ry="0.979"/>
				</g>
				<g>
					<ellipse fill="#21527C" cx="67.085" cy="414.75" rx="0.445" ry="0.979"/>
				</g>
				<g>
					<path fill="#21527C" d="M69.708,417.448c-0.496,0-0.963-0.131-1.365-0.359c-0.05,0.029-0.097,0.062-0.144,0.094l1.281,2.564
						l0.265-0.394c0.026-0.671,0.029-1.35,0.311-1.929C69.941,417.44,69.826,417.448,69.708,417.448z"/>
				</g>
				<g>
					<path fill="#21527C" d="M71.072,417.089c-0.307,0.175-0.651,0.292-1.018,0.337c-0.28,0.579-0.283,1.258-0.311,1.929
						l1.463-2.179C71.163,417.147,71.12,417.116,71.072,417.089z"/>
				</g>
				<g>
					<path fill="#21527C" d="M69.48,419.747l-1.281-2.564c-0.28,0.19-0.514,0.396-0.763,0.532c-1.168,0.646-1.324,1.473-1.324,2.426
						h3.571c0.036-0.256,0.052-0.521,0.062-0.786L69.48,419.747z"/>
				</g>
				<g>
					<path fill="#21527C" d="M71.98,417.715c-0.251-0.139-0.488-0.347-0.772-0.539l-1.463,2.179c-0.01,0.266-0.024,0.53-0.062,0.786
						h3.621C73.306,419.188,73.147,418.36,71.98,417.715z"/>
				</g>
			</g>
		</g>
	</g>
	<g opacity="0.95">
		<g>
			<path fill="#21527C" d="M146.523,383.075v40.661h-24.509l0.021,65.771h30.337h21.655v-22.722h15.544v22.722h25.115V383.075
				H146.523z M137.562,428.52h7.768v5.979h-7.768V428.52z M137.562,439.281h7.768v5.979h-7.768V439.281z M137.562,451.24h7.768
				v7.175h-7.768V451.24z M137.562,463.198h7.768v5.979h-7.768V463.198z M127.391,428.52h6.581v5.979h-6.581V428.52z
				 M127.391,439.281h6.581v5.979h-6.581V439.281z M127.391,451.24h6.581v7.175h-6.581V451.24z M127.391,463.198h6.581v5.979h-6.581
				V463.198z M168.05,456.024h-11.958V445.26h11.958V456.024L168.05,456.024z M168.05,436.891h-11.958V424.93h11.958V436.891
				L168.05,436.891z M168.05,420.147h-11.958v-11.959h11.958V420.147L168.05,420.147z M168.05,401.015h-11.958v-10.763h11.958
				V401.015L168.05,401.015z M187.186,456.024h-10.766V445.26h10.766V456.024z M187.186,436.891h-10.766V424.93h10.766V436.891z
				 M187.186,420.147h-10.766v-11.959h10.766V420.147z M187.186,401.015h-10.766v-10.763h10.766V401.015z M206.315,456.024h-10.761
				V445.26h10.761V456.024z M206.315,436.891h-10.761V424.93h10.761V436.891z M206.315,420.147h-10.761v-11.959h10.761V420.147z
				 M206.315,401.015h-10.761v-10.763h10.761V401.015z"/>
			<g>
				<g>
					<path fill="#21527C" d="M163.98,413.555c-0.048-0.279,0.163-0.615,0.457-0.76c-0.488-0.562-1.208-0.918-2.013-0.918
						c-1.472,0-2.667,1.193-2.667,2.666s1.195,2.665,2.667,2.665c0.247,0,0.484-0.033,0.708-0.095
						C164.188,416.322,164.289,414.911,163.98,413.555z"/>
				</g>
				<g>
					<path fill="#21527C" d="M165.092,414.543c0-0.67-0.247-1.279-0.653-1.748c-0.294,0.145-0.556,0.479-0.509,0.76
						c0.308,1.356,0.208,2.768-0.846,3.56C164.211,416.803,165.092,415.771,165.092,414.543z"/>
				</g>
				<g>
					<path fill="#21527C" d="M159.508,414.022c0.167-0.059,0.386-0.034,0.571,0.045c0-0.257-0.08-0.686,0-0.771
						c0.719-0.35,1.6,0.388,2.312,0.152v-2.471C160.119,410.978,159.51,412.344,159.508,414.022z"/>
				</g>
				<g>
					<path fill="#21527C" d="M165.163,414.022c-0.166-0.059-0.385-0.034-0.571,0.045c0-0.257,0.08-0.686,0-0.771
						c-0.718-0.35-1.542,0.388-2.254,0.152v-2.471C164.607,410.978,165.161,412.344,165.163,414.022z"/>
				</g>
				<g>
					<ellipse fill="#21527C" cx="165.091" cy="414.75" rx="0.446" ry="0.979"/>
				</g>
				<g>
					<ellipse fill="#21527C" cx="159.759" cy="414.75" rx="0.446" ry="0.979"/>
				</g>
				<g>
					<path fill="#21527C" d="M162.382,417.448c-0.495,0-0.964-0.131-1.362-0.359c-0.052,0.029-0.099,0.062-0.146,0.094l1.282,2.564
						l0.264-0.394c0.026-0.671,0.03-1.35,0.313-1.929C162.615,417.44,162.5,417.448,162.382,417.448z"/>
				</g>
				<g>
					<path fill="#21527C" d="M163.747,417.089c-0.308,0.175-0.651,0.292-1.017,0.337c-0.281,0.579-0.285,1.258-0.313,1.929
						l1.464-2.179C163.837,417.147,163.793,417.116,163.747,417.089z"/>
				</g>
				<g>
					<path fill="#21527C" d="M162.155,419.747l-1.282-2.564c-0.278,0.19-0.515,0.396-0.764,0.532
						c-1.166,0.646-1.325,1.473-1.323,2.426h3.57c0.036-0.256,0.052-0.521,0.063-0.786L162.155,419.747z"/>
				</g>
				<g>
					<path fill="#21527C" d="M164.654,417.715c-0.251-0.139-0.487-0.347-0.771-0.539l-1.464,2.179
						c-0.011,0.266-0.025,0.53-0.063,0.786h3.621C165.979,419.188,165.822,418.36,164.654,417.715z"/>
				</g>
			</g>
		</g>
	</g>
	<g opacity="0.95">
		<g>
			<path fill="#21527C" d="M329.87,383.271v40.659h-24.511l0.022,65.771h30.339h21.653V466.98h15.546V489.7h25.113v-106.43H329.87z
				 M320.906,428.713h7.768v5.979h-7.768V428.713z M320.906,439.477h7.768v5.979h-7.768V439.477z M320.906,451.436h7.768v7.174
				h-7.768V451.436z M320.906,463.393h7.768v5.979h-7.768V463.393z M310.735,428.713h6.582v5.979h-6.582V428.713z M310.735,439.477
				h6.582v5.979h-6.582V439.477z M310.735,451.436h6.582v7.174h-6.582V451.436z M310.735,463.393h6.582v5.979h-6.582V463.393z
				 M351.396,456.219h-11.96v-10.765h11.96V456.219z M351.396,437.084h-11.96v-11.959h11.96V437.084z M351.396,420.344h-11.96
				v-11.959h11.96V420.344z M351.396,401.209h-11.96v-10.765h11.96V401.209z M370.53,456.219h-10.765v-10.765h10.765V456.219z
				 M370.53,437.084h-10.765v-11.959h10.765V437.084z M370.53,420.344h-10.765v-11.959h10.765V420.344z M370.53,401.209h-10.765
				v-10.765h10.765V401.209z M389.663,456.219H378.9v-10.765h10.763V456.219z M389.663,437.084H378.9v-11.959h10.763V437.084z
				 M389.663,420.344H378.9v-11.959h10.763V420.344z M389.663,401.209H378.9v-10.765h10.763V401.209z"/>
			<g>
				<g>
					<path fill="#21527C" d="M347.326,413.747c-0.047-0.277,0.164-0.612,0.457-0.759c-0.489-0.561-1.207-0.919-2.011-0.919
						c-1.475,0-2.668,1.195-2.668,2.668c0,1.474,1.193,2.665,2.668,2.665c0.246,0,0.481-0.034,0.709-0.095
						C347.536,416.519,347.636,415.107,347.326,413.747z"/>
				</g>
				<g>
					<path fill="#21527C" d="M348.438,414.738c0-0.671-0.249-1.281-0.655-1.749c-0.293,0.146-0.555,0.48-0.508,0.759
						c0.308,1.359,0.208,2.771-0.845,3.562C347.558,416.995,348.438,415.965,348.438,414.738z"/>
				</g>
				<g>
					<path fill="#21527C" d="M342.855,414.217c0.166-0.06,0.385-0.035,0.569,0.045c0-0.258-0.079-0.688,0-0.772
						c0.719-0.35,1.599,0.389,2.311,0.152v-2.471C343.465,411.171,342.856,412.539,342.855,414.217z"/>
				</g>
				<g>
					<path fill="#21527C" d="M348.51,414.217c-0.166-0.06-0.388-0.035-0.572,0.045c0-0.258,0.08-0.688,0-0.772
						c-0.718-0.35-1.543,0.389-2.256,0.152v-2.471C347.954,411.171,348.507,412.539,348.51,414.217z"/>
				</g>
				<g>
					<ellipse fill="#21527C" cx="348.438" cy="414.943" rx="0.445" ry="0.979"/>
				</g>
				<g>
					<ellipse fill="#21527C" cx="343.105" cy="414.943" rx="0.446" ry="0.979"/>
				</g>
				<g>
					<path fill="#21527C" d="M345.729,417.643c-0.497,0-0.963-0.13-1.365-0.359c-0.049,0.03-0.097,0.062-0.144,0.095l1.281,2.563
						l0.264-0.393c0.026-0.671,0.03-1.351,0.311-1.93C345.961,417.636,345.847,417.643,345.729,417.643z"/>
				</g>
				<g>
					<path fill="#21527C" d="M347.093,417.282c-0.307,0.177-0.65,0.292-1.018,0.337c-0.279,0.579-0.283,1.259-0.311,1.93
						l1.464-2.179C347.184,417.34,347.14,417.311,347.093,417.282z"/>
				</g>
				<g>
					<path fill="#21527C" d="M345.502,419.941l-1.281-2.563c-0.28,0.19-0.516,0.396-0.765,0.531
						c-1.167,0.646-1.324,1.474-1.322,2.428h3.569c0.036-0.259,0.052-0.521,0.063-0.787L345.502,419.941z"/>
				</g>
				<g>
					<path fill="#21527C" d="M348,417.908c-0.251-0.139-0.486-0.345-0.771-0.538l-1.464,2.179c-0.011,0.267-0.025,0.528-0.063,0.787
						h3.622C349.325,419.382,349.167,418.554,348,417.908z"/>
				</g>
			</g>
		</g>
	</g>
	<g opacity="0.95">
		<g>
			<path fill="#21527C" d="M422.546,383.271v40.659h-24.512l0.024,65.771h30.335h21.655V466.98h15.547V489.7h25.11v-106.43H422.546z
				 M413.581,428.713h7.77v5.979h-7.77V428.713z M413.581,439.477h7.77v5.979h-7.77V439.477z M413.581,451.436h7.77v7.174h-7.77
				V451.436z M413.581,463.393h7.77v5.979h-7.77V463.393z M403.41,428.713h6.582v5.979h-6.582V428.713z M403.41,439.477h6.582v5.979
				h-6.582V439.477z M403.41,451.436h6.582v7.174h-6.582V451.436z M403.41,463.393h6.582v5.979h-6.582V463.393z M444.069,456.219
				H432.11v-10.765h11.959V456.219z M444.069,437.084H432.11v-11.959h11.959V437.084z M444.069,420.344H432.11v-11.959h11.959
				V420.344z M444.069,401.209H432.11v-10.765h11.959V401.209z M463.203,456.219h-10.762v-10.765h10.762V456.219z M463.203,437.084
				h-10.762v-11.959h10.762V437.084z M463.203,420.344h-10.762v-11.959h10.762V420.344z M463.203,401.209h-10.762v-10.765h10.762
				V401.209z M482.337,456.219h-10.761v-10.765h10.761V456.219z M482.337,437.084h-10.761v-11.959h10.761V437.084z M482.337,420.344
				h-10.761v-11.959h10.761V420.344z M482.337,401.209h-10.761v-10.765h10.761V401.209z"/>
			<g>
				<g>
					<path fill="#21527C" d="M440,413.747c-0.047-0.277,0.166-0.612,0.459-0.759c-0.489-0.561-1.209-0.919-2.014-0.919
						c-1.473,0-2.666,1.195-2.666,2.668c0,1.474,1.193,2.665,2.666,2.665c0.247,0,0.484-0.034,0.709-0.095
						C440.209,416.519,440.309,415.107,440,413.747z"/>
				</g>
				<g>
					<path fill="#21527C" d="M441.111,414.738c0-0.671-0.247-1.281-0.652-1.749c-0.294,0.146-0.557,0.48-0.511,0.759
						c0.309,1.359,0.208,2.771-0.843,3.562C440.23,416.995,441.111,415.965,441.111,414.738z"/>
				</g>
				<g>
					<path fill="#21527C" d="M435.529,414.217c0.165-0.06,0.386-0.035,0.569,0.045c0-0.258-0.078-0.688,0-0.772
						c0.72-0.35,1.6,0.389,2.313,0.152v-2.471C436.139,411.171,435.53,412.539,435.529,414.217z"/>
				</g>
				<g>
					<path fill="#21527C" d="M441.183,414.217c-0.167-0.06-0.385-0.035-0.571,0.045c0-0.258,0.08-0.688,0-0.772
						c-0.717-0.35-1.542,0.389-2.255,0.152v-2.471C440.628,411.171,441.182,412.539,441.183,414.217z"/>
				</g>
				<g>
					<ellipse fill="#21527C" cx="441.111" cy="414.943" rx="0.446" ry="0.979"/>
				</g>
				<g>
					<ellipse fill="#21527C" cx="435.78" cy="414.943" rx="0.445" ry="0.979"/>
				</g>
				<g>
					<path fill="#21527C" d="M438.402,417.643c-0.497,0-0.962-0.13-1.364-0.359c-0.05,0.03-0.099,0.062-0.146,0.095l1.283,2.563
						l0.262-0.393c0.028-0.671,0.032-1.351,0.311-1.93C438.635,417.636,438.52,417.643,438.402,417.643z"/>
				</g>
				<g>
					<path fill="#21527C" d="M439.767,417.282c-0.306,0.177-0.652,0.292-1.02,0.337c-0.277,0.579-0.281,1.259-0.311,1.93
						l1.465-2.179C439.858,417.34,439.813,417.311,439.767,417.282z"/>
				</g>
				<g>
					<path fill="#21527C" d="M438.177,419.941l-1.283-2.563c-0.279,0.19-0.515,0.396-0.762,0.531
						c-1.168,0.646-1.326,1.474-1.325,2.428h3.571c0.034-0.259,0.051-0.521,0.061-0.787L438.177,419.941z"/>
				</g>
				<g>
					<path fill="#21527C" d="M440.675,417.908c-0.251-0.139-0.486-0.345-0.771-0.538l-1.465,2.179
						c-0.01,0.267-0.025,0.528-0.061,0.787h3.62C442,419.382,441.843,418.554,440.675,417.908z"/>
				</g>
			</g>
		</g>
	</g>
	<g opacity="0.95">
		<g>
			<path fill="#21527C" d="M212.686,383.271v106.431h25.111v-22.721h15.548v22.721H275h30.336l0.023-65.771h-24.51v-40.659
				L212.686,383.271L212.686,383.271z M289.813,434.693h-7.769v-5.979h7.769V434.693z M289.813,445.454h-7.769v-5.979h7.769V445.454
				z M289.813,458.609h-7.769v-7.174h7.769V458.609z M289.813,469.372h-7.769v-5.979h7.769V469.372z M299.983,434.693H293.4v-5.979
				h6.583V434.693z M299.983,445.454H293.4v-5.979h6.583V445.454z M299.983,458.609H293.4v-7.174h6.583V458.609z M299.983,469.372
				H293.4v-5.979h6.583V469.372z M259.324,445.454h11.959v10.765h-11.959V445.454L259.324,445.454z M259.324,425.125h11.959v11.959
				h-11.959V425.125L259.324,425.125z M259.324,408.385h11.959v11.959h-11.959V408.385L259.324,408.385z M259.324,390.445h11.959
				v10.765h-11.959V390.445L259.324,390.445z M240.19,445.454h10.763v10.765H240.19V445.454z M240.19,425.125h10.763v11.959H240.19
				V425.125z M240.19,408.385h10.763v11.959H240.19V408.385z M240.19,390.445h10.763v10.765H240.19V390.445z M221.057,445.454
				h10.763v10.765h-10.763V445.454z M221.057,425.125h10.763v11.959h-10.763V425.125z M221.057,408.385h10.763v11.959h-10.763
				V408.385z M221.057,390.445h10.763v10.765h-10.763V390.445z"/>
			<g>
				<g>
					<path fill="#21527C" d="M263.396,413.747c0.044-0.277-0.166-0.612-0.462-0.759c0.49-0.561,1.211-0.919,2.015-0.919
						c1.473,0,2.666,1.195,2.666,2.668c0,1.474-1.193,2.665-2.666,2.665c-0.247,0-0.484-0.034-0.71-0.095
						C263.186,416.519,263.085,415.107,263.396,413.747z"/>
				</g>
				<g>
					<path fill="#21527C" d="M262.282,414.738c0-0.671,0.247-1.281,0.651-1.749c0.296,0.146,0.559,0.48,0.512,0.759
						c-0.312,1.359-0.21,2.771,0.843,3.562C263.161,416.995,262.282,415.965,262.282,414.738z"/>
				</g>
				<g>
					<path fill="#21527C" d="M267.865,414.217c-0.167-0.06-0.385-0.035-0.572,0.045c0-0.258,0.08-0.688,0-0.772
						c-0.717-0.35-1.597,0.389-2.309,0.152v-2.471C267.256,411.171,267.864,412.539,267.865,414.217z"/>
				</g>
				<g>
					<path fill="#21527C" d="M262.211,414.217c0.168-0.06,0.387-0.035,0.572,0.045c0-0.258-0.081-0.688,0-0.772
						c0.717-0.35,1.541,0.389,2.255,0.152v-2.471C262.765,411.171,262.212,412.539,262.211,414.217z"/>
				</g>
				<g>
					<ellipse fill="#21527C" cx="262.282" cy="414.943" rx="0.445" ry="0.979"/>
				</g>
				<g>
					<ellipse fill="#21527C" cx="267.615" cy="414.943" rx="0.445" ry="0.979"/>
				</g>
				<g>
					<path fill="#21527C" d="M264.991,417.643c0.496,0,0.964-0.13,1.366-0.359c0.049,0.03,0.098,0.062,0.144,0.095l-1.281,2.563
						l-0.265-0.393c-0.026-0.671-0.031-1.351-0.311-1.93C264.758,417.636,264.874,417.643,264.991,417.643z"/>
				</g>
				<g>
					<path fill="#21527C" d="M263.627,417.282c0.308,0.177,0.651,0.292,1.019,0.337c0.278,0.579,0.283,1.259,0.311,1.93
						l-1.463-2.179C263.536,417.34,263.581,417.311,263.627,417.282z"/>
				</g>
				<g>
					<path fill="#21527C" d="M265.219,419.941l1.281-2.563c0.279,0.19,0.516,0.396,0.763,0.531c1.168,0.646,1.325,1.474,1.323,2.428
						h-3.569c-0.036-0.259-0.053-0.521-0.063-0.787L265.219,419.941z"/>
				</g>
				<g>
					<path fill="#21527C" d="M262.72,417.908c0.25-0.139,0.487-0.345,0.771-0.538l1.463,2.179c0.01,0.267,0.025,0.528,0.063,0.787
						h-3.62C261.396,419.382,261.552,418.554,262.72,417.908z"/>
				</g>
			</g>
		</g>
	</g>
</g>
<g>
	<g>
		<circle fill="#0B2D46" cx="312.404" cy="476.597" r="11.087"/>
		<circle fill="#0B2D46" cx="343.764" cy="474.015" r="11.087"/>
		<g>
			<g>
				<path fill="#FFFFFF" d="M287.067,487.043c0.19,1.672-1.009,3.183-2.68,3.373l-3.784,0.436c-1.671,0.189-3.183-1.008-3.372-2.681
					l-1.041-9.077c-0.192-1.672,1.008-3.184,2.68-3.374l3.783-0.436c1.669-0.19,3.181,1.01,3.372,2.681L287.067,487.043z"/>
				
					<linearGradient id="SVGID_2_" gradientUnits="userSpaceOnUse" x1="237.4836" y1="482.2131" x2="242.0253" y2="480.9321" gradientTransform="matrix(0.9951 0.0994 0.0994 -0.9951 -2.8831 939.2122)">
					<stop  offset="0" style="stop-color:#FFFFFF"/>
					<stop  offset="1" style="stop-color:#000000"/>
				</linearGradient>
				<path opacity="0.3" fill="url(#SVGID_2_)" enable-background="new    " d="M287.067,487.043l-1.042-9.078
					c-0.191-1.671-1.703-2.871-3.372-2.681l-3.783,0.436c-0.107,0.013-0.216,0.03-0.319,0.053c1.005,4.536,1.21,9.69-0.944,13.552
					c0.583,1.031,1.746,1.671,2.998,1.527l3.784-0.435C286.059,490.226,287.259,488.715,287.067,487.043z"/>
			</g>
			<g>
				<circle fill="#FFFFFF" cx="328.156" cy="456.159" r="5.94"/>
				<path fill="#FFFFFF" d="M330.42,438.49c0.31,2.443-1.422,4.679-3.867,4.986c-2.444,0.311-4.678-1.423-4.985-3.867
					c-0.313-2.446,1.421-4.678,3.865-4.986C327.878,434.313,330.11,436.044,330.42,438.49z"/>
				
					<rect x="326.379" y="441.532" transform="matrix(-0.9921 0.1254 -0.1254 -0.9921 708.5116 853.2579)" fill="#FFFFFF" width="2.048" height="14.788"/>
			</g>
			
				<linearGradient id="SVGID_3_" gradientUnits="userSpaceOnUse" x1="281.8123" y1="521.5266" x2="284.1416" y2="522.1476" gradientTransform="matrix(0.9951 0.0994 0.0994 -0.9951 -2.8831 939.2122)">
				<stop  offset="0" style="stop-color:#FFFFFF"/>
				<stop  offset="1" style="stop-color:#000000"/>
			</linearGradient>
			<path opacity="0.2" fill="url(#SVGID_3_)" enable-background="new    " d="M334.049,455.413
				c-0.359-2.847-2.678-4.966-5.429-5.178l-0.896-7.078c1.801-0.757,2.953-2.637,2.695-4.668c-0.202-1.608-1.241-2.903-2.623-3.518
				c-0.464,6.124-2.422,12.714,0.918,18.235c1.158,2.596,2.5,6.014,1.78,8.405C332.87,460.598,334.39,458.104,334.049,455.413z"/>
			<path fill="#FFFFFF" d="M381.293,476.323c0.19,1.672-1.01,3.183-2.681,3.374l-3.783,0.435c-1.67,0.19-3.182-1.009-3.372-2.681
				l-1.042-9.078c-0.189-1.671,1.01-3.182,2.681-3.372l3.783-0.437c1.67-0.19,3.182,1.01,3.372,2.681L381.293,476.323z"/>
			
				<linearGradient id="SVGID_4_" gradientUnits="userSpaceOnUse" x1="335.5476" y1="500.9993" x2="326.0902" y2="503.1706" gradientTransform="matrix(0.9951 0.0994 0.0994 -0.9951 -2.8831 939.2122)">
				<stop  offset="0" style="stop-color:#FFFFFF"/>
				<stop  offset="1" style="stop-color:#000000"/>
			</linearGradient>
			<path opacity="0.3" fill="url(#SVGID_4_)" enable-background="new    " d="M380.251,467.244c-0.19-1.671-1.702-2.871-3.372-2.681
				L373.095,465c-1.671,0.19-2.87,1.701-2.681,3.372l1.042,9.078c0.19,1.672,1.702,2.871,3.372,2.681l3.02-0.347
				c1.35-2.602,1.627-5.733,2.867-8.49L380.251,467.244z"/>
			<g>
				<path fill="#FFFFFF" d="M355.322,530.92c-5.004-0.501-9.716,0.969-13.249,3.729c-3.39,2.305-7.946,3.463-12.496,3.009
					c-4.88-0.487-8.62-2.712-12.259-6.067l-0.008,0.081c-3.564-4.099-7.354-6.869-12.914-7.425
					c-9.797-0.979-18.349,5.591-19.253,14.656s6.409,17.024,16.208,18.004c5.003,0.498,9.663,0.092,13.373-3.908h-0.013
					c3.396-2,7.708-3.383,12.31-2.924c4.665,0.465,8.711,2.662,11.592,5.713c2.848,4.246,7.691,7.336,13.441,7.91
					c9.795,0.979,18.465-5.554,19.369-14.619C372.328,540.017,365.118,531.897,355.322,530.92z"/>
				
					<linearGradient id="SVGID_5_" gradientUnits="userSpaceOnUse" x1="290.0183" y1="424.801" x2="292.7319" y2="446.5085" gradientTransform="matrix(0.9951 0.0994 0.0994 -0.9951 -2.8831 939.2122)">
					<stop  offset="0" style="stop-color:#FFFFFF"/>
					<stop  offset="1" style="stop-color:#000000"/>
				</linearGradient>
				<path opacity="0.3" fill="url(#SVGID_5_)" enable-background="new    " d="M339.842,552.226
					c10.029,2.626,33.095,12.479,31.556-6.378c-0.87-7.684-7.473-14.069-16.074-14.928c-5.004-0.501-9.716,0.969-13.249,3.729
					c-3.39,2.305-7.946,3.463-12.496,3.009c-4.88-0.487-8.62-2.712-12.259-6.067l-0.008,0.081
					c-3.564-4.099-7.354-6.869-12.914-7.425c-1.301-0.13-2.465-0.106-3.711,0.019c-11.416,1.163-19.398,12.962-12.782,17.599
					C298.246,549.115,331.337,550.409,339.842,552.226z"/>
				<path fill="#FFFFFF" d="M333.213,498.466c0.943,0.094,1.7,0.18,2.484,0.276l0.74-7.396l-7.315,1.618l-0.512,5.134
					C330.19,498.194,331.543,498.298,333.213,498.466z"/>
				
					<linearGradient id="SVGID_6_" gradientUnits="userSpaceOnUse" x1="285.9998" y1="475.6018" x2="293.1179" y2="475.6018" gradientTransform="matrix(0.9951 0.0994 0.0994 -0.9951 -2.8831 939.2122)">
					<stop  offset="0" style="stop-color:#FFFFFF"/>
					<stop  offset="1" style="stop-color:#000000"/>
				</linearGradient>
				<path opacity="0.3" fill="url(#SVGID_6_)" enable-background="new    " d="M333.213,498.466c0.943,0.094,1.7,0.18,2.484,0.276
					l0.74-7.396l-7.315,1.618l-0.512,5.134C330.19,498.194,331.543,498.298,333.213,498.466z"/>
				<g>
					<path fill="#FFFFFF" d="M392.485,488.331c-1.277-0.928-2.232-1.959-5.01-2.163c-2.781-0.207-6.426-0.187-9.053,2.342
						c-1.214,1.166-2.449,2.319-3.524,3.617c-4,4.818-8.436,9.176-13.54,12.823c-0.608,0.437-1.343,0.771-1.784,1.337
						c-1.647,2.112-3.138,4.342-3.636,7.049c-0.425,2.291,0.658,3.899,2.925,4.47c1.172,0.295,2.374,0.394,3.568,0.528
						c3.744,0.434,7.453,0.222,11.119-0.643c7.088-1.668,12.873-5.443,17.604-10.927c2.391-2.771,4.118-5.854,4.599-9.541
						C396.227,493.604,395.229,490.593,392.485,488.331z"/>
				</g>
				<g opacity="0.3">
					
						<linearGradient id="SVGID_7_" gradientUnits="userSpaceOnUse" x1="328.7029" y1="466.9836" x2="312.5652" y2="464.1021" gradientTransform="matrix(0.9951 0.0994 0.0994 -0.9951 -2.8831 939.2122)">
						<stop  offset="0" style="stop-color:#FFFFFF"/>
						<stop  offset="1" style="stop-color:#000000"/>
					</linearGradient>
					<path fill="url(#SVGID_7_)" d="M371.472,496.008c-3.081,3.289-6.419,6.304-10.113,8.942c-0.608,0.437-1.343,0.771-1.784,1.337
						c-1.646,2.112-3.138,4.342-3.636,7.049c-0.425,2.291,0.658,3.899,2.925,4.47c1.172,0.295,2.374,0.394,3.568,0.528
						c3.744,0.434,7.454,0.222,11.119-0.643c3.237-0.761,6.19-1.984,8.908-3.587C380.414,507.058,376.966,500.521,371.472,496.008z"
						/>
				</g>
				<g>
					<path fill="#FFFFFF" d="M271.019,529.25c1.139,0.798,1.994,1.692,4.447,1.831c2.451,0.138,5.662,0.061,7.937-2.204
						c1.053-1.049,2.121-2.081,3.051-3.242c3.447-4.308,7.285-8.213,11.726-11.508c0.526-0.392,1.173-0.699,1.552-1.206
						c1.419-1.886,2.696-3.872,3.095-6.263c0.336-2.025-0.642-3.429-2.647-3.895c-1.037-0.24-2.098-0.31-3.152-0.409
						c-3.303-0.322-6.57-0.078-9.784,0.736c-6.218,1.581-11.258,4.998-15.336,9.899c-2.065,2.479-3.538,5.223-3.904,8.479
						C267.641,524.666,268.563,527.303,271.019,529.25z"/>
				</g>
				<path fill="#FFFFFF" d="M361.475,511.22c-0.617,6.178-16.721,30.214-33.459,28.543c-16.737-1.673-27.771-28.419-27.153-34.595
					c0.616-6.174,14.547-8.445,31.286-6.774C348.885,500.065,362.091,505.047,361.475,511.22z"/>
				
					<linearGradient id="SVGID_8_" gradientUnits="userSpaceOnUse" x1="288.0955" y1="465.8098" x2="287.0865" y2="476.0406" gradientTransform="matrix(0.9951 0.0994 0.0994 -0.9951 -2.8831 939.2122)">
					<stop  offset="0" style="stop-color:#FFFFFF"/>
					<stop  offset="1" style="stop-color:#000000"/>
				</linearGradient>
				<path opacity="0.3" fill="url(#SVGID_8_)" enable-background="new    " d="M300.862,505.168
					c-0.155,1.553,0.427,4.405,1.648,7.834c18.802,1.843,40.622,3.4,56.853-6.283c-4.325-4.021-14.795-7.085-27.215-8.325
					C315.409,496.723,301.479,498.994,300.862,505.168z"/>
				<path fill="#FFFFFF" d="M377.455,474.565l-0.72-7.344c-0.797-8.109-7.601-14.081-15.193-13.335l-69.244,6.604
					c-7.597,0.742-13.104,7.924-12.313,16.035l0.724,7.342c0.797,8.11,7.599,14.08,15.192,13.337l69.244-6.604
					C372.742,489.856,378.252,482.675,377.455,474.565z M320.388,481.604c-2.168,3.192-6.615,4.408-10.111,2.763
					c-3.827-1.798-5.668-5.895-4.467-9.933c1.07-3.605,4.91-6.175,8.558-5.688c-1.815,1.572-2.312,3.209-1.521,4.943
					c0.677,1.48,2.294,2.382,3.893,2.168c1.952-0.259,3.046-1.498,3.41-3.868C322.315,474.011,322.429,478.6,320.388,481.604z
					 M350.592,478.508c-2.116,3.112-6.454,4.299-9.863,2.694c-3.732-1.755-5.527-5.75-4.355-9.688
					c1.047-3.514,4.787-6.021,8.345-5.546c-1.771,1.532-2.254,3.13-1.48,4.818c0.659,1.445,2.237,2.325,3.796,2.117
					c1.904-0.253,2.973-1.463,3.326-3.771C352.471,471.104,352.581,475.578,350.592,478.508z"/>
				<path fill="#21527C" d="M328.674,511.742c-0.234,2.352-0.462,4.624-0.699,7.018c2.367,0.235,4.662,0.465,6.938,0.691
					c0.243,3.413-3.178,6.556-7.054,6.608c-3.92,0.053-7.351-3.545-7.104-7.454C321.02,514.331,324.566,511.191,328.674,511.742z"/>
				<path fill="#0B2D46" d="M330.175,509.823c4.272,0.165,7.585,4.238,6.969,8.388c-0.319,0-0.649,0.023-0.976-0.008
					c-2.187-0.21-4.375-0.433-6.763-0.671c0.139-1.386,0.266-2.658,0.393-3.929C329.922,512.369,330.044,511.139,330.175,509.823z"
					/>
			</g>
			<g>
				<path fill="#21527C" d="M324.347,475.251c-1.172,10.384-9.874,17.717-20.306,17.107c-10.428-0.606-17.689-10.297-17.106-20.304
					c0.609-10.429,10.297-17.691,20.306-17.108C317.667,455.558,324.93,465.244,324.347,475.251
					c-0.142,2.39,3.563,2.711,3.699,0.316c0.729-12.474-8.075-22.923-20.49-24.322c-12.414-1.397-22.98,8.582-24.322,20.494
					c-1.399,12.412,8.581,22.979,20.492,24.32c12.411,1.397,22.979-8.58,24.32-20.492
					C328.315,473.187,324.614,472.875,324.347,475.251z"/>
				<path fill="#21527C" d="M371.568,470.254c-1.17,10.384-9.872,17.717-20.304,17.106c-10.432-0.607-17.689-10.296-17.106-20.303
					c0.607-10.43,10.295-17.692,20.302-17.106C364.891,450.56,372.152,460.247,371.568,470.254c-0.14,2.389,3.562,2.711,3.701,0.316
					c0.729-12.472-8.076-22.924-20.492-24.32c-12.414-1.398-22.979,8.579-24.322,20.491c-1.396,12.414,8.581,22.98,20.492,24.322
					c12.413,1.398,22.98-8.582,24.322-20.493C375.538,468.188,371.834,467.877,371.568,470.254z"/>
				<path fill="#21527C" d="M327.177,473.007c1.38-0.185,2.758-0.364,4.139-0.545c1.005-0.13,1.664-1.21,1.488-2.166
					c-0.191-1.034-1.163-1.618-2.166-1.486c-1.382,0.181-2.76,0.361-4.141,0.542c-1.004,0.132-1.667,1.211-1.487,2.167
					C325.2,472.553,326.173,473.138,327.177,473.007L327.177,473.007z"/>
			</g>
		</g>
	</g>
</g>
<g>
	<polygon fill="#FFFFFF" points="340.713,610.736 312.224,625.288 306.3,613.609 334.788,599.058 	"/>
	
		<linearGradient id="SVGID_9_" gradientUnits="userSpaceOnUse" x1="-8516.1074" y1="3901.2307" x2="-8502.0186" y2="3901.2307" gradientTransform="matrix(-0.0844 0.4509 -1.2154 -0.2275 4340.1367 5345.7461)">
		<stop  offset="0" style="stop-color:#FFFFFF"/>
		<stop  offset="1" style="stop-color:#000000"/>
	</linearGradient>
	<polygon opacity="0.4" fill="url(#SVGID_9_)" enable-background="new    " points="312.224,625.288 329.604,616.488 306.3,613.609 
			"/>
	<rect x="120.675" y="665.646" fill="#FFFFFF" width="45.997" height="19.359"/>
	
		<linearGradient id="SVGID_10_" gradientUnits="userSpaceOnUse" x1="-35.7063" y1="502.1077" x2="-27.6947" y2="499.6613" gradientTransform="matrix(1 0 0 1 182.2002 174.8008)">
		<stop  offset="0" style="stop-color:#FFFFFF"/>
		<stop  offset="1" style="stop-color:#000000"/>
	</linearGradient>
	<polygon opacity="0.4" fill="url(#SVGID_10_)" enable-background="new    " points="159.252,685.041 159.023,665.646 
		143.99,665.646 144.22,685.041 	"/>
	
		<linearGradient id="SVGID_11_" gradientUnits="userSpaceOnUse" x1="-1306.2092" y1="502.1077" x2="-1298.1985" y2="499.6617" gradientTransform="matrix(-1.0141 0 0 1 -1190.4707 174.8008)">
		<stop  offset="0" style="stop-color:#FFFFFF"/>
		<stop  offset="1" style="stop-color:#000000"/>
	</linearGradient>
	<polygon opacity="0.4" fill="url(#SVGID_11_)" enable-background="new    " points="121.22,685.041 121.451,665.646 
		136.695,665.646 136.463,685.041 	"/>
	<path fill="#FFFFFF" d="M127.977,615.017L97.213,692.19c0.691,0.309,0.979,1.006,0.796,1.752h26.034l31.465-78.926L127.977,615.017
		L127.977,615.017z"/>
	<path fill="#FFFFFF" d="M255.537,635.232c-5.887-6.545-12.94-9.793-21.162-9.793h-42.479v68.502h42.479
		c8.296,0,15.367-3.881,21.222-10.424c5.851-6.551,8.773-14.865,8.773-24.375C264.37,649.941,261.428,641.782,255.537,635.232z
		 M236.695,665.854c-1.831,1.91-4.037,2.771-6.617,2.771h-13.699v-19.359h13.699c2.58,0,4.786,0.91,6.617,2.82
		c1.831,1.908,2.749,4.127,2.749,6.795C239.444,661.669,238.526,663.947,236.695,665.854z"/>
	<path fill="#FFFFFF" d="M304.517,621.375c-20.303,0-36.76,16.519-36.76,36.892c0,20.377,16.457,36.895,36.76,36.895
		c20.301,0,36.758-16.518,36.758-36.895C341.273,637.894,324.816,621.375,304.517,621.375z M303.871,671.257
		c-6.791,0-12.297-5.527-12.297-12.344c0-6.813,5.506-12.342,12.297-12.342c6.79,0,12.297,5.527,12.297,12.342
		C316.168,665.729,310.661,671.257,303.871,671.257z"/>
	
		<linearGradient id="SVGID_12_" gradientUnits="userSpaceOnUse" x1="-50.3767" y1="463.4377" x2="-43.1173" y2="458.8853" gradientTransform="matrix(1 0 0 1 182.2002 174.8008)">
		<stop  offset="0" style="stop-color:#FFFFFF"/>
		<stop  offset="1" style="stop-color:#000000"/>
	</linearGradient>
	<polygon opacity="0.4" fill="url(#SVGID_12_)" enable-background="new    " points="151.735,624.316 137.496,660.261 
		114.045,651.136 127.977,615.07 	"/>
	<path fill="#FFFFFF" d="M186.873,693.013c0.084-0.254,0.248-0.463,0.453-0.615l-30.836-77.381h-27.531l31.464,78.926h26.143
		C186.668,693.941,186.77,693.337,186.873,693.013z"/>
	
		<linearGradient id="SVGID_13_" gradientUnits="userSpaceOnUse" x1="-1268.7986" y1="7355.5176" x2="-1263.1334" y2="7355.5176" gradientTransform="matrix(-1 0 0 -1 -1047.8013 8036.8008)">
		<stop  offset="0" style="stop-color:#FFFFFF"/>
		<stop  offset="1" style="stop-color:#000000"/>
	</linearGradient>
	<rect x="214.152" y="668.625" opacity="0.4" fill="url(#SVGID_13_)" enable-background="new    " width="10.387" height="25.315"/>
	<rect x="191.896" y="625.439" fill="#FFFFFF" width="24.48" height="68.502"/>
	
		<linearGradient id="SVGID_14_" gradientUnits="userSpaceOnUse" x1="126.1726" y1="503.4016" x2="138.5691" y2="503.4016" gradientTransform="matrix(1 0 0 1 182.2002 174.8008)">
		<stop  offset="0" style="stop-color:#FFFFFF"/>
		<stop  offset="1" style="stop-color:#000000"/>
	</linearGradient>
	<path opacity="0.4" fill="url(#SVGID_14_)" enable-background="new    " d="M320.326,664.519l-4.249-3.084
		c-0.872,4.225-3.995,7.656-7.704,9.092v24.443c4.451-0.427,8.537-1.643,12.396-3.527L320.326,664.519z"/>
	<rect x="316.082" y="657.454" fill="#FFFFFF" width="24.936" height="37.23"/>
	<rect x="346.951" y="622.46" fill="#FFFFFF" width="19.289" height="68.502"/>
	<rect x="398.142" y="622.46" fill="#FFFFFF" width="17.063" height="72.227"/>
	
		<linearGradient id="SVGID_15_" gradientUnits="userSpaceOnUse" x1="172.324" y1="469.4309" x2="177.4744" y2="466.3038" gradientTransform="matrix(1 0 0 1 182.2002 174.8008)">
		<stop  offset="0" style="stop-color:#FFFFFF"/>
		<stop  offset="1" style="stop-color:#000000"/>
	</linearGradient>
	<polygon opacity="0.4" fill="url(#SVGID_15_)" enable-background="new    " points="347.24,623.952 347.944,636.831 366.24,661.82 
		366.24,654.728 370.455,651.531 	"/>
	
		<linearGradient id="SVGID_16_" gradientUnits="userSpaceOnUse" x1="-1037.4016" y1="7319.8916" x2="-1032.394" y2="7316.8516" gradientTransform="matrix(-1 0 0 -1 -628.4985 7994.6719)">
		<stop  offset="0" style="stop-color:#FFFFFF"/>
		<stop  offset="1" style="stop-color:#000000"/>
	</linearGradient>
	<polygon opacity="0.4" fill="url(#SVGID_16_)" enable-background="new    " points="415.205,694.687 415.205,681.814 
		398.142,657.579 398.142,663.476 393.773,668.275 	"/>
	<polygon fill="#FFFFFF" points="415.205,694.687 388.249,694.687 347.24,622.46 375.72,622.46 	"/>
	<path fill="#FFFFFF" d="M341.017,695.45c0,1.254-0.719,1.469-1.959,1.469H319.15c-1.24,0-3.066-0.215-3.066-1.469v-10.244
		c0-1.252,1.826-2.434,3.066-2.434h19.908c1.24,0,1.959,1.182,1.959,2.434V695.45z"/>
	<path fill="#FFFFFF" d="M216.379,694.195c0,1.252-0.735,1.98-2.041,1.98h-19.278c-1.303,0-3.161-0.729-3.161-1.98V683.95
		c0-1.254,1.858-1.924,3.161-1.924h19.278c1.306,0,2.041,0.67,2.041,1.924V694.195L216.379,694.195z"/>
	<path fill="#FFFFFF" d="M172.787,680.538h-9.863c-1.254,0-2.929,1.234-2.929,2.488v10.252c0,1.252,1.675,2.15,2.929,2.15h22.758
		c1.256,0,1.989-0.703,1.989-1.955l-1.481-3.916L172.787,680.538z"/>
	<path fill="#FFFFFF" d="M111.738,680.538h9.902c1.259,0,2.742,1.234,2.742,2.488v10.252c0,1.252-1.483,2.15-2.742,2.15H98.792
		c-1.26,0-1.997-0.703-1.997-1.955l1.489-3.916L111.738,680.538z"/>
	<path fill="#FFFFFF" d="M366.24,695.425c0,1.271-1.06,1.494-2.43,1.494h-13.834c-1.369,0-3.025-0.225-3.025-1.494v-10.396
		c0-1.27,1.656-2.256,3.025-2.256h13.834c1.37,0,2.43,0.986,2.43,2.256V695.425z"/>
	<path fill="#FFFFFF" d="M415.205,632.479c0,1.209-1.021,1.896-2.305,1.896h-11.967c-1.283,0-2.793-0.688-2.793-1.896v-9.9
		c0-1.211,1.51-2.352,2.793-2.352H412.9c1.283,0,2.305,1.141,2.305,2.352V632.479z"/>
</g>
<g opacity="0.5">
	<path fill="#FFFFFF" d="M368.063,154.628c0-7.29-5.94-13.188-13.271-13.188c-4.724,0-8.868,2.464-11.219,6.161
		c-1.796-0.901-3.825-1.484-5.976-1.484c-6.906,0-12.577,4.883-13.209,11.883c-0.017,0-0.032,0-0.05,0
		c-6.292,0-11.557,4.163-12.922,10.009c-3.744,1.075-6.8,2.991-8.362,6.991h-0.27c-0.558,3-0.646,3.862-0.646,5.507
		c0,6.717,4.858,12.656,11.858,13.397V194h0.33c0.245,0,0.492,0.021,0.741,0.021c0.251,0,0.497-0.021,0.743-0.021h6.321
		l45.889-38.531C368.039,155.211,368.063,154.891,368.063,154.628z"/>
	<path fill="#E2E2E2" d="M386.043,175h-0.297c-1.742-4-5.293-6.418-9.576-7.209c-1.484-4.051-4.906-7.039-9.151-8.125
		c0.576-1.354,0.915-2.701,1.007-4.236L322.137,194h50.879c0.246,0,0.492,0.008,0.741,0.008c7.263,0,13.148-6.271,13.148-13.494
		C386.906,178.869,386.599,178,386.043,175z"/>
</g>
<g opacity="0.5">
	<path fill="#FFFFFF" d="M440.648,184.409c0-4.37-3.562-7.906-7.955-7.906c-2.831,0-5.314,1.477-6.725,3.692
		c-1.078-0.541-2.293-0.604-3.582-0.604c-4.143,0-7.541,3.408-7.92,7.408c-0.01,0-0.02,0-0.029,0c-3.771,0-6.927,2.399-7.746,5.903
		c-2.244,0.646-4.076,2.097-5.014,4.097h-0.162c-0.334,1-0.507,2.127-0.507,3.111c0,4.027,2.99,7.398,6.99,7.845V208h0.437
		c0.146,0,0.296,0.014,0.444,0.014c0.149,0,0.299-0.014,0.444-0.014h3.79l27.511-23.094
		C440.635,184.752,440.648,184.566,440.648,184.409z"/>
	<path fill="#E2E2E2" d="M451.428,197h-0.179c-1.045-2-3.174-4.037-5.74-4.512c-0.892-2.428-2.942-4.313-5.487-4.965
		c0.346-0.812,0.549-1.673,0.604-2.593L413.115,208h30.503c0.146,0,0.295,0.011,0.444,0.011c4.354,0,7.883-3.566,7.883-7.897
		C451.945,199.127,451.761,198,451.428,197z"/>
</g>
<g>
	<polygon fill="#F7A600" points="160.775,309.521 160.775,363.65 174.51,363.65 174.51,379 179.357,379 179.357,363.65 
		193.617,363.65 224.078,309.521 	"/>
	<polygon fill="#DA8C0C" points="209.707,309.521 179.246,363.65 218.135,363.65 218.135,379 222.175,379 222.175,363.65 
		237.525,363.65 237.525,309.521 	"/>
	<g>
		<path fill="#F1F1F1" d="M238.052,388.632v14.565h-10.757l-21.243,28.771v3.229h-2.386l-5.17,7h7.556v20h-17v-7.208l-15.66,21.208
			h1.66v18H160.1l-41.352,56h29.916h36.388v-38h25v38h42v-177h-2.604L238.052,388.632z M206.052,494.198h-17v-18h17V494.198z
			 M238.052,494.198h-18v-18h18V494.198z M238.052,462.198h-18v-20h18V462.198z M238.052,435.198h-18v-20h18V435.198z"/>
		<path fill="#FFFFFF" d="M155.052,494.198v-18h18.34l15.66-21.208v-12.792h9.444l5.17-7h-14.614v-20h17v16.771l21.243-28.771
			h-7.243v-18h18v3.435l11.396-15.435H139.052v67H98.294l0.04,110h20.415l41.352-56H155.052z M189.052,385.198h17v18h-17V385.198z
			 M155.052,385.198h20v18h-20V385.198z M155.052,415.198h20v20h-20V415.198z M155.052,442.198h20v20h-20V442.198z M118.052,516.198
			h-11v-10h11V516.198z M118.052,498.198h-11v-12h11V498.198z M118.052,476.198h-11v-10h11V476.198z M118.052,458.198h-11v-10h11
			V458.198z M137.052,516.198h-13v-10h13V516.198z M137.052,498.198h-13v-12h13V498.198z M137.052,476.198h-13v-10h13V476.198z
			 M137.052,458.198h-13v-10h13V458.198z"/>
	</g>
	<path fill="#FFFFFF" d="M249.448,373.198H139.052v67H98.294l0.04,110h20.415h29.916h36.388v-38h25v38h42v-177H249.448z
		 M118.052,516.198h-11v-10h11V516.198z M118.052,498.198h-11v-12h11V498.198z M118.052,476.198h-11v-10h11V476.198z
		 M118.052,458.198h-11v-10h11V458.198z M189.052,385.198h17v18h-17V385.198z M155.052,385.198h20v18h-20V385.198z M155.052,415.198
		h20v20h-20V415.198z M155.052,442.198h20v20h-20V442.198z M124.052,448.198h13v10h-13V448.198z M124.052,466.198h13v10h-13V466.198
		z M124.052,486.198h13v12h-13V486.198z M124.052,506.198h13v10h-13V506.198z M175.052,494.198H160.1h-5.048v-18h18.34h1.66V494.198
		z M206.052,494.198h-17v-18h17V494.198z M206.052,462.198h-17v-7.208v-12.792h9.444h7.556V462.198z M206.052,435.198h-2.386
		h-14.614v-20h17v16.771V435.198z M238.052,494.198h-18v-18h18V494.198z M238.052,462.198h-18v-20h18V462.198z M238.052,435.198h-18
		v-20h18V435.198z M238.052,403.198h-10.757h-7.243v-18h18v3.435V403.198z"/>
	<g>
		<g>
			<path fill="#FFFFFF" d="M211.789,340.73c-0.933-0.987-2.125-1.48-3.578-1.48h-0.117c0.192,0.28,0.114,0.739,0.465,0.913
				c-2.12,0.77-4.413,1.539-6.724,1.996v11.732h4.698v-4.41h2.449c1.263,0,2.277-0.455,3.048-1.366
				c0.768-0.908,1.153-2.11,1.153-3.603C213.185,342.973,212.72,341.715,211.789,340.73z M208.341,345.388
				c-0.232,0.258-0.547,0.384-0.947,0.384h-0.858v-2.577h1.059c0.306,0,0.567,0.111,0.779,0.335c0.213,0.223,0.319,0.5,0.319,0.83
				C208.691,344.793,208.574,345.136,208.341,345.388z"/>
			<path fill="#FFFFFF" d="M181.77,348.592c-0.41,0.523-0.93,0.784-1.561,0.784c-0.644,0-1.176-0.261-1.599-0.784
				c-0.423-0.523-0.632-1.193-0.632-2.011c0-0.815,0.209-1.495,0.632-2.029c0.423-0.539,0.955-0.808,1.599-0.808
				c0.629,0,1.15,0.261,1.561,0.788c0.41,0.52,0.613,1.198,0.613,2.029C182.383,347.394,182.18,348.069,181.77,348.592
				 M185.071,341.275c-1.236-1.347-2.856-2.021-4.861-2.021c-2.006,0-3.625,0.674-4.862,2.021c-1.236,1.348-1.854,3.116-1.854,5.307
				c0,2.177,0.618,3.938,1.854,5.285c1.236,1.347,2.855,2.021,4.862,2.021c2.005,0,3.625-0.674,4.861-2.021
				c1.235-1.348,1.854-3.108,1.854-5.285C186.925,344.39,186.307,342.623,185.071,341.275"/>
			<path fill="#FFFFFF" d="M197.218,342.946c0.185-1.296-0.589-2.433-0.664-3.688h-0.055v7.394l-3.989-7.394h-4.598v14.635h4.578
				l-0.019-7.154l3.874,7.154h4.696V341.99C199.812,342.518,198.422,342.544,197.218,342.946z"/>
			<polygon fill="#FFFFFF" points="222.941,349.787 218.813,349.787 218.813,348.441 222.459,348.441 222.459,344.617 
				218.813,344.617 218.813,343.205 222.819,343.205 222.819,339.257 214.106,339.257 214.106,353.897 222.941,353.897 			"/>
			<path fill="#FFFFFF" d="M187.508,317.623v21.371h8.981c-0.262-0.268-0.341-0.57-0.298-0.856h-7.826V318.48h19.705v19.658h-0.067
				c0.129,0.259,0.153,0.576,0.074,0.856h0.852v-21.371H187.508z"/>
			<path fill="#FFFFFF" d="M197.292,343.403l-3.026-11.983l2.003-2.115l1.123,3.397l1.27,0.239l1.264-1.723l2.033,1.318l1.079-1.021
				l-1.532-8.331l2.875-0.728l4.507,18.049L197.292,343.403z M194.975,331.603l2.782,11.021l10.351-2.584l-4.194-16.803
				l-1.669,0.425l1.486,8.081l-1.697,1.605l-1.947-1.262l-1.146,1.56l-2.038-0.384l-0.904-2.739L194.975,331.603z"/>
			<path fill="#FFFFFF" d="M204.048,322.909l0.6,2.357c0,0,2.125-2.766,1.316-5.015c0,0-0.462-1.309-1.299-2.199h-1.843
				c0,0,1.778,1.751,1.723,3.142C204.488,322.581,204.048,322.909,204.048,322.909"/>
			<path fill="#FFFFFF" d="M187.937,318.053v7.089c0,0,0.197,1.595,0.726,3.616c0.529,2.02,0.714,3.823,2.425,3.542
				c0,0,1.129-0.106,1.332-0.841c0,0,1.053,0.651,2.065,0.363c1.014-0.289,1.435-1.024,1.435-1.024s0.504,1.961,0.726,2.447
				c0.223,0.489,1.203,0.842,1.962,0.662c0.757-0.183,1.616-1.328,1.616-1.328s0.917,1.277,2.372,0.697c0,0,1.5-0.694,1.271-1.752
				c-0.23-1.06-2.232-9.352-2.232-9.352l-1.33,0.331l2.098,8.346c0,0,0.364,1.181-0.384,1.395c0,0-0.688,0.153-0.879-0.458
				c-0.191-0.615-1.539-6.265-1.539-6.265l-1.498,0.375l1.144,4.855c0,0,0.42,1.415-0.528,1.751c0,0-1.134,0.402-1.462-0.946
				c-0.329-1.352-1.3-5.125-1.3-5.125l-1.483,0.353l0.42,1.845c0,0,0.414,1.389-0.458,1.75c-0.87,0.363-1.349-0.278-1.454-0.663
				c-0.105-0.38-0.55-2.413-0.55-2.413l-1.392,0.354l0.519,2.081c0,0,0.238,0.84-0.369,1.004c-0.608,0.162-0.799-0.517-0.876-0.742
				c-0.08-0.223-0.971-2.887-1.14-3.905c-0.17-1.018-0.667-4.453-0.688-5.142c-0.021-0.689-0.122-1.699,0.182-2.9h-0.73V318.053z"/>
		</g>
	</g>
	<g>
		<g>
			<circle fill="#21527C" cx="194.567" cy="455.398" r="1.56"/>
			<circle fill="#21527C" cx="198.981" cy="455.035" r="1.561"/>
			<g>
				<g>
					<path fill="#21527C" d="M191.002,456.868c0.027,0.235-0.142,0.448-0.377,0.475l-0.532,0.062
						c-0.235,0.026-0.448-0.142-0.475-0.377l-0.146-1.277c-0.027-0.235,0.142-0.448,0.377-0.476l0.533-0.061
						c0.235-0.027,0.447,0.142,0.475,0.377L191.002,456.868z"/>
					<path opacity="0.3" fill="#21527C" enable-background="new    " d="M191.002,456.868l-0.146-1.277
						c-0.027-0.235-0.24-0.404-0.475-0.377l-0.533,0.061c-0.015,0.002-0.03,0.005-0.045,0.008c0.142,0.639,0.17,1.363-0.133,1.907
						c0.082,0.145,0.246,0.235,0.422,0.215l0.533-0.061C190.86,457.317,191.029,457.104,191.002,456.868z"/>
				</g>
				<g>
					<circle fill="#21527C" cx="196.784" cy="452.522" r="0.836"/>
					<path fill="#21527C" d="M197.103,450.035c0.043,0.345-0.2,0.658-0.544,0.702c-0.344,0.044-0.658-0.2-0.701-0.544
						c-0.044-0.345,0.2-0.658,0.543-0.702C196.745,449.448,197.059,449.692,197.103,450.035z"/>
					
						<rect x="196.534" y="450.464" transform="matrix(-0.9925 0.1222 -0.1222 -0.9925 447.0371 875.6017)" fill="#21527C" width="0.288" height="2.081"/>
				</g>
				<path opacity="0.2" fill="#21527C" enable-background="new    " d="M197.614,452.417c-0.051-0.4-0.377-0.699-0.764-0.729
					l-0.126-0.996c0.253-0.106,0.416-0.371,0.379-0.657c-0.029-0.227-0.175-0.408-0.369-0.495c-0.065,0.862-0.341,1.79,0.129,2.566
					c0.163,0.365,0.352,0.847,0.251,1.183C197.448,453.147,197.661,452.796,197.614,452.417z"/>
				<path fill="#21527C" d="M204.262,455.36c0.026,0.235-0.143,0.448-0.377,0.476l-0.532,0.061
					c-0.235,0.027-0.448-0.142-0.475-0.377l-0.146-1.277c-0.026-0.235,0.142-0.448,0.377-0.475l0.532-0.062
					c0.235-0.027,0.448,0.142,0.475,0.377L204.262,455.36z"/>
				<path opacity="0.3" fill="#21527C" enable-background="new    " d="M204.115,454.082c-0.027-0.235-0.239-0.404-0.475-0.377
					l-0.532,0.062c-0.235,0.026-0.404,0.239-0.377,0.475l0.146,1.277c0.027,0.235,0.24,0.404,0.475,0.377l0.425-0.049
					c0.19-0.366,0.229-0.807,0.403-1.194L204.115,454.082z"/>
				<g>
					<path fill="#21527C" d="M197.496,458.476c0.133,0.014,0.239,0.025,0.35,0.039l0.104-1.04l-1.029,0.228l-0.072,0.722
						C197.071,458.438,197.261,458.452,197.496,458.476z"/>
					<path opacity="0.3" fill="#21527C" enable-background="new    " d="M197.496,458.476c0.133,0.014,0.239,0.025,0.35,0.039
						l0.104-1.04l-1.029,0.228l-0.072,0.722C197.071,458.438,197.261,458.452,197.496,458.476z"/>
					<g>
						<path fill="#21527C" d="M206.062,461.385c-0.058-0.081-0.11-0.164-0.176-0.241c-0.666-0.779-1.48-1.315-2.478-1.553
							c-0.516-0.123-1.038-0.152-1.565-0.091c-0.168,0.019-0.337,0.033-0.502,0.075c-0.319,0.081-0.472,0.309-0.412,0.635
							c0.07,0.385,0.28,0.701,0.512,1.001c0.062,0.081,0.166,0.128,0.251,0.19c0.272,0.196,0.531,0.408,0.778,0.633h3.592V461.385z"
							/>
					</g>
					<g>
						<path fill="#21527C" d="M192.847,459.081c-0.146-0.034-0.295-0.044-0.444-0.058c-0.465-0.046-0.924-0.012-1.377,0.104
							c-0.812,0.207-1.476,0.644-2.026,1.255v1.652h2.135c0.428-0.502,0.898-0.959,1.431-1.354c0.074-0.055,0.165-0.099,0.218-0.169
							c0.2-0.266,0.379-0.546,0.436-0.882C193.267,459.344,193.129,459.147,192.847,459.081z"/>
					</g>
					<path fill="#21527C" d="M200.529,462.034c0.557-0.727,0.911-1.43,0.945-1.764c0.086-0.868-1.772-1.569-4.127-1.805
						s-4.316,0.084-4.403,0.953c-0.042,0.427,0.312,1.553,0.961,2.615H200.529z"/>
					<path opacity="0.3" fill="#21527C" enable-background="new    " d="M192.943,459.419c-0.022,0.219,0.06,0.62,0.232,1.103
						c2.646,0.26,5.717,0.479,8.001-0.884c-0.609-0.566-2.082-0.998-3.83-1.172C194.99,458.231,193.03,458.55,192.943,459.419z"/>
					<path fill="#21527C" d="M203.722,455.113l-0.101-1.033c-0.112-1.142-1.07-1.982-2.138-1.877l-9.745,0.93
						c-1.069,0.104-1.844,1.114-1.732,2.256l0.102,1.033c0.112,1.142,1.069,1.981,2.138,1.878l9.745-0.93
						C203.059,457.265,203.834,456.254,203.722,455.113z M195.691,456.104c-0.305,0.448-0.931,0.62-1.423,0.389
						c-0.539-0.254-0.798-0.83-0.629-1.398c0.15-0.507,0.691-0.869,1.205-0.801c-0.256,0.222-0.326,0.452-0.214,0.696
						c0.095,0.208,0.323,0.335,0.548,0.305c0.275-0.036,0.429-0.211,0.48-0.544C195.962,455.034,195.978,455.68,195.691,456.104z
						 M199.942,455.667c-0.298,0.438-0.909,0.605-1.388,0.379c-0.525-0.246-0.778-0.809-0.613-1.363
						c0.147-0.494,0.674-0.847,1.174-0.78c-0.25,0.216-0.317,0.44-0.208,0.678c0.093,0.204,0.315,0.327,0.534,0.299
						c0.268-0.036,0.418-0.206,0.468-0.531C200.206,454.625,200.221,455.255,199.942,455.667z"/>
					<path fill="#21527C" d="M197.493,462.034c0.162-0.167,0.257-0.382,0.242-0.605c-0.32-0.031-0.644-0.063-0.977-0.097
						c0.033-0.337,0.065-0.656,0.098-0.987c-0.578-0.078-1.077,0.364-1.114,0.966c-0.017,0.271,0.092,0.53,0.272,0.724H197.493z"/>
					<path fill="#21527C" d="M197.068,460.074c0.602,0.023,1.067,0.597,0.981,1.181c-0.045,0-0.091,0.003-0.138-0.001
						c-0.308-0.029-0.615-0.062-0.951-0.095c0.019-0.195,0.037-0.374,0.055-0.553C197.032,460.433,197.05,460.259,197.068,460.074z"
						/>
				</g>
				<g>
					<path fill="#21527C" d="M196.248,455.209c-0.165,1.461-1.39,2.493-2.858,2.407c-1.467-0.085-2.489-1.449-2.407-2.857
						c0.085-1.467,1.449-2.489,2.857-2.407C195.308,452.438,196.33,453.801,196.248,455.209c-0.02,0.336,0.501,0.381,0.521,0.044
						c0.103-1.755-1.137-3.226-2.884-3.423c-1.747-0.196-3.234,1.208-3.423,2.885c-0.197,1.747,1.208,3.233,2.884,3.422
						c1.747,0.197,3.234-1.207,3.423-2.884C196.806,454.918,196.286,454.874,196.248,455.209z"/>
					<path fill="#21527C" d="M202.894,454.506c-0.165,1.461-1.39,2.493-2.857,2.407c-1.468-0.086-2.49-1.449-2.408-2.857
						c0.085-1.468,1.449-2.49,2.857-2.407C201.954,451.734,202.976,453.098,202.894,454.506c-0.02,0.336,0.501,0.381,0.521,0.044
						c0.103-1.755-1.137-3.226-2.884-3.423c-1.747-0.196-3.234,1.208-3.423,2.885c-0.196,1.747,1.208,3.233,2.884,3.422
						c1.747,0.197,3.234-1.207,3.423-2.884C203.452,454.215,202.931,454.171,202.894,454.506z"/>
					<path fill="#21527C" d="M196.647,454.894c0.194-0.026,0.388-0.052,0.582-0.077c0.142-0.019,0.234-0.171,0.209-0.305
						c-0.027-0.146-0.164-0.228-0.305-0.209c-0.194,0.025-0.389,0.05-0.583,0.076c-0.141,0.019-0.234,0.17-0.209,0.305
						C196.368,454.829,196.505,454.911,196.647,454.894L196.647,454.894z"/>
				</g>
			</g>
		</g>
	</g>
	<g>
		<g>
			<circle fill="#21527C" cx="226.03" cy="428.46" r="1.56"/>
			<circle fill="#21527C" cx="230.444" cy="428.097" r="1.561"/>
			<g>
				<g>
					<path fill="#21527C" d="M222.465,429.93c0.027,0.235-0.142,0.448-0.377,0.475l-0.532,0.062
						c-0.235,0.026-0.448-0.142-0.475-0.377l-0.146-1.277c-0.027-0.235,0.142-0.448,0.377-0.476l0.533-0.061
						c0.235-0.027,0.447,0.142,0.475,0.377L222.465,429.93z"/>
					<path opacity="0.3" fill="#21527C" enable-background="new    " d="M222.465,429.93l-0.146-1.277
						c-0.027-0.235-0.24-0.404-0.475-0.377l-0.533,0.061c-0.015,0.002-0.03,0.005-0.045,0.008c0.142,0.639,0.17,1.363-0.133,1.907
						c0.082,0.145,0.246,0.235,0.422,0.215l0.533-0.061C222.323,430.378,222.491,430.165,222.465,429.93z"/>
				</g>
				<g>
					<circle fill="#21527C" cx="228.247" cy="425.583" r="0.836"/>
					<path fill="#21527C" d="M228.566,423.097c0.043,0.345-0.2,0.658-0.544,0.702c-0.344,0.044-0.658-0.2-0.701-0.544
						c-0.044-0.345,0.2-0.658,0.543-0.702C228.208,422.509,228.522,422.753,228.566,423.097z"/>
					
						<rect x="227.997" y="423.525" transform="matrix(-0.9925 0.1222 -0.1222 -0.9925 506.4366 818.0831)" fill="#21527C" width="0.288" height="2.081"/>
				</g>
				<path opacity="0.2" fill="#21527C" enable-background="new    " d="M229.076,425.479c-0.051-0.4-0.377-0.699-0.764-0.729
					l-0.126-0.996c0.253-0.106,0.416-0.371,0.379-0.657c-0.029-0.227-0.175-0.408-0.369-0.495c-0.065,0.862-0.341,1.79,0.129,2.566
					c0.163,0.365,0.352,0.847,0.251,1.183C228.91,426.208,229.124,425.858,229.076,425.479z"/>
				<path fill="#21527C" d="M235.725,428.421c0.026,0.235-0.143,0.448-0.377,0.476l-0.532,0.061
					c-0.235,0.027-0.448-0.142-0.475-0.377l-0.146-1.277c-0.026-0.235,0.142-0.448,0.377-0.475l0.532-0.062
					c0.235-0.027,0.448,0.142,0.475,0.377L235.725,428.421z"/>
				<path opacity="0.3" fill="#21527C" enable-background="new    " d="M235.578,427.144c-0.027-0.235-0.239-0.404-0.475-0.377
					l-0.532,0.062c-0.235,0.026-0.404,0.239-0.377,0.475l0.146,1.277c0.027,0.235,0.24,0.404,0.475,0.377l0.425-0.049
					c0.19-0.366,0.229-0.807,0.403-1.194L235.578,427.144z"/>
				<g>
					<path fill="#21527C" d="M228.959,431.537c0.133,0.014,0.239,0.025,0.35,0.039l0.104-1.04l-1.029,0.228l-0.072,0.722
						C228.533,431.499,228.724,431.514,228.959,431.537z"/>
					<path opacity="0.3" fill="#21527C" enable-background="new    " d="M228.959,431.537c0.133,0.014,0.239,0.025,0.35,0.039
						l0.104-1.04l-1.029,0.228l-0.072,0.722C228.533,431.499,228.724,431.514,228.959,431.537z"/>
					<g>
						<path fill="#21527C" d="M237.525,434.447c-0.058-0.081-0.11-0.164-0.176-0.241c-0.666-0.779-1.48-1.315-2.478-1.553
							c-0.516-0.123-1.038-0.152-1.565-0.091c-0.168,0.019-0.337,0.033-0.502,0.075c-0.319,0.081-0.472,0.309-0.412,0.635
							c0.07,0.385,0.28,0.701,0.512,1.001c0.062,0.081,0.166,0.128,0.251,0.19c0.272,0.196,0.531,0.408,0.778,0.633h3.592V434.447z"
							/>
					</g>
					<g>
						<path fill="#21527C" d="M224.31,432.143c-0.146-0.034-0.295-0.044-0.444-0.058c-0.465-0.046-0.924-0.012-1.377,0.104
							c-0.812,0.207-1.476,0.644-2.026,1.255v1.652h2.135c0.428-0.502,0.898-0.959,1.431-1.354c0.074-0.055,0.165-0.099,0.218-0.169
							c0.2-0.266,0.379-0.546,0.436-0.882C224.73,432.406,224.592,432.208,224.31,432.143z"/>
					</g>
					<path fill="#21527C" d="M231.991,435.096c0.557-0.727,0.911-1.43,0.945-1.764c0.086-0.868-1.772-1.569-4.127-1.805
						s-4.316,0.084-4.403,0.953c-0.042,0.427,0.312,1.553,0.961,2.615H231.991z"/>
					<path opacity="0.3" fill="#21527C" enable-background="new    " d="M224.406,432.481c-0.022,0.219,0.06,0.62,0.232,1.103
						c2.646,0.26,5.717,0.479,8.001-0.884c-0.609-0.566-2.082-0.998-3.83-1.172C226.453,431.292,224.493,431.612,224.406,432.481z"
						/>
					<path fill="#21527C" d="M235.185,428.174l-0.101-1.033c-0.112-1.142-1.07-1.982-2.138-1.877l-9.745,0.93
						c-1.069,0.104-1.844,1.114-1.732,2.256l0.102,1.033c0.112,1.142,1.069,1.981,2.138,1.878l9.745-0.93
						C234.522,430.326,235.297,429.316,235.185,428.174z M227.154,429.165c-0.305,0.448-0.931,0.62-1.423,0.389
						c-0.539-0.254-0.798-0.83-0.629-1.398c0.15-0.507,0.691-0.869,1.205-0.801c-0.256,0.222-0.326,0.452-0.214,0.696
						c0.095,0.208,0.323,0.335,0.548,0.305c0.275-0.036,0.429-0.211,0.48-0.544C227.425,428.096,227.441,428.741,227.154,429.165z
						 M231.405,428.729c-0.298,0.438-0.909,0.605-1.388,0.379c-0.525-0.246-0.778-0.809-0.613-1.363
						c0.147-0.494,0.674-0.847,1.174-0.78c-0.25,0.216-0.317,0.44-0.208,0.678c0.093,0.204,0.315,0.327,0.534,0.299
						c0.268-0.036,0.418-0.206,0.468-0.531C231.669,427.687,231.684,428.317,231.405,428.729z"/>
					<path fill="#21527C" d="M228.956,435.096c0.162-0.167,0.257-0.382,0.242-0.605c-0.32-0.031-0.644-0.063-0.977-0.097
						c0.033-0.337,0.065-0.656,0.098-0.987c-0.578-0.078-1.077,0.364-1.114,0.966c-0.017,0.271,0.092,0.53,0.272,0.724H228.956z"/>
					<path fill="#21527C" d="M228.531,433.136c0.602,0.023,1.067,0.597,0.981,1.181c-0.045,0-0.091,0.003-0.138-0.001
						c-0.308-0.029-0.615-0.062-0.951-0.095c0.019-0.195,0.037-0.374,0.055-0.553C228.495,433.494,228.513,433.321,228.531,433.136z
						"/>
				</g>
				<g>
					<path fill="#21527C" d="M227.711,428.271c-0.165,1.461-1.39,2.493-2.858,2.407c-1.467-0.085-2.489-1.449-2.407-2.857
						c0.085-1.467,1.449-2.489,2.857-2.407C226.771,425.499,227.793,426.863,227.711,428.271c-0.02,0.336,0.501,0.381,0.521,0.044
						c0.103-1.755-1.137-3.226-2.884-3.423c-1.747-0.196-3.234,1.208-3.423,2.885c-0.197,1.747,1.208,3.233,2.884,3.422
						c1.747,0.197,3.234-1.207,3.423-2.884C228.269,427.98,227.749,427.936,227.711,428.271z"/>
					<path fill="#21527C" d="M234.357,427.568c-0.165,1.461-1.39,2.493-2.857,2.407c-1.468-0.086-2.49-1.449-2.408-2.857
						c0.085-1.468,1.449-2.49,2.857-2.407C233.417,424.795,234.439,426.159,234.357,427.568c-0.02,0.336,0.501,0.381,0.521,0.044
						c0.103-1.755-1.137-3.226-2.884-3.423c-1.747-0.196-3.234,1.208-3.423,2.885c-0.196,1.747,1.208,3.233,2.884,3.422
						c1.747,0.197,3.234-1.207,3.423-2.884C234.915,427.277,234.394,427.233,234.357,427.568z"/>
					<path fill="#21527C" d="M228.11,427.955c0.194-0.026,0.388-0.052,0.582-0.077c0.142-0.019,0.234-0.171,0.209-0.305
						c-0.027-0.146-0.164-0.228-0.305-0.209c-0.194,0.025-0.389,0.05-0.583,0.076c-0.141,0.019-0.234,0.17-0.209,0.305
						C227.831,427.891,227.968,427.973,228.11,427.955L228.11,427.955z"/>
				</g>
			</g>
		</g>
	</g>
	<g>
		<g>
			<circle fill="#21527C" cx="194.773" cy="396.484" r="1.56"/>
			<circle fill="#21527C" cx="199.186" cy="396.121" r="1.561"/>
			<g>
				<g>
					<path fill="#21527C" d="M191.207,397.954c0.027,0.235-0.142,0.448-0.377,0.475l-0.532,0.062
						c-0.235,0.026-0.448-0.142-0.475-0.377l-0.146-1.277c-0.027-0.235,0.142-0.448,0.377-0.476l0.533-0.061
						c0.235-0.027,0.447,0.142,0.475,0.377L191.207,397.954z"/>
					<path opacity="0.3" fill="#21527C" enable-background="new    " d="M191.207,397.954l-0.146-1.277
						c-0.027-0.235-0.24-0.404-0.475-0.377l-0.533,0.061c-0.015,0.002-0.03,0.005-0.045,0.008c0.142,0.639,0.17,1.363-0.133,1.907
						c0.082,0.145,0.246,0.235,0.422,0.215l0.533-0.061C191.066,398.403,191.234,398.19,191.207,397.954z"/>
				</g>
				<g>
					<circle fill="#21527C" cx="196.99" cy="393.608" r="0.836"/>
					<path fill="#21527C" d="M197.308,391.121c0.043,0.345-0.2,0.658-0.544,0.702c-0.344,0.044-0.658-0.2-0.701-0.544
						c-0.044-0.345,0.2-0.658,0.543-0.702C196.95,390.533,197.265,390.778,197.308,391.121z"/>
					
						<rect x="196.74" y="391.55" transform="matrix(-0.9925 0.1222 -0.1222 -0.9925 440.25 758.1897)" fill="#21527C" width="0.288" height="2.081"/>
				</g>
				<path opacity="0.2" fill="#21527C" enable-background="new    " d="M197.819,393.503c-0.051-0.4-0.377-0.699-0.764-0.729
					l-0.126-0.996c0.253-0.106,0.416-0.371,0.379-0.657c-0.029-0.227-0.175-0.408-0.369-0.495c-0.065,0.862-0.341,1.79,0.129,2.566
					c0.163,0.365,0.352,0.847,0.251,1.183C197.653,394.233,197.867,393.882,197.819,393.503z"/>
				<path fill="#21527C" d="M204.468,396.446c0.026,0.235-0.143,0.448-0.377,0.476l-0.532,0.061
					c-0.235,0.027-0.448-0.142-0.475-0.377l-0.146-1.277c-0.026-0.235,0.142-0.448,0.377-0.475l0.532-0.062
					c0.235-0.027,0.448,0.142,0.475,0.377L204.468,396.446z"/>
				<path opacity="0.3" fill="#21527C" enable-background="new    " d="M204.321,395.168c-0.027-0.235-0.239-0.404-0.475-0.377
					l-0.532,0.062c-0.235,0.026-0.404,0.239-0.377,0.475l0.146,1.277c0.027,0.235,0.24,0.404,0.475,0.377l0.425-0.049
					c0.19-0.366,0.229-0.807,0.403-1.194L204.321,395.168z"/>
				<g>
					<path fill="#21527C" d="M197.701,399.562c0.133,0.014,0.239,0.025,0.35,0.039l0.104-1.04l-1.029,0.228l-0.072,0.722
						C197.276,399.524,197.467,399.538,197.701,399.562z"/>
					<path opacity="0.3" fill="#21527C" enable-background="new    " d="M197.701,399.562c0.133,0.014,0.239,0.025,0.35,0.039
						l0.104-1.04l-1.029,0.228l-0.072,0.722C197.276,399.524,197.467,399.538,197.701,399.562z"/>
					<g>
						<path fill="#21527C" d="M206.268,402.471c-0.058-0.081-0.11-0.164-0.176-0.241c-0.666-0.779-1.48-1.315-2.478-1.553
							c-0.516-0.123-1.038-0.152-1.565-0.091c-0.168,0.019-0.337,0.033-0.502,0.075c-0.319,0.081-0.472,0.309-0.412,0.635
							c0.07,0.385,0.28,0.701,0.512,1.001c0.062,0.081,0.166,0.128,0.251,0.19c0.272,0.196,0.531,0.408,0.778,0.633h3.592V402.471z"
							/>
					</g>
					<g>
						<path fill="#21527C" d="M193.052,400.167c-0.146-0.034-0.295-0.044-0.444-0.058c-0.465-0.046-0.924-0.012-1.377,0.104
							c-0.812,0.207-1.476,0.644-2.026,1.255v1.652h2.135c0.428-0.502,0.898-0.959,1.431-1.354c0.074-0.055,0.165-0.099,0.218-0.169
							c0.2-0.266,0.379-0.546,0.436-0.882C193.472,400.43,193.335,400.233,193.052,400.167z"/>
					</g>
					<path fill="#21527C" d="M200.734,403.12c0.557-0.727,0.911-1.43,0.945-1.764c0.086-0.868-1.772-1.569-4.127-1.805
						s-4.316,0.084-4.403,0.953c-0.042,0.427,0.312,1.553,0.961,2.615H200.734z"/>
					<path opacity="0.3" fill="#21527C" enable-background="new    " d="M193.149,400.505c-0.022,0.219,0.06,0.62,0.232,1.103
						c2.646,0.26,5.717,0.479,8.001-0.884c-0.609-0.566-2.082-0.998-3.83-1.172C195.196,399.317,193.236,399.636,193.149,400.505z"
						/>
					<path fill="#21527C" d="M203.927,396.198l-0.101-1.033c-0.112-1.142-1.07-1.982-2.138-1.877l-9.745,0.93
						c-1.069,0.104-1.844,1.114-1.732,2.256l0.102,1.033c0.112,1.142,1.069,1.981,2.138,1.878l9.745-0.93
						C203.264,398.351,204.04,397.34,203.927,396.198z M195.897,397.19c-0.305,0.448-0.931,0.62-1.423,0.389
						c-0.539-0.254-0.798-0.83-0.629-1.398c0.15-0.507,0.691-0.869,1.205-0.801c-0.256,0.222-0.326,0.452-0.214,0.696
						c0.095,0.208,0.323,0.335,0.548,0.305c0.275-0.036,0.429-0.211,0.48-0.544C196.168,396.12,196.184,396.766,195.897,397.19z
						 M200.147,396.753c-0.298,0.438-0.909,0.605-1.388,0.379c-0.525-0.246-0.778-0.809-0.613-1.363
						c0.147-0.494,0.674-0.847,1.174-0.78c-0.25,0.216-0.317,0.44-0.208,0.678c0.093,0.204,0.315,0.327,0.534,0.299
						c0.268-0.036,0.418-0.206,0.468-0.531C200.412,395.711,200.427,396.341,200.147,396.753z"/>
					<path fill="#21527C" d="M197.699,403.12c0.162-0.167,0.257-0.382,0.242-0.605c-0.32-0.031-0.644-0.063-0.977-0.097
						c0.033-0.337,0.065-0.656,0.098-0.987c-0.578-0.078-1.077,0.364-1.114,0.966c-0.017,0.271,0.092,0.53,0.272,0.724H197.699z"/>
					<path fill="#21527C" d="M197.274,401.16c0.602,0.023,1.067,0.597,0.981,1.181c-0.045,0-0.091,0.003-0.138-0.001
						c-0.308-0.029-0.615-0.062-0.951-0.095c0.019-0.195,0.037-0.374,0.055-0.553C197.238,401.519,197.256,401.345,197.274,401.16z"
						/>
				</g>
				<g>
					<path fill="#21527C" d="M196.454,396.295c-0.165,1.461-1.39,2.493-2.858,2.407c-1.467-0.085-2.489-1.449-2.407-2.857
						c0.085-1.467,1.449-2.489,2.857-2.407C195.513,393.524,196.536,394.887,196.454,396.295c-0.02,0.336,0.501,0.381,0.521,0.044
						c0.103-1.755-1.137-3.226-2.884-3.423c-1.747-0.196-3.234,1.208-3.423,2.885c-0.197,1.747,1.208,3.233,2.884,3.422
						c1.747,0.197,3.234-1.207,3.423-2.884C197.012,396.004,196.491,395.96,196.454,396.295z"/>
					<path fill="#21527C" d="M203.099,395.592c-0.165,1.461-1.39,2.493-2.857,2.407c-1.468-0.086-2.49-1.449-2.408-2.857
						c0.085-1.468,1.449-2.49,2.857-2.407C202.159,392.82,203.181,394.184,203.099,395.592c-0.02,0.336,0.501,0.381,0.521,0.044
						c0.103-1.755-1.137-3.226-2.884-3.423c-1.747-0.196-3.234,1.208-3.423,2.885c-0.196,1.747,1.208,3.233,2.884,3.422
						c1.747,0.197,3.234-1.207,3.423-2.884C203.658,395.301,203.136,395.257,203.099,395.592z"/>
					<path fill="#21527C" d="M196.852,395.98c0.194-0.026,0.388-0.052,0.582-0.077c0.142-0.019,0.234-0.171,0.209-0.305
						c-0.027-0.146-0.164-0.228-0.305-0.209c-0.194,0.025-0.389,0.05-0.583,0.076c-0.141,0.019-0.234,0.17-0.209,0.305
						C196.573,395.915,196.711,395.997,196.852,395.98L196.852,395.98z"/>
				</g>
			</g>
		</g>
	</g>
</g>
</svg>
