<?xml version="1.0" encoding="utf-8"?>
<!-- Generator: Adobe Illustrator 16.0.0, SVG Export Plug-In . SVG Version: 6.00 Build 0)  -->
<!DOCTYPE svg PUBLIC "-//W3C//DTD SVG 1.1//EN" "http://www.w3.org/Graphics/SVG/1.1/DTD/svg11.dtd">
<svg version="1.1" id="Capa_1" xmlns="http://www.w3.org/2000/svg" xmlns:xlink="http://www.w3.org/1999/xlink" x="0px" y="0px"
	 width="333.044px" height="111.305px" viewBox="0 0 333.044 111.305" enable-background="new 0 0 333.044 111.305"
	 xml:space="preserve">
<g>
	<polygon fill="#FFFFFF" points="248.191,18.316 219.701,32.869 213.778,21.189 242.267,6.637 	"/>
	
		<linearGradient id="SVGID_1_" gradientUnits="userSpaceOnUse" x1="-5441.7578" y1="5387.3223" x2="-5427.6685" y2="5387.3223" gradientTransform="matrix(-0.0844 0.4509 -1.2154 -0.2275 6313.2891 3705.1875)">
		<stop  offset="0" style="stop-color:#FFFFFF"/>
		<stop  offset="1" style="stop-color:#000000"/>
	</linearGradient>
	<polygon opacity="0.4" fill="url(#SVGID_1_)" points="219.701,32.869 237.083,24.068 213.778,21.189 	"/>
	<rect x="28.153" y="73.227" fill-rule="evenodd" clip-rule="evenodd" fill="#FFFFFF" width="45.997" height="19.359"/>
	<linearGradient id="SVGID_2_" gradientUnits="userSpaceOnUse" x1="53.9722" y1="84.4883" x2="61.9836" y2="82.042">
		<stop  offset="0" style="stop-color:#FFFFFF"/>
		<stop  offset="1" style="stop-color:#000000"/>
	</linearGradient>
	<polygon opacity="0.4" fill="url(#SVGID_2_)" points="66.73,92.621 66.502,73.227 51.469,73.227 51.697,92.621 	"/>
	
		<linearGradient id="SVGID_3_" gradientUnits="userSpaceOnUse" x1="3284.5566" y1="84.4893" x2="3292.5674" y2="82.0433" gradientTransform="matrix(-1.0141 0 0 1 3372.5059 0)">
		<stop  offset="0" style="stop-color:#FFFFFF"/>
		<stop  offset="1" style="stop-color:#000000"/>
	</linearGradient>
	<polygon opacity="0.4" fill="url(#SVGID_3_)" points="28.697,92.621 28.93,73.227 44.174,73.227 43.941,92.621 	"/>
	<path fill-rule="evenodd" clip-rule="evenodd" fill="#FFFFFF" d="M35.454,22.596L4.691,99.77c0.691,0.309,0.978,1.006,0.796,1.752
		h26.034l31.465-78.926H35.454z"/>
	<path fill="#FFFFFF" d="M163.015,42.813c-5.886-6.545-12.942-9.793-21.162-9.793H99.375v68.502h42.479
		c8.296,0,15.367-3.881,21.22-10.424c5.851-6.551,8.775-14.865,8.775-24.375C171.849,57.521,168.905,49.363,163.015,42.813z
		 M144.174,73.434c-1.831,1.91-4.038,2.771-6.618,2.771h-13.699V56.846h13.699c2.58,0,4.787,0.91,6.618,2.82
		s2.749,4.127,2.749,6.795C146.923,69.248,146.005,71.527,144.174,73.434z"/>
	<path fill="#FFFFFF" d="M211.994,28.955c-20.301,0-36.758,16.518-36.758,36.891c0,20.377,16.457,36.895,36.758,36.895
		s36.758-16.518,36.758-36.895C248.752,45.473,232.295,28.955,211.994,28.955z M211.35,78.836c-6.791,0-12.297-5.527-12.297-12.342
		s5.506-12.342,12.297-12.342c6.79,0,12.297,5.527,12.297,12.342S218.14,78.836,211.35,78.836z"/>
	<linearGradient id="SVGID_4_" gradientUnits="userSpaceOnUse" x1="39.3013" y1="45.8174" x2="46.5607" y2="41.2649">
		<stop  offset="0" style="stop-color:#FFFFFF"/>
		<stop  offset="1" style="stop-color:#000000"/>
	</linearGradient>
	<polygon opacity="0.4" fill="url(#SVGID_4_)" points="59.214,31.896 44.975,67.84 21.523,58.715 35.454,22.65 	"/>
	<path fill-rule="evenodd" clip-rule="evenodd" fill="#FFFFFF" d="M94.352,100.592c0.083-0.254,0.248-0.463,0.453-0.615
		L63.969,22.596H36.438l31.464,78.926h26.141C94.146,101.521,94.247,100.916,94.352,100.592z"/>
	
		<linearGradient id="SVGID_5_" gradientUnits="userSpaceOnUse" x1="3353.4805" y1="7115.7891" x2="3359.146" y2="7115.7891" gradientTransform="matrix(-1 0 0 -1 3481.957 7204.6523)">
		<stop  offset="0" style="stop-color:#FFFFFF"/>
		<stop  offset="1" style="stop-color:#000000"/>
	</linearGradient>
	<rect x="121.631" y="76.205" opacity="0.4" fill="url(#SVGID_5_)" width="10.386" height="25.316"/>
	<rect x="99.375" y="33.02" fill="#FFFFFF" width="24.482" height="68.502"/>
	<linearGradient id="SVGID_6_" gradientUnits="userSpaceOnUse" x1="215.8516" y1="85.7813" x2="228.2461" y2="85.7813">
		<stop  offset="0" style="stop-color:#FFFFFF"/>
		<stop  offset="1" style="stop-color:#000000"/>
	</linearGradient>
	<path opacity="0.4" fill="url(#SVGID_6_)" d="M227.805,72.098l-4.249-3.084c-0.872,4.225-3.995,7.656-7.704,9.092v24.443
		c4.451-0.426,8.537-1.641,12.395-3.527L227.805,72.098z"/>
	<rect x="223.561" y="65.035" fill="#FFFFFF" width="24.934" height="37.23"/>
	<rect x="254.43" y="30.039" fill="#FFFFFF" width="19.289" height="68.502"/>
	<rect x="305.619" y="30.039" fill="#FFFFFF" width="17.064" height="72.227"/>
	<linearGradient id="SVGID_7_" gradientUnits="userSpaceOnUse" x1="262.002" y1="51.812" x2="267.1519" y2="48.6853">
		<stop  offset="0" style="stop-color:#FFFFFF"/>
		<stop  offset="1" style="stop-color:#000000"/>
	</linearGradient>
	<polygon opacity="0.4" fill="url(#SVGID_7_)" points="254.719,31.533 255.423,44.412 273.719,69.4 273.719,62.307 277.934,59.111 	
		"/>
	
		<linearGradient id="SVGID_8_" gradientUnits="userSpaceOnUse" x1="3584.8779" y1="7080.166" x2="3589.886" y2="7077.1255" gradientTransform="matrix(-1 0 0 -1 3901.2598 7162.5234)">
		<stop  offset="0" style="stop-color:#FFFFFF"/>
		<stop  offset="1" style="stop-color:#000000"/>
	</linearGradient>
	<polygon opacity="0.4" fill="url(#SVGID_8_)" points="322.684,102.266 322.684,89.395 305.619,65.16 305.619,71.055 
		301.252,75.855 	"/>
	<polygon fill="#FFFFFF" points="322.684,102.266 295.728,102.266 254.719,30.039 283.197,30.039 	"/>
	<path fill-rule="evenodd" clip-rule="evenodd" fill="#FFFFFF" d="M248.494,103.031c0,1.254-0.717,1.467-1.959,1.467h-19.908
		c-1.24,0-3.066-0.213-3.066-1.467V92.787c0-1.252,1.826-2.434,3.066-2.434h19.908c1.242,0,1.959,1.182,1.959,2.434V103.031z"/>
	<path fill-rule="evenodd" clip-rule="evenodd" fill="#FFFFFF" d="M123.857,101.775c0,1.252-0.737,1.98-2.041,1.98h-19.28
		c-1.301,0-3.161-0.729-3.161-1.98V91.531c0-1.254,1.86-1.924,3.161-1.924h19.28c1.304,0,2.041,0.67,2.041,1.924V101.775z"/>
	<path fill-rule="evenodd" clip-rule="evenodd" fill="#FFFFFF" d="M80.266,88.119h-9.864c-1.253,0-2.928,1.234-2.928,2.488v10.252
		c0,1.252,1.675,2.15,2.928,2.15h22.756c1.256,0,1.991-0.703,1.991-1.955l-1.483-3.916L80.266,88.119z"/>
	<path fill-rule="evenodd" clip-rule="evenodd" fill="#FFFFFF" d="M19.217,88.119h9.902c1.259,0,2.744,1.234,2.744,2.488v10.252
		c0,1.252-1.485,2.15-2.744,2.15H6.271c-1.26,0-1.997-0.703-1.997-1.955l1.489-3.916L19.217,88.119z"/>
	<path fill-rule="evenodd" clip-rule="evenodd" fill="#FFFFFF" d="M273.719,103.004c0,1.271-1.06,1.494-2.43,1.494h-13.834
		c-1.369,0-3.025-0.223-3.025-1.494V92.609c0-1.27,1.656-2.256,3.025-2.256h13.834c1.37,0,2.43,0.986,2.43,2.256V103.004z"/>
	<path fill-rule="evenodd" clip-rule="evenodd" fill="#FFFFFF" d="M322.684,40.059c0,1.209-1.021,1.896-2.305,1.896h-11.967
		c-1.283,0-2.793-0.688-2.793-1.896v-9.9c0-1.211,1.51-2.352,2.793-2.352h11.967c1.283,0,2.305,1.141,2.305,2.352V40.059z"/>
</g>
</svg>
