<?xml version="1.0" encoding="utf-8"?>
<!-- Generator: Adobe Illustrator 16.0.0, SVG Export Plug-In . SVG Version: 6.00 Build 0)  -->
<!DOCTYPE svg PUBLIC "-//W3C//DTD SVG 1.1//EN" "http://www.w3.org/Graphics/SVG/1.1/DTD/svg11.dtd">
<svg version="1.1" id="Capa_1" xmlns="http://www.w3.org/2000/svg" xmlns:xlink="http://www.w3.org/1999/xlink" x="0px" y="0px"
	 width="294.087px" height="220.565px" viewBox="0 0 294.087 220.565" enable-background="new 0 0 294.087 220.565"
	 xml:space="preserve">
<g>
	<path fill="#FFFFFF" d="M211.409,123.341c-4.374-4.625-9.969-6.939-16.767-6.939h-0.547c0.902,1.316,0.538,3.463,2.178,4.284
		c-9.933,3.612-20.686,7.207-31.521,9.358v54.989h22.025v-20.672h11.491c5.905,0,10.67-2.129,14.279-6.396
		c3.608-4.256,5.404-9.905,5.404-16.896C217.952,133.861,215.784,127.956,211.409,123.341z M195.252,145.188
		c-1.093,1.195-2.579,1.787-4.447,1.787h-4.027v-12.084h4.966c1.431,0,2.652,0.529,3.646,1.568c1.002,1.056,1.503,2.354,1.503,3.899
		C196.893,142.39,196.346,143.994,195.252,145.188z"/>
	<path fill="#FFFFFF" d="M70.692,160.202c-1.922,2.449-4.365,3.672-7.318,3.672c-3.016,0-5.513-1.223-7.499-3.672
		c-1.987-2.462-2.962-5.601-2.962-9.428c0-3.818,0.975-7.003,2.962-9.523c1.986-2.52,4.483-3.771,7.499-3.771
		c2.953,0,5.396,1.212,7.318,3.682c1.914,2.441,2.871,5.613,2.871,9.513C73.563,154.564,72.606,157.74,70.692,160.202
		 M86.165,125.888c-5.795-6.306-13.396-9.463-22.791-9.463c-9.404,0-17.004,3.157-22.79,9.463
		c-5.796,6.324-8.694,14.616-8.694,24.878c0,10.21,2.897,18.462,8.694,24.771c5.786,6.316,13.386,9.473,22.79,9.473
		c9.396,0,16.996-3.156,22.791-9.473c5.787-6.31,8.684-14.562,8.684-24.771C94.849,140.504,91.952,132.212,86.165,125.888"/>
	<path fill="#FFFFFF" d="M143.101,133.721c0.865-6.074-2.762-11.396-3.108-17.273h-0.264v34.654l-18.689-34.654H99.47v68.586h21.469
		l-0.091-33.525L139,185.033h22.025v-55.792C155.266,131.725,148.741,131.848,143.101,133.721z"/>
	<polygon fill="#FFFFFF" points="263.688,165.806 244.341,165.806 244.341,159.485 261.428,159.485 261.428,141.552 
		244.341,141.552 244.341,134.923 263.124,134.923 263.124,116.438 222.271,116.438 222.271,185.065 263.688,185.065 	"/>
	<path fill="#FFFFFF" d="M97.583,15.023v100.176h42.101c-1.221-1.249-1.594-2.679-1.395-4.01h-36.687V19.038h92.375v92.151h-0.31
		c0.592,1.216,0.711,2.688,0.337,4.01h3.991V15.023H97.583z"/>
	<path fill="#FFFFFF" d="M143.447,135.866l-14.179-56.173l9.386-9.91l5.267,15.927l5.95,1.12l5.933-8.082l9.532,6.179l5.048-4.79
		l-7.181-39.046l13.478-3.414l21.132,84.611L143.447,135.866z M132.584,80.562l13.049,51.659l48.535-12.129l-19.666-78.755
		l-7.837,1.986l6.971,37.877l-7.955,7.535l-9.13-5.918l-5.368,7.324l-9.568-1.81l-4.237-12.83L132.584,80.562z"/>
	<path fill="#FFFFFF" d="M175.123,39.787l2.816,11.059c0,0,9.96-12.958,6.16-23.507c0,0-2.168-6.142-6.078-10.309h-8.639
		c0,0,8.329,8.231,8.074,14.724C177.191,38.258,175.123,39.787,175.123,39.787"/>
	<path fill="#FFFFFF" d="M99.597,17.03V50.26c0,0,0.93,7.486,3.399,16.956c2.479,9.469,3.354,17.913,11.363,16.598
		c0,0,5.303-0.486,6.242-3.939c0,0,4.93,3.046,9.687,1.699c4.747-1.345,6.725-4.798,6.725-4.798s2.37,9.194,3.409,11.478
		c1.039,2.297,5.631,3.945,9.194,3.096c3.553-0.85,7.573-6.22,7.573-6.22s4.31,5.997,11.117,3.26c0,0,7.044-3.239,5.969-8.201
		c-1.076-4.972-10.462-43.843-10.462-43.843l-6.242,1.543l9.833,39.123c0,0,1.704,5.551-1.786,6.54c0,0-3.226,0.722-4.119-2.151
		c-0.902-2.873-7.226-29.367-7.226-29.367l-7.008,1.761l5.358,22.759c0,0,1.968,6.642-2.47,8.211c0,0-5.331,1.88-6.861-4.442
		c-1.541-6.32-6.087-24.03-6.087-24.03l-6.962,1.661l1.978,8.647c0,0,1.932,6.512-2.151,8.211c-4.082,1.701-6.324-1.304-6.816-3.098
		c-0.492-1.792-2.579-11.317-2.579-11.317l-6.524,1.65l2.424,9.755c0,0,1.13,3.948-1.722,4.711c-2.853,0.76-3.746-2.419-4.11-3.479
		c-0.364-1.043-4.547-13.533-5.349-18.296c-0.792-4.773-3.125-20.877-3.217-24.107c-0.1-3.229-0.574-7.976,0.848-13.599H99.597z"/>
</g>
</svg>
