<?xml version="1.0" encoding="utf-8"?>
<!-- Generator: Adobe Illustrator 16.0.0, SVG Export Plug-In . SVG Version: 6.00 Build 0)  -->
<!DOCTYPE svg PUBLIC "-//W3C//DTD SVG 1.1//EN" "http://www.w3.org/Graphics/SVG/1.1/DTD/svg11.dtd">
<svg version="1.1" id="Capa_1" xmlns="http://www.w3.org/2000/svg" xmlns:xlink="http://www.w3.org/1999/xlink" x="0px" y="0px"
	 width="512px" height="768px" viewBox="0 0 512 768" enable-background="new 0 0 512 768" xml:space="preserve">
<rect fill-rule="evenodd" clip-rule="evenodd" fill="#0B2D46" width="512" height="768"/>
<g>
	<g>
		<path fill-rule="evenodd" clip-rule="evenodd" fill="#FFFFFF" d="M180.297,320.674c0.563,2.603-1.089,5.172-3.691,5.736
			l-5.892,1.279c-2.603,0.564-5.171-1.088-5.735-3.691l-3.068-14.139c-0.565-2.604,1.087-5.172,3.69-5.736l5.891-1.279
			c2.603-0.564,5.171,1.088,5.736,3.691L180.297,320.674z"/>
		<linearGradient id="SVGID_1_" gradientUnits="userSpaceOnUse" x1="170.6611" y1="315.1416" x2="177.8517" y2="317.1697">
			<stop  offset="0" style="stop-color:#FFFFFF"/>
			<stop  offset="1" style="stop-color:#000000"/>
		</linearGradient>
		<path opacity="0.3" fill-rule="evenodd" clip-rule="evenodd" fill="url(#SVGID_1_)" d="M180.297,320.674l-3.069-14.139
			c-0.564-2.604-3.133-4.256-5.736-3.691l-5.891,1.279c-0.169,0.036-0.334,0.083-0.495,0.135c2.295,6.988,3.43,15.076,0.644,21.497
			c1.083,1.534,3.014,2.358,4.965,1.935l5.892-1.279C179.208,325.846,180.86,323.276,180.297,320.674z"/>
	</g>
	<g>
		<circle fill-rule="evenodd" clip-rule="evenodd" fill="#FFFFFF" cx="240.172" cy="265.551" r="9.405"/>
		<circle fill-rule="evenodd" clip-rule="evenodd" fill="#FFFFFF" cx="234.073" cy="238.937" r="7.066"/>
		
			<rect x="236.251" y="242.563" transform="matrix(0.9746 -0.2237 0.2237 0.9746 -50.8599 59.6679)" fill-rule="evenodd" clip-rule="evenodd" fill="#FFFFFF" width="3.247" height="23.414"/>
	</g>
	<linearGradient id="SVGID_2_" gradientUnits="userSpaceOnUse" x1="240.8721" y1="252.9043" x2="244.5594" y2="251.9212">
		<stop  offset="0" style="stop-color:#FFFFFF"/>
		<stop  offset="1" style="stop-color:#000000"/>
	</linearGradient>
	<path opacity="0.2" fill-rule="evenodd" clip-rule="evenodd" fill="url(#SVGID_2_)" d="M249.34,263.45
		c-1.016-4.427-5-7.401-9.369-7.304l-2.523-11.008c2.715-1.477,4.236-4.621,3.512-7.78c-0.574-2.502-2.414-4.38-4.687-5.128
		c0.233,9.721-1.813,20.41,4.317,28.586c2.232,3.906,4.884,9.079,4.125,12.963C248.297,271.803,250.299,267.637,249.34,263.45z"/>
	<path fill-rule="evenodd" clip-rule="evenodd" fill="#FFFFFF" d="M327.061,288.961c0.563,2.604-1.09,5.172-3.692,5.736
		l-5.892,1.279c-2.603,0.564-5.171-1.088-5.734-3.691l-3.069-14.139c-0.565-2.604,1.088-5.172,3.69-5.736l5.892-1.279
		c2.603-0.564,5.171,1.089,5.735,3.691L327.061,288.961z"/>
	<linearGradient id="SVGID_3_" gradientUnits="userSpaceOnUse" x1="325.9229" y1="285.4033" x2="310.9499" y2="281.9656">
		<stop  offset="0" style="stop-color:#FFFFFF"/>
		<stop  offset="1" style="stop-color:#000000"/>
	</linearGradient>
	<path opacity="0.3" fill-rule="evenodd" clip-rule="evenodd" fill="url(#SVGID_3_)" d="M323.99,274.822
		c-0.564-2.603-3.133-4.256-5.735-3.691l-5.892,1.279c-2.603,0.564-4.256,3.133-3.69,5.736l3.069,14.139
		c0.563,2.604,3.132,4.256,5.734,3.691l4.701-1.02c1.715-4.311,1.659-9.291,3.182-13.828L323.99,274.822z"/>
	<g>
		<path fill-rule="evenodd" clip-rule="evenodd" fill="#FFFFFF" d="M294.732,379.061c-7.963,0-15.154,3.055-20.285,7.963
			c-4.979,4.163-11.959,6.705-19.197,6.705c-7.764,0-14.25-2.916-20.25-7.632v0.13c-6-5.895-12.686-9.664-21.532-9.664
			c-15.587,0-28.032,11.693-28.032,26.117c0,14.426,12.745,25.697,28.334,25.697c7.961,0,15.27-1.377,20.421-8.377h-0.017
			c5.151-3,11.638-6.424,18.958-6.424c7.423,0,14.157,2.883,19.174,7.236c5.156,6.242,13.283,10.376,22.431,10.376
			c15.585,0,28.22-11.64,28.22-26.063C322.956,390.703,310.318,379.061,294.732,379.061z"/>
		<linearGradient id="SVGID_4_" gradientUnits="userSpaceOnUse" x1="253.8672" y1="406.002" x2="258.1639" y2="371.6312">
			<stop  offset="0" style="stop-color:#FFFFFF"/>
			<stop  offset="1" style="stop-color:#000000"/>
		</linearGradient>
		<path opacity="0.3" fill-rule="evenodd" clip-rule="evenodd" fill="url(#SVGID_4_)" d="M273.697,415.063
			c16.213,2.56,54.102,14.457,48.707-15.012c-2.576-11.967-13.983-20.99-27.672-20.99c-7.963,0-15.154,3.055-20.285,7.963
			c-4.979,4.163-11.959,6.705-19.197,6.705c-7.764,0-14.25-2.916-20.25-7.632v0.13c-6-5.895-12.686-9.664-21.532-9.664
			c-2.067,0-3.909,0.219-5.851,0.609c-17.803,3.629-28.527,23.475-17.373,29.739C207.677,416.705,260.011,413.541,273.697,415.063z"
			/>
		<path fill-rule="evenodd" clip-rule="evenodd" fill="#FFFFFF" d="M254.674,331.408c1.501,0,3.326,0.016,4.326,0.048v-11.769
			l-12,3.701v8.167C250,331.457,252.016,331.408,254.674,331.408z"/>
		<linearGradient id="SVGID_5_" gradientUnits="userSpaceOnUse" x1="247" y1="325.6216" x2="259" y2="325.6216">
			<stop  offset="0" style="stop-color:#FFFFFF"/>
			<stop  offset="1" style="stop-color:#000000"/>
		</linearGradient>
		<path opacity="0.3" fill-rule="evenodd" clip-rule="evenodd" fill="url(#SVGID_5_)" d="M254.674,331.408
			c1.501,0,3.326,0.016,4.326,0.048v-11.769l-12,3.701v8.167C250,331.457,252.016,331.408,254.674,331.408z"/>
		<g>
			<path fill-rule="evenodd" clip-rule="evenodd" fill="#FFFFFF" d="M346.582,306.12c-2.16-1.262-3.822-2.737-8.233-2.623
				c-4.415,0.11-10.151,0.72-13.892,5.114c-1.73,2.029-3.494,4.041-4.986,6.256c-5.543,8.219-11.844,15.78-19.313,22.332
				c-0.89,0.781-1.996,1.424-2.602,2.387c-2.263,3.588-4.26,7.334-4.621,11.676c-0.307,3.675,1.652,6.041,5.313,6.583
				c1.894,0.278,3.802,0.244,5.708,0.27c5.966,0.093,11.777-0.823,17.416-2.76c10.904-3.743,19.426-10.603,26.017-19.983
				c3.331-4.744,5.566-9.871,5.743-15.757C353.306,313.837,351.262,309.25,346.582,306.12z"/>
		</g>
		<g opacity="0.3">
			<linearGradient id="SVGID_6_" gradientUnits="userSpaceOnUse" x1="315.1064" y1="339.2656" x2="289.5551" y2="343.8281">
				<stop  offset="0" style="stop-color:#FFFFFF"/>
				<stop  offset="1" style="stop-color:#000000"/>
			</linearGradient>
			<path fill-rule="evenodd" clip-rule="evenodd" fill="url(#SVGID_6_)" d="M314.685,321.519
				c-4.337,5.665-9.122,10.94-14.526,15.681c-0.89,0.781-1.996,1.424-2.602,2.387c-2.263,3.588-4.26,7.334-4.621,11.676
				c-0.307,3.675,1.652,6.041,5.313,6.583c1.894,0.278,3.802,0.244,5.708,0.27c5.966,0.093,11.777-0.823,17.416-2.76
				c4.98-1.708,9.44-4.1,13.471-7.054C330.51,337.521,324.051,327.764,314.685,321.519z"/>
		</g>
		<g>
			<path fill-rule="evenodd" clip-rule="evenodd" fill="#FFFFFF" d="M161.652,389.695c1.922,1.078,3.408,2.352,7.296,2.186
				c3.883-0.17,8.93-0.797,12.156-4.723c1.494-1.816,3.014-3.613,4.294-5.588c4.754-7.328,10.188-14.086,16.664-19.977
				c0.771-0.698,1.737-1.284,2.255-2.143c1.938-3.193,3.639-6.525,3.889-10.354c0.211-3.244-1.55-5.299-4.782-5.718
				c-1.671-0.216-3.353-0.157-5.032-0.148c-5.256,0.012-10.363,0.909-15.299,2.701c-9.546,3.467-16.948,9.644-22.604,18.01
				c-2.863,4.229-4.752,8.782-4.816,13.97C155.609,383.003,157.479,387.012,161.652,389.695z"/>
		</g>
		<path fill-rule="evenodd" clip-rule="evenodd" fill="#FFFFFF" d="M301.327,347.058c0,9.828-21.589,50.229-48.223,50.229
			c-26.633,0-48.223-40.401-48.223-50.229c0-9.823,21.59-15.593,48.223-15.593C279.738,331.465,301.327,337.234,301.327,347.058z"/>
		<linearGradient id="SVGID_7_" gradientUnits="userSpaceOnUse" x1="250.8115" y1="341.0703" x2="249.2142" y2="324.8719">
			<stop  offset="0" style="stop-color:#FFFFFF"/>
			<stop  offset="1" style="stop-color:#000000"/>
		</linearGradient>
		<path opacity="0.3" fill-rule="evenodd" clip-rule="evenodd" fill="url(#SVGID_7_)" d="M204.882,347.058
			c0,2.47,1.364,6.875,3.831,12.082c29.91-0.054,64.534-1.031,88.581-18.843c-7.449-5.653-24.425-8.832-44.189-8.832
			C226.472,331.465,204.882,337.234,204.882,347.058z"/>
		<path fill-rule="evenodd" clip-rule="evenodd" fill="#FFFFFF" d="M320.739,286.795l-2.292-11.455
			c-2.53-12.651-14.188-20.99-26.034-18.619L184.36,278.016c-11.85,2.366-19.399,14.546-16.875,27.201l2.295,11.453
			c2.531,12.652,14.186,20.987,26.032,18.621l108.055-21.297C315.717,311.627,323.268,299.445,320.739,286.795z M231.937,306.862
			c-2.912,5.371-9.729,7.985-15.495,5.944c-6.313-2.23-9.858-8.396-8.601-14.947c1.122-5.848,6.766-10.501,12.589-10.308
			c-2.617,2.763-3.138,5.419-1.619,8.026c1.298,2.227,3.988,3.393,6.472,2.805c3.038-0.715,4.565-2.84,4.766-6.631
			C233.78,294.596,234.681,301.809,231.937,306.862z M279.034,297.232c-2.846,5.238-9.491,7.789-15.116,5.799
			c-6.156-2.178-9.611-8.189-8.387-14.58c1.096-5.701,6.596-10.239,12.277-10.051c-2.55,2.694-3.06,5.285-1.577,7.826
			c1.266,2.173,3.89,3.312,6.313,2.738c2.961-0.697,4.452-2.772,4.648-6.468C280.831,285.271,281.709,292.305,279.034,297.232z"/>
		<path fill-rule="evenodd" clip-rule="evenodd" fill="#0B2D46" d="M249.732,353.043c0,3.74,0,7.357,0,11.162
			c3.769,0,7.42,0,11.039,0c0.921,5.34-3.975,10.826-10.073,11.521c-6.167,0.7-12.135-4.426-12.365-10.624
			C238.081,358.325,243.175,352.819,249.732,353.043z"/>
		<path fill-rule="evenodd" clip-rule="evenodd" fill="#21527C" d="M251.797,349.781c6.757-0.412,12.615,5.485,12.296,12.118
			c-0.503,0.05-1.019,0.142-1.537,0.142c-3.477,0.013-6.959,0.007-10.759,0.007c0-2.206,0-4.228,0-6.249
			C251.797,353.834,251.797,351.873,251.797,349.781z"/>
	</g>
	<g>
		<path fill="#21527C" d="M237.174,296.231c-0.209,16.543-12.767,29.464-29.297,30.146c-16.524,0.684-29.491-13.438-30.146-29.296
			c-0.68-16.526,13.438-29.492,29.297-30.147C223.553,266.254,236.519,280.375,237.174,296.231c0.156,3.786,6.039,3.71,5.882-0.084
			c-0.817-19.765-16.333-34.843-36.112-35.095c-19.776-0.25-34.854,17.137-35.094,36.113c-0.251,19.775,17.135,34.854,36.112,35.095
			c19.773,0.251,34.854-17.134,35.094-36.113C243.103,292.352,237.223,292.443,237.174,296.231z"/>
		<path fill="#21527C" d="M310.785,280.929c-0.21,16.543-12.768,29.467-29.296,30.146c-16.528,0.684-29.492-13.438-30.147-29.294
			c-0.683-16.529,13.438-29.494,29.296-30.146C297.164,250.951,310.129,265.072,310.785,280.929c0.156,3.786,6.035,3.71,5.881-0.083
			c-0.815-19.764-16.333-34.844-36.111-35.093c-19.777-0.251-34.854,17.133-35.095,36.11c-0.25,19.777,17.134,34.855,36.112,35.096
			c19.776,0.251,34.854-17.135,35.095-36.113C316.714,277.049,310.831,277.143,310.785,280.929z"/>
		<path fill="#21527C" d="M241.279,292.25c2.145-0.506,4.29-1.008,6.436-1.51c1.563-0.362,2.432-2.17,2.004-3.646
			c-0.465-1.6-2.087-2.367-3.647-2.001c-2.146,0.501-4.291,1.003-6.436,1.505c-1.563,0.366-2.435,2.17-2.004,3.646
			C238.095,291.845,239.72,292.613,241.279,292.25L241.279,292.25z"/>
	</g>
</g>
<g>
	<polygon fill="#FFFFFF" points="343.713,456.49 315.223,471.043 309.3,459.363 337.788,444.811 	"/>
	
		<linearGradient id="SVGID_8_" gradientUnits="userSpaceOnUse" x1="-5116.8838" y1="5697.8945" x2="-5102.7959" y2="5697.8945" gradientTransform="matrix(-0.0844 0.4509 -1.2154 -0.2275 6813.6973 4067.5305)">
		<stop  offset="0" style="stop-color:#FFFFFF"/>
		<stop  offset="1" style="stop-color:#000000"/>
	</linearGradient>
	<polygon opacity="0.4" fill="url(#SVGID_8_)" points="315.223,471.043 332.604,462.242 309.3,459.363 	"/>
	<rect x="123.675" y="511.4" fill-rule="evenodd" clip-rule="evenodd" fill="#FFFFFF" width="45.997" height="19.359"/>
	<linearGradient id="SVGID_9_" gradientUnits="userSpaceOnUse" x1="149.4932" y1="522.6641" x2="157.5048" y2="520.2178">
		<stop  offset="0" style="stop-color:#FFFFFF"/>
		<stop  offset="1" style="stop-color:#000000"/>
	</linearGradient>
	<polygon opacity="0.4" fill="url(#SVGID_9_)" points="162.252,530.795 162.024,511.4 146.991,511.4 147.219,530.795 	"/>
	
		<linearGradient id="SVGID_10_" gradientUnits="userSpaceOnUse" x1="3374.1211" y1="522.6631" x2="3382.1318" y2="520.2171" gradientTransform="matrix(-1.0141 0 0 1 3558.8533 0)">
		<stop  offset="0" style="stop-color:#FFFFFF"/>
		<stop  offset="1" style="stop-color:#000000"/>
	</linearGradient>
	<polygon opacity="0.4" fill="url(#SVGID_10_)" points="124.218,530.795 124.451,511.4 139.695,511.4 139.463,530.795 	"/>
	<path fill-rule="evenodd" clip-rule="evenodd" fill="#FFFFFF" d="M130.976,460.77l-30.763,77.174
		c0.691,0.309,0.978,1.006,0.796,1.752h26.034l31.465-78.926H130.976z"/>
	<path fill="#FFFFFF" d="M258.537,480.986c-5.887-6.545-12.942-9.793-21.162-9.793h-42.479v68.502h42.479
		c8.296,0,15.367-3.881,21.22-10.424c5.851-6.551,8.775-14.865,8.775-24.375C267.37,495.695,264.427,487.537,258.537,480.986z
		 M239.695,511.607c-1.831,1.91-4.038,2.771-6.618,2.771h-13.699V495.02h13.699c2.58,0,4.787,0.91,6.618,2.82
		s2.749,4.127,2.749,6.795C242.444,507.422,241.526,509.701,239.695,511.607z"/>
	<path fill="#FFFFFF" d="M307.516,467.129c-20.301,0-36.758,16.518-36.758,36.891c0,20.377,16.457,36.895,36.758,36.895
		s36.758-16.518,36.758-36.895C344.273,483.646,327.816,467.129,307.516,467.129z M306.871,517.01
		c-6.791,0-12.297-5.527-12.297-12.342s5.506-12.342,12.297-12.342c6.79,0,12.297,5.527,12.297,12.342
		S313.661,517.01,306.871,517.01z"/>
	<linearGradient id="SVGID_11_" gradientUnits="userSpaceOnUse" x1="134.8232" y1="483.9912" x2="142.0826" y2="479.4387">
		<stop  offset="0" style="stop-color:#FFFFFF"/>
		<stop  offset="1" style="stop-color:#000000"/>
	</linearGradient>
	<polygon opacity="0.4" fill="url(#SVGID_11_)" points="154.735,470.07 140.496,506.014 117.044,496.889 130.976,460.824 	"/>
	<path fill-rule="evenodd" clip-rule="evenodd" fill="#FFFFFF" d="M189.874,538.766c0.083-0.254,0.248-0.463,0.453-0.615
		l-30.835-77.381h-27.532l31.464,78.926h26.141C189.668,539.695,189.769,539.09,189.874,538.766z"/>
	
		<linearGradient id="SVGID_12_" gradientUnits="userSpaceOnUse" x1="3443.002" y1="7335.9629" x2="3448.6675" y2="7335.9629" gradientTransform="matrix(-1 0 0 -1 3667 7863)">
		<stop  offset="0" style="stop-color:#FFFFFF"/>
		<stop  offset="1" style="stop-color:#000000"/>
	</linearGradient>
	<rect x="217.153" y="514.379" opacity="0.4" fill="url(#SVGID_12_)" width="10.386" height="25.316"/>
	<rect x="194.896" y="471.193" fill="#FFFFFF" width="24.482" height="68.502"/>
	<linearGradient id="SVGID_13_" gradientUnits="userSpaceOnUse" x1="311.373" y1="523.9551" x2="323.7676" y2="523.9551">
		<stop  offset="0" style="stop-color:#FFFFFF"/>
		<stop  offset="1" style="stop-color:#000000"/>
	</linearGradient>
	<path opacity="0.4" fill="url(#SVGID_13_)" d="M323.326,510.271l-4.249-3.084c-0.872,4.225-3.995,7.656-7.704,9.092v24.443
		c4.451-0.426,8.537-1.641,12.395-3.527L323.326,510.271z"/>
	<rect x="319.082" y="503.209" fill="#FFFFFF" width="24.934" height="37.23"/>
	<rect x="349.951" y="468.213" fill="#FFFFFF" width="19.289" height="68.502"/>
	<rect x="401.141" y="468.213" fill="#FFFFFF" width="17.064" height="72.227"/>
	<linearGradient id="SVGID_14_" gradientUnits="userSpaceOnUse" x1="357.5234" y1="489.9863" x2="362.6738" y2="486.8593">
		<stop  offset="0" style="stop-color:#FFFFFF"/>
		<stop  offset="1" style="stop-color:#000000"/>
	</linearGradient>
	<polygon opacity="0.4" fill="url(#SVGID_14_)" points="350.24,469.707 350.944,482.586 369.24,507.574 369.24,500.48 
		373.455,497.285 	"/>
	
		<linearGradient id="SVGID_15_" gradientUnits="userSpaceOnUse" x1="3674.4004" y1="7300.3398" x2="3679.4084" y2="7297.2993" gradientTransform="matrix(-1 0 0 -1 4086.3027 7820.8711)">
		<stop  offset="0" style="stop-color:#FFFFFF"/>
		<stop  offset="1" style="stop-color:#000000"/>
	</linearGradient>
	<polygon opacity="0.4" fill="url(#SVGID_15_)" points="418.205,540.439 418.205,527.568 401.141,503.334 401.141,509.229 
		396.773,514.029 	"/>
	<polygon fill="#FFFFFF" points="418.205,540.439 391.249,540.439 350.24,468.213 378.719,468.213 	"/>
	<path fill-rule="evenodd" clip-rule="evenodd" fill="#FFFFFF" d="M344.016,541.205c0,1.254-0.717,1.467-1.959,1.467h-19.908
		c-1.24,0-3.066-0.213-3.066-1.467v-10.244c0-1.252,1.826-2.434,3.066-2.434h19.908c1.242,0,1.959,1.182,1.959,2.434V541.205z"/>
	<path fill-rule="evenodd" clip-rule="evenodd" fill="#FFFFFF" d="M219.379,539.949c0,1.252-0.737,1.98-2.041,1.98h-19.28
		c-1.301,0-3.161-0.729-3.161-1.98v-10.244c0-1.254,1.86-1.924,3.161-1.924h19.28c1.304,0,2.041,0.67,2.041,1.924V539.949z"/>
	<path fill-rule="evenodd" clip-rule="evenodd" fill="#FFFFFF" d="M175.788,526.293h-9.864c-1.253,0-2.928,1.234-2.928,2.488v10.252
		c0,1.252,1.675,2.15,2.928,2.15h22.756c1.256,0,1.991-0.703,1.991-1.955l-1.483-3.916L175.788,526.293z"/>
	<path fill-rule="evenodd" clip-rule="evenodd" fill="#FFFFFF" d="M114.738,526.293h9.902c1.259,0,2.744,1.234,2.744,2.488v10.252
		c0,1.252-1.485,2.15-2.744,2.15h-22.849c-1.26,0-1.997-0.703-1.997-1.955l1.489-3.916L114.738,526.293z"/>
	<path fill-rule="evenodd" clip-rule="evenodd" fill="#FFFFFF" d="M369.24,541.178c0,1.271-1.06,1.494-2.43,1.494h-13.834
		c-1.369,0-3.025-0.223-3.025-1.494v-10.395c0-1.27,1.656-2.256,3.025-2.256h13.834c1.37,0,2.43,0.986,2.43,2.256V541.178z"/>
	<path fill-rule="evenodd" clip-rule="evenodd" fill="#FFFFFF" d="M418.205,478.232c0,1.209-1.021,1.896-2.305,1.896h-11.967
		c-1.283,0-2.793-0.688-2.793-1.896v-9.9c0-1.211,1.51-2.352,2.793-2.352H415.9c1.283,0,2.305,1.141,2.305,2.352V478.232z"/>
</g>
</svg>
